<svg width="149" height="214" viewBox="0 0 149 214" fill="none" xmlns="http://www.w3.org/2000/svg">
<path d="M31.7633 87.1187C31.5778 87.1629 31.3846 87.1629 31.1991 87.1187L1.50416 69.9254C1.28969 69.757 1.14345 69.5167 1.09246 69.2489C1.04148 68.981 1.0892 68.7037 1.22681 68.4683C1.36442 68.233 1.58262 68.0554 1.84104 67.9684C2.09947 67.8814 2.38065 67.8909 2.63258 67.9952L32.3275 85.1886C32.5301 85.318 32.6861 85.5087 32.7728 85.733C32.8594 85.9572 32.8722 86.2033 32.8092 86.4353C32.7463 86.6673 32.6108 86.8731 32.4227 87.0228C32.2346 87.1724 32.0035 87.2581 31.7633 87.2673V87.1187Z" fill="white"/>
<path d="M89.8466 213.59L67.4566 211.244C44.8291 208.838 30.7537 188.616 30.7537 158.476V86.1093C30.7561 85.9113 30.8093 85.7174 30.9081 85.5458C31.0068 85.3742 31.1479 85.2309 31.3179 85.1294C51.8433 72.9516 70.6231 58.0476 87.1444 40.8245L89.0448 38.8944C89.2217 38.7179 89.4508 38.6032 89.6981 38.5677L91.5986 38.3004C111.299 35.2027 130.216 28.3258 147.306 18.0485C147.476 17.96 147.664 17.9138 147.856 17.9138C148.047 17.9138 148.235 17.96 148.405 18.0485C148.575 18.15 148.716 18.2934 148.815 18.465C148.914 18.6365 148.967 18.8305 148.969 19.0285V91.3059C148.969 121.001 135.191 156.932 113.038 184.875L90.8859 213.055C90.7805 213.233 90.6271 213.377 90.4432 213.472C90.2594 213.567 90.0525 213.607 89.8466 213.59ZM32.8621 86.7626V158.476C32.8621 187.399 46.1653 206.76 67.5754 208.957L89.3715 211.244L111.375 183.509C133.261 155.952 146.831 120.615 146.831 91.4543V20.9586C129.924 30.9186 111.284 37.5886 91.8955 40.6166L90.3811 40.8245L88.7479 42.5172C72.1625 59.6772 53.3692 74.5561 32.8621 86.7626Z" fill="white"/>
<path d="M51.4509 205.661C51.2536 205.658 51.0599 205.607 50.8867 205.513L22.1717 188.646C20.3215 187.602 18.572 186.389 16.9454 185.023C6.58187 175.907 0.880439 160.317 0.880439 141.134V68.7973C0.879756 68.6022 0.928409 68.41 1.02185 68.2386C1.1153 68.0673 1.25049 67.9224 1.41493 67.8173C21.9762 55.6741 40.8045 40.8112 57.3899 23.6313L59.2903 21.6714C59.4659 21.498 59.6975 21.3928 59.9436 21.3745L61.8441 21.1072C81.5698 17.9649 100.504 11.0485 117.611 0.736526C117.782 0.634487 117.977 0.580566 118.175 0.580566C118.374 0.580566 118.569 0.634487 118.74 0.736526L148.435 18.0784C148.562 18.1493 148.675 18.2452 148.765 18.3602C148.856 18.4752 148.922 18.6071 148.961 18.7481C149 18.8892 149.01 19.0366 148.991 19.1817C148.972 19.3267 148.924 19.4665 148.85 19.5928C148.78 19.7213 148.684 19.834 148.568 19.9238C148.452 20.0136 148.319 20.0786 148.177 20.1148C148.035 20.151 147.887 20.1577 147.742 20.1343C147.598 20.1109 147.459 20.058 147.336 19.9789L118.116 2.99337C100.911 13.2904 81.8883 20.1858 62.0817 23.3047L60.5375 23.5126L58.9043 25.1755C42.3388 42.3453 23.5539 57.2253 3.04816 69.4209V141.134C3.04816 159.664 8.48234 174.66 18.3707 183.36C19.8808 184.635 21.5119 185.759 23.2407 186.716L51.9557 203.583C52.1583 203.712 52.3143 203.903 52.401 204.127C52.4876 204.351 52.5004 204.597 52.4374 204.829C52.3745 205.061 52.239 205.267 52.0509 205.417C51.8628 205.566 51.6317 205.652 51.3915 205.661H51.4509Z" fill="white"/>
<path d="M89.8465 40.8244C89.6451 40.821 89.4492 40.7591 89.2823 40.6463L59.5874 23.3341C59.4595 23.2631 59.347 23.1674 59.2567 23.0523C59.1663 22.9373 59.0998 22.8054 59.0611 22.6643C59.0223 22.5232 59.0122 22.3759 59.0312 22.2309C59.0501 22.0858 59.0979 21.946 59.1717 21.8197C59.3207 21.5673 59.562 21.3828 59.8447 21.3052C60.1273 21.2276 60.4291 21.263 60.6861 21.4039L90.381 38.7458C90.5089 38.8167 90.6214 38.9126 90.7117 39.0276C90.8021 39.1426 90.8686 39.2746 90.9073 39.4156C90.946 39.5567 90.9562 39.704 90.9372 39.8491C90.9182 39.9941 90.8705 40.1339 90.7967 40.2602C90.6979 40.426 90.5592 40.5644 90.3932 40.663C90.2273 40.7615 90.0393 40.817 89.8465 40.8244Z" fill="white"/>
<path d="M84.947 201.593L68.7632 199.871C52.1935 198.119 42.3051 182.648 42.3051 158.476V92.583C42.3066 92.3923 42.3564 92.2052 42.4499 92.0391C42.5434 91.8729 42.6775 91.7331 42.8396 91.6327C61.642 79.7476 78.9752 65.6837 94.4791 49.7332C94.6522 49.5681 94.8683 49.4549 95.1026 49.4066C109.277 47.1254 123.061 42.8672 136.052 36.7566C136.223 36.6772 136.411 36.6419 136.599 36.6539C136.787 36.6659 136.969 36.7248 137.128 36.8252C137.288 36.9256 137.42 37.0642 137.512 37.2286C137.604 37.393 137.653 37.5778 137.655 37.7662V91.217C137.655 118.536 124.827 151.676 104.189 177.689L85.6893 201.177C85.5995 201.292 85.4875 201.389 85.36 201.46C85.2326 201.531 85.0921 201.577 84.947 201.593ZM44.4431 93.2066V158.535C44.4431 181.46 53.5891 196.099 68.9117 197.733L84.4718 199.366L102.586 176.531C122.778 150.844 135.428 118.239 135.428 91.3061V39.5182C122.813 45.2722 109.494 49.3359 95.8153 51.604C80.3162 67.4259 63.026 81.3876 44.2946 93.2066H44.4431Z" fill="white"/>
<path d="M74.4051 194.912L58.2511 193.219C56.4573 193.028 54.6868 192.66 52.9654 192.12C52.8062 192.095 52.6544 192.035 52.5201 191.946C52.3858 191.857 52.2722 191.74 52.1869 191.603C52.1016 191.466 52.0466 191.313 52.0257 191.153C52.0047 190.993 52.0182 190.831 52.0654 190.676C52.1125 190.522 52.1921 190.38 52.2988 190.259C52.4055 190.138 52.5369 190.042 52.6841 189.976C52.8313 189.91 52.9909 189.877 53.1521 189.878C53.3133 189.879 53.4724 189.914 53.6187 189.982C55.1926 190.486 56.8148 190.825 58.459 190.992L74.0191 192.625L92.133 169.819C112.474 144.163 125.124 111.558 125.124 84.7136V42.1905C125.098 42.029 125.107 41.8638 125.15 41.7061C125.194 41.5485 125.272 41.4022 125.378 41.2775C125.484 41.1528 125.615 41.0526 125.764 40.9839C125.912 40.9152 126.074 40.8796 126.238 40.8796C126.401 40.8796 126.563 40.9152 126.711 40.9839C126.86 41.0526 126.992 41.1528 127.098 41.2775C127.204 41.4022 127.281 41.5485 127.325 41.7061C127.369 41.8638 127.378 42.029 127.351 42.1905V84.7136C127.351 112.033 114.523 145.172 93.885 171.185L75.3851 194.496C75.2704 194.642 75.1202 194.758 74.9488 194.83C74.7774 194.903 74.5903 194.931 74.4051 194.912Z" fill="white"/>
</svg>
