<svg width="1917" height="762" viewBox="0 0 1917 762" fill="none" xmlns="http://www.w3.org/2000/svg">
<path d="M1701.34 223.243C1700.15 221.854 1698.62 220.8 1696.9 220.187C1695.18 219.574 1693.33 219.423 1691.53 219.75C1688.76 220.297 1686.33 221.919 1684.76 224.261C1683.19 226.602 1682.61 229.471 1683.15 232.238C1683.46 233.893 1684.15 235.453 1685.16 236.799C1635.8 280.344 1594.58 337.137 1552.3 395.378C1523.54 434.995 1493.79 475.952 1460.94 513.162C1427.11 551.477 1396.16 577.013 1366.99 592.795C1365.91 590.94 1364.3 589.459 1362.36 588.549C1360.42 587.64 1358.24 587.347 1356.13 587.71C1354.76 587.978 1353.45 588.514 1352.29 589.288C1351.13 590.061 1350.13 591.056 1349.35 592.216C1348.57 593.376 1348.03 594.678 1347.76 596.047C1347.48 597.417 1347.48 598.827 1347.75 600.198C1347.86 600.726 1348 601.246 1348.18 601.754C1267.66 634.585 1199.65 593.863 1119.93 546.119C1076.16 519.895 1030.9 492.801 977.42 473.056C963.617 467.822 949.263 464.179 934.635 462.197C934.656 461.421 934.595 460.644 934.454 459.88C934.058 457.299 932.712 454.958 930.68 453.317C928.648 451.676 926.076 450.853 923.469 451.009C920.862 451.165 918.407 452.29 916.586 454.162C914.764 456.034 913.707 458.519 913.623 461.129C891.29 461.608 869.696 469.218 851.997 482.847C822.244 505.434 801.105 543.169 780.672 579.656C750.302 633.607 718.92 689.586 658.96 698.635C658.29 698.744 657.62 698.816 656.932 698.888C656.919 698.385 656.871 697.883 656.788 697.386C656.402 694.837 655.091 692.519 653.103 690.876C651.116 689.233 648.593 688.381 646.017 688.482C643.44 688.583 640.992 689.63 639.139 691.423C637.286 693.216 636.16 695.629 635.975 698.201C579.526 687.342 538.243 604.559 498.046 524.22C466.265 460.568 433.471 394.961 393.455 366.981C394.173 365.114 394.361 363.085 393.998 361.117C393.762 359.74 393.256 358.424 392.511 357.243C391.765 356.062 390.793 355.039 389.652 354.234C388.51 353.429 387.221 352.857 385.859 352.55C384.496 352.244 383.086 352.209 381.71 352.448C380.357 352.693 379.068 353.207 377.918 353.96C376.768 354.712 375.78 355.687 375.013 356.828C308.465 327.87 233.845 361.153 161.452 393.332C118.432 412.481 77.7825 430.561 39.1966 436.153C26.5277 437.963 13.0263 439.465 -1 440.533L-0.837121 442.614C13.2435 441.51 26.8173 440.044 39.4862 438.198C78.3617 432.588 119.119 414.453 162.284 395.233C234.117 363.271 308.284 330.296 374.036 358.656C373.189 360.635 372.95 362.821 373.348 364.936C373.587 366.311 374.094 367.626 374.84 368.805C375.587 369.984 376.559 371.004 377.7 371.808C378.841 372.611 380.13 373.182 381.491 373.487C382.853 373.792 384.262 373.826 385.637 373.587C387.062 373.326 388.416 372.767 389.611 371.947C390.805 371.127 391.813 370.064 392.569 368.827C432.023 396.572 464.637 461.835 496.255 525.143C536.723 606.134 578.403 689.568 636.011 700.318C636.011 700.608 636.011 700.915 636.119 701.205C636.358 702.582 636.865 703.899 637.613 705.081C638.361 706.262 639.334 707.284 640.477 708.089C641.62 708.894 642.91 709.466 644.274 709.773C645.638 710.079 647.049 710.113 648.426 709.874C650.582 709.461 652.554 708.384 654.066 706.793C655.579 705.203 656.556 703.179 656.86 701.006L659.303 700.68L662.833 700.083C721.526 689.224 752.438 634.06 782.282 580.633C802.625 544.328 823.655 506.792 853.065 484.458C870.385 470.975 891.588 463.429 913.532 462.939C913.532 463.174 913.532 463.41 913.641 463.645C913.879 465.02 914.386 466.335 915.133 467.514C915.88 468.693 916.852 469.713 917.993 470.516C919.134 471.32 920.422 471.891 921.784 472.196C923.146 472.501 924.555 472.535 925.93 472.296C927.979 471.908 929.867 470.917 931.35 469.45C932.833 467.983 933.845 466.107 934.255 464.061C948.725 466.096 962.924 469.738 976.587 474.92C1029.91 494.611 1075.08 521.65 1118.77 547.821C1188.28 589.447 1249.08 625.807 1316.69 613.301C1327.75 611.224 1338.56 608.003 1348.94 603.691C1350.19 605.851 1352.17 607.495 1354.52 608.329C1356.87 609.163 1359.44 609.131 1361.77 608.239C1364.1 607.347 1366.03 605.654 1367.22 603.463C1368.42 601.272 1368.79 598.729 1368.27 596.288C1368.17 595.754 1368.02 595.227 1367.84 594.714C1397.19 578.841 1428.36 553.087 1462.4 514.538C1495.31 477.255 1525.1 436.244 1553.89 396.59C1596.1 338.44 1637.25 281.737 1686.52 238.301C1687.7 239.382 1689.12 240.176 1690.66 240.622C1692.2 241.067 1693.82 241.153 1695.4 240.871C1697.06 240.503 1698.61 239.751 1699.92 238.677C1701.23 237.603 1702.28 236.236 1702.97 234.686C1703.66 233.135 1703.97 231.445 1703.89 229.75C1703.81 228.056 1703.33 226.403 1702.5 224.926C1758.84 180.296 1826.2 153.311 1916.89 159.772L1917 157.709C1825.73 151.23 1757.95 178.377 1701.34 223.243Z" fill="url(#paint0_linear)"/>
<path d="M199.386 669.243H188.581V761.889H199.386V669.243Z" fill="#3AA3C1"/>
<path d="M219.783 650.584H208.978V715.032H219.783V650.584Z" fill="#3AA3C1"/>
<path d="M240.18 622.387H229.375V715.033H240.18V622.387Z" fill="#3AA3C1"/>
<path d="M260.576 579.783H249.772V640.214H260.576V579.783Z" fill="#3AA3C1"/>
<path d="M280.973 527.407H270.169V587.838H280.973V527.407Z" fill="#3AA3C1"/>
<path d="M301.389 531.442H290.584V624.088H301.389V531.442Z" fill="#3AA3C1"/>
<path d="M321.785 557.612H310.981V597.899H321.785V557.612Z" fill="#3AA3C1"/>
<path d="M342.182 557.612H331.378V650.258H342.182V557.612Z" fill="#3AA3C1"/>
<path d="M362.579 577.775H351.775V622.08H362.579V577.775Z" fill="#3AA3C1"/>
<path d="M382.976 535.479H372.172V628.124H382.976V535.479Z" fill="#3AA3C1"/>
<path d="M403.373 608.288H392.569V700.934H403.373V608.288Z" fill="#3AA3C1"/>
<path d="M423.77 614.333H412.965V638.494H423.77V614.333Z" fill="#3AA3C1"/>
<path d="M442.358 510.068H431.553V602.714H442.358V510.068Z" fill="#3AA3C1"/>
<path d="M462.754 528.202H451.95V620.848H462.754V528.202Z" fill="#3AA3C1"/>
<path d="M483.151 560.437H472.347V628.921H483.151V560.437Z" fill="#3AA3C1"/>
<path d="M503.548 539.134H492.743V567.331H503.548V539.134Z" fill="#3AA3C1"/>
<path d="M523.945 496.838H513.14V589.484H523.945V496.838Z" fill="#3AA3C1"/>
<path d="M544.342 441.275H533.537V533.921H544.342V441.275Z" fill="#3AA3C1"/>
<path d="M564.739 485.6H553.934V505.743H564.739V485.6Z" fill="#3AA3C1"/>
<path d="M585.136 469.473H574.331V517.814H585.136V469.473Z" fill="#3AA3C1"/>
<path d="M605.551 449.349H594.746V489.636H605.551V449.349Z" fill="#3AA3C1"/>
<path d="M625.948 445.312H615.143V537.957H625.948V445.312Z" fill="#3AA3C1"/>
<path d="M646.345 501.707H635.54V533.94H646.345V501.707Z" fill="#3AA3C1"/>
<path d="M666.742 528.365H655.937V580.724H666.742V528.365Z" fill="#3AA3C1"/>
<path d="M687.139 524.33H676.334V580.725H687.139V524.33Z" fill="#3AA3C1"/>
<path d="M707.536 494.123H696.731V570.661H707.536V494.123Z" fill="#3AA3C1"/>
<path d="M727.932 437.258H717.128V529.904H727.932V437.258Z" fill="#3AA3C1"/>
<path d="M748.329 477.545H737.525V541.993H748.329V477.545Z" fill="#3AA3C1"/>
<path d="M768.745 479.808H757.94V519.57H768.745V479.808Z" fill="#3AA3C1"/>
<path d="M789.142 437.258H778.337V529.904H789.142V437.258Z" fill="#3AA3C1"/>
<path d="M809.539 415.105H798.734V507.751H809.539V415.105Z" fill="#3AA3C1"/>
<path d="M829.935 465.455H819.13V519.841H829.935V465.455Z" fill="#3AA3C1"/>
<path d="M850.332 374.817H839.528V467.463H850.332V374.817Z" fill="#3AA3C1"/>
<path d="M870.729 360.72H859.925V453.366H870.729V360.72Z" fill="#3AA3C1"/>
<path d="M891.126 310.37H880.321V350.657H891.126V310.37Z" fill="#3AA3C1"/>
<path d="M911.523 260.02H900.718V352.665H911.523V260.02Z" fill="#3AA3C1"/>
<path d="M931.92 284.182H921.115V376.828H931.92V284.182Z" fill="#3AA3C1"/>
<path d="M952.317 308.36H941.512V401.006H952.317V308.36Z" fill="#3AA3C1"/>
<path d="M972.732 384.899H961.928V429.204H972.732V384.899Z" fill="#3AA3C1"/>
<path d="M993.129 348.647H982.324V441.293H993.129V348.647Z" fill="#3AA3C1"/>
<path d="M1013.53 411.069H1002.72V455.374H1013.53V411.069Z" fill="#3AA3C1"/>
<path d="M1033.92 374.076H1023.12V434.507H1033.92V374.076Z" fill="#3AA3C1"/>
<path d="M1054.32 311.637H1043.52V404.283H1054.32V311.637Z" fill="#3AA3C1"/>
<path d="M1074.72 329.771H1063.91V422.417H1074.72V329.771Z" fill="#3AA3C1"/>
<path d="M1095.11 424.426H1084.31V470.74H1095.11V424.426Z" fill="#3AA3C1"/>
<path d="M1115.53 445.584H1104.72V499.97H1115.53V445.584Z" fill="#3AA3C1"/>
<path d="M1135.93 445.584H1125.12V473.781H1135.93V445.584Z" fill="#3AA3C1"/>
<path d="M1156.32 399.251H1145.52V491.897H1156.32V399.251Z" fill="#3AA3C1"/>
<path d="M1176.72 470.432H1165.91V514.737H1176.72V470.432Z" fill="#3AA3C1"/>
<path d="M1197.12 479.808H1186.31V528.149H1197.12V479.808Z" fill="#3AA3C1"/>
<path d="M1217.51 452.623H1206.71V517.072H1217.51V452.623Z" fill="#3AA3C1"/>
<path d="M1237.91 428.517H1227.11V521.163H1237.91V428.517Z" fill="#3AA3C1"/>
<path d="M1258.33 416.427H1247.52V509.073H1258.33V416.427Z" fill="#3AA3C1"/>
<path d="M1278.72 449.349H1267.92V477.546H1278.72V449.349Z" fill="#3AA3C1"/>
<path d="M1299.12 375.94H1288.31V436.353H1299.12V375.94Z" fill="#3AA3C1"/>
<path d="M1319.52 359.815H1308.71V452.461H1319.52V359.815Z" fill="#3AA3C1"/>
<path d="M1339.91 406.147H1329.11V446.416H1339.91V406.147Z" fill="#3AA3C1"/>
<path d="M1360.31 349.752H1349.51V414.2H1360.31V349.752Z" fill="#3AA3C1"/>
<path d="M1380.73 364.974H1369.92V457.619H1380.73V364.974Z" fill="#3AA3C1"/>
<path d="M1401.12 419.341H1390.32V459.628H1401.12V419.341Z" fill="#3AA3C1"/>
<path d="M1421.52 384.899H1410.71V477.545H1421.52V384.899Z" fill="#3AA3C1"/>
<path d="M1441.92 314.822H1431.11V407.468H1441.92V314.822Z" fill="#3AA3C1"/>
<path d="M1462.31 284.615H1451.51V320.866H1462.31V284.615Z" fill="#3AA3C1"/>
<path d="M1482.71 224.186H1471.9V316.831H1482.71V224.186Z" fill="#3AA3C1"/>
<path d="M1503.11 256.418H1492.3V349.064H1503.11V256.418Z" fill="#3AA3C1"/>
<path d="M1523.52 314.822H1512.72V371.217H1523.52V314.822Z" fill="#3AA3C1"/>
<path d="M1543.92 268.508H1533.11V361.154H1543.92V268.508Z" fill="#3AA3C1"/>
<path d="M1564.31 252.383H1553.51V290.661H1564.31V252.383Z" fill="#3AA3C1"/>
<path d="M1584.7 206.068H1573.91V252.382H1584.7V206.068Z" fill="#3AA3C1"/>
<path d="M1605.11 181.907H1594.3V252.401H1605.11V181.907Z" fill="#3AA3C1"/>
<path d="M1625.51 181.907H1614.72V236.709H1625.51V181.907Z" fill="#3AA3C1"/>
<path d="M1645.9 191.046H1635.1V213.036H1645.9V191.046Z" fill="#3AA3C1"/>
<path d="M1666.32 137.584H1655.51V173.835H1666.32V137.584Z" fill="#3AA3C1"/>
<path d="M1686.72 97.0439H1675.91V163.773H1686.72V97.0439Z" fill="#3AA3C1"/>
<path d="M1707.11 0H1696.31V92.6459H1707.11V0Z" fill="#3AA3C1"/>
<path d="M1727.51 35.8164H1716.7V128.462H1727.51V35.8164Z" fill="#3AA3C1"/>
<defs>
<linearGradient id="paint0_linear" x1="-0.963803" y1="433.384" x2="1917.05" y2="433.384" gradientUnits="userSpaceOnUse">
<stop stop-color="#FF00FF"/>
<stop offset="0.26" stop-color="#B54AFF"/>
<stop offset="0.63" stop-color="#54ABFF"/>
<stop offset="0.88" stop-color="#18E7FF"/>
<stop offset="1" stop-color="#00FFFF"/>
</linearGradient>
</defs>
</svg>
