<svg width="229" height="235" viewBox="0 0 229 235" fill="none" xmlns="http://www.w3.org/2000/svg">
<path d="M138.6 234.575C138.4 234.572 138.203 234.52 138.028 234.424C137.86 234.324 137.719 234.184 137.62 234.015C137.52 233.847 137.463 233.657 137.456 233.461V171.581L124.454 179.075C124.263 179.206 124.038 179.276 123.807 179.276C123.576 179.276 123.35 179.206 123.16 179.075C122.986 178.921 122.861 178.719 122.802 178.494C122.743 178.269 122.752 178.031 122.829 177.811L138.84 136.578C138.948 136.295 139.164 136.066 139.441 135.942C139.717 135.818 140.032 135.808 140.315 135.916C140.588 136.036 140.805 136.255 140.923 136.528C141.04 136.802 141.049 137.111 140.947 137.391L126.109 175.644L138.148 168.752C138.321 168.649 138.519 168.594 138.72 168.594C138.921 168.594 139.119 168.649 139.292 168.752C139.459 168.858 139.596 169.005 139.69 169.179C139.785 169.353 139.834 169.547 139.834 169.745V231.625L176.582 210.407V147.202C176.579 147.001 176.63 146.802 176.731 146.627C176.832 146.452 176.978 146.307 177.154 146.209L190.788 138.324L158.494 92.4253L149.766 114.637C149.713 114.774 149.633 114.898 149.532 115.004C149.43 115.11 149.309 115.194 149.175 115.253C149.04 115.312 148.896 115.343 148.749 115.346C148.603 115.349 148.457 115.323 148.321 115.269C148.043 115.155 147.819 114.938 147.696 114.664C147.572 114.389 147.559 114.078 147.659 113.794L157.049 89.7165C157.118 89.5268 157.239 89.3607 157.399 89.238C157.559 89.1153 157.751 89.0411 157.952 89.0243C158.152 88.9935 158.357 89.0195 158.543 89.0993C158.73 89.1791 158.89 89.3096 159.006 89.4758L193.226 138.143C193.316 138.274 193.378 138.421 193.409 138.576C193.44 138.731 193.439 138.891 193.407 139.046C193.327 139.348 193.133 139.607 192.865 139.768L178.719 147.925V211.129C178.718 211.326 178.664 211.519 178.563 211.688C178.463 211.857 178.319 211.996 178.147 212.092L139.172 234.605C138.981 234.636 138.786 234.625 138.6 234.575Z" fill="#231F20"/>
<path d="M99.6535 212.062C99.3712 212.04 99.1072 211.914 98.9127 211.708C98.7181 211.502 98.6067 211.232 98.6001 210.949V164.749L84.4543 156.563C84.2246 156.425 84.0507 156.211 83.9626 155.958C83.8746 155.705 83.8783 155.429 83.9728 155.178L118.193 67.0234C118.301 66.748 118.514 66.5267 118.785 66.4082C119.056 66.2896 119.363 66.2836 119.638 66.3914C119.913 66.4991 120.135 66.7119 120.253 66.9828C120.372 67.2537 120.378 67.5607 120.27 67.8361L86.4408 155.118L100.286 163.124C100.462 163.222 100.608 163.366 100.709 163.541C100.81 163.716 100.861 163.915 100.857 164.117V210.949C100.854 211.102 100.819 211.252 100.756 211.391C100.693 211.531 100.603 211.656 100.491 211.76C100.378 211.864 100.247 211.944 100.103 211.996C99.959 212.048 99.8062 212.07 99.6535 212.062Z" fill="#231F20"/>
<path d="M138.599 234.575C138.399 234.572 138.203 234.521 138.028 234.425L99.0816 211.912C98.952 211.84 98.838 211.743 98.7464 211.627C98.6548 211.51 98.5874 211.376 98.5481 211.233C98.5089 211.09 98.4986 210.941 98.5178 210.794C98.5371 210.647 98.5855 210.505 98.6602 210.377C98.8169 210.119 99.0669 209.932 99.3583 209.853C99.6498 209.775 99.9603 209.811 100.225 209.956L139.171 232.469C139.377 232.6 139.535 232.793 139.622 233.02C139.71 233.248 139.723 233.497 139.659 233.732C139.596 233.967 139.458 234.176 139.268 234.328C139.077 234.479 138.843 234.566 138.599 234.575Z" fill="#231F20"/>
<path d="M123.882 179.226C123.692 179.223 123.505 179.171 123.34 179.075L84.2138 156.562C84.0836 156.491 83.9693 156.394 83.8783 156.276C83.7873 156.159 83.7215 156.024 83.6848 155.88C83.6481 155.736 83.6413 155.586 83.665 155.439C83.6888 155.293 83.7424 155.153 83.8226 155.028C83.8945 154.898 83.9916 154.784 84.1082 154.692C84.2248 154.601 84.3585 154.533 84.5014 154.494C84.6444 154.455 84.7938 154.445 84.9408 154.464C85.0878 154.483 85.2295 154.531 85.3576 154.606L124.303 177.119C124.559 177.27 124.746 177.515 124.825 177.801C124.904 178.088 124.868 178.393 124.725 178.654C124.636 178.806 124.515 178.937 124.369 179.036C124.223 179.135 124.056 179.2 123.882 179.226Z" fill="#231F20"/>
<path d="M158.103 91.0708C157.901 91.0819 157.701 91.0292 157.531 90.9203L118.585 68.4076C118.439 68.3478 118.307 68.2576 118.198 68.143C118.09 68.0285 118.007 67.8921 117.955 67.743C117.903 67.5939 117.883 67.4354 117.897 67.2782C117.911 67.1209 117.958 66.9685 118.036 66.8309C118.113 66.6933 118.219 66.5736 118.346 66.48C118.473 66.3864 118.619 66.3209 118.773 66.2879C118.928 66.2548 119.087 66.255 119.242 66.2883C119.396 66.3217 119.541 66.3874 119.668 66.4813L158.795 88.964C159.048 89.1254 159.229 89.3776 159.302 89.6687C159.375 89.9597 159.333 90.2676 159.186 90.529C159.08 90.717 158.92 90.869 158.727 90.9655C158.534 91.062 158.317 91.0987 158.103 91.0708Z" fill="#231F20"/>
<path d="M188.32 134.11C188.124 134.106 187.933 134.051 187.764 133.95C187.595 133.85 187.455 133.708 187.357 133.539C187.283 133.41 187.234 133.269 187.215 133.122C187.196 132.975 187.206 132.825 187.245 132.682C187.284 132.54 187.352 132.406 187.444 132.289C187.535 132.173 187.649 132.075 187.779 132.004L214.385 116.624V66.0002C214.387 65.7995 214.441 65.6029 214.541 65.429C214.641 65.2552 214.784 65.1099 214.957 65.007L225.701 58.807L200.149 22.4494L174.596 88.3324L183.625 83.0954C183.797 83.0057 183.988 82.9589 184.182 82.9589C184.376 82.9589 184.567 83.0057 184.739 83.0954C184.915 83.1936 185.062 83.3379 185.162 83.5129C185.263 83.6878 185.314 83.8868 185.311 84.0887V127.068C185.338 127.231 185.328 127.399 185.284 127.559C185.24 127.718 185.161 127.867 185.054 127.993C184.946 128.119 184.813 128.221 184.662 128.291C184.512 128.36 184.348 128.396 184.182 128.396C184.016 128.396 183.852 128.36 183.702 128.291C183.551 128.221 183.418 128.119 183.31 127.993C183.203 127.867 183.124 127.718 183.08 127.559C183.036 127.399 183.027 127.231 183.053 127.068V86.045L172.941 91.8839C172.75 92.0146 172.525 92.0846 172.294 92.0846C172.063 92.0846 171.837 92.0146 171.647 91.8839C171.465 91.7349 171.336 91.5325 171.276 91.3055C171.217 91.0785 171.23 90.8384 171.315 90.6197L198.794 19.8008C198.872 19.6087 199 19.4408 199.163 19.3139C199.327 19.187 199.522 19.1058 199.727 19.0785C199.93 19.0577 200.134 19.0914 200.32 19.176C200.505 19.2607 200.664 19.3933 200.781 19.56L228.26 58.6865C228.348 58.8117 228.41 58.9539 228.441 59.1041C228.472 59.2543 228.472 59.4093 228.44 59.5594C228.406 59.715 228.34 59.862 228.247 59.9914C228.154 60.1207 228.035 60.2298 227.898 60.3118L216.642 66.8128V117.436C216.643 117.634 216.591 117.828 216.49 117.998C216.389 118.167 216.244 118.306 216.07 118.4L188.983 134.11C188.766 134.171 188.537 134.171 188.32 134.11Z" fill="#231F20"/>
<path d="M152.776 88.0617C152.628 88.0659 152.481 88.0399 152.344 87.9854C152.207 87.9309 152.083 87.849 151.979 87.7447C151.875 87.6405 151.793 87.5161 151.738 87.3791C151.684 87.2421 151.658 87.0954 151.662 86.948V80.2966L140.436 73.7955C140.201 73.6621 140.023 73.4483 139.935 73.1937C139.846 72.9391 139.853 72.661 139.954 72.4111L153.678 36.9866C153.731 36.8465 153.812 36.7185 153.916 36.6103C154.019 36.5021 154.144 36.4159 154.281 36.3569C154.419 36.2979 154.567 36.2673 154.717 36.2668C154.867 36.2664 155.015 36.2962 155.153 36.3545C155.431 36.4682 155.653 36.6865 155.771 36.9624C155.889 37.2383 155.895 37.5497 155.785 37.8293L142.392 72.3208L153.377 78.6713C153.544 78.7708 153.681 78.912 153.776 79.0809C153.871 79.2498 153.921 79.4406 153.919 79.6344V86.948C153.919 87.0968 153.89 87.2442 153.832 87.3813C153.774 87.5184 153.689 87.6425 153.583 87.7463C153.476 87.8501 153.349 87.9315 153.211 87.9857C153.072 88.0398 152.924 88.0657 152.776 88.0617Z" fill="#231F20"/>
<path d="M160.962 22.7197C160.823 22.7481 160.679 22.7481 160.54 22.7197C160.404 22.6665 160.279 22.5869 160.174 22.4855C160.068 22.384 159.983 22.2627 159.925 22.1285C159.866 21.9943 159.834 21.8498 159.832 21.7034C159.829 21.5569 159.855 21.4114 159.908 21.2751L167.493 1.68169C167.607 1.40388 167.825 1.18188 168.101 1.06363C168.377 0.945389 168.688 0.940414 168.968 1.04967C169.104 1.10287 169.229 1.18244 169.334 1.28389C169.44 1.38534 169.525 1.50662 169.583 1.64082C169.642 1.77501 169.674 1.91954 169.677 2.06599C169.679 2.21244 169.653 2.35794 169.6 2.49428L162.015 22.0877C161.918 22.2823 161.767 22.4451 161.581 22.5571C161.394 22.6691 161.179 22.7254 160.962 22.7197Z" fill="#231F20"/>
<path d="M172.369 92.0337C172.17 92.0263 171.974 91.9749 171.797 91.8833L140.526 73.8249C140.397 73.7517 140.285 73.654 140.194 73.5373C140.103 73.4206 140.036 73.2872 139.997 73.1446C139.958 73.0021 139.948 72.8533 139.966 72.7066C139.984 72.5599 140.031 72.4183 140.105 72.2899C140.178 72.1614 140.275 72.0486 140.392 71.9579C140.509 71.8672 140.642 71.8004 140.785 71.7613C140.927 71.7222 141.076 71.7116 141.223 71.73C141.37 71.7484 141.511 71.7954 141.64 71.8686L172.941 89.9269C173.07 89.9989 173.184 90.096 173.276 90.2126C173.368 90.3292 173.435 90.4628 173.474 90.6058C173.513 90.7488 173.524 90.8981 173.504 91.0451C173.485 91.1921 173.437 91.3338 173.362 91.4618C173.259 91.6341 173.114 91.7772 172.94 91.8773C172.766 91.9774 172.57 92.0312 172.369 92.0337Z" fill="#231F20"/>
<path d="M199.848 21.3354C199.659 21.3761 199.464 21.3761 199.276 21.3354L168.005 3.27702C167.876 3.2039 167.764 3.10615 167.673 2.98944C167.582 2.87273 167.515 2.73931 167.476 2.59678C167.437 2.45425 167.426 2.30541 167.445 2.15875C167.463 2.01209 167.51 1.87048 167.584 1.74203C167.657 1.61357 167.754 1.50078 167.871 1.41008C167.988 1.31939 168.121 1.25256 168.264 1.21343C168.406 1.1743 168.555 1.16371 168.702 1.18211C168.848 1.20051 168.99 1.24759 169.118 1.32071L200.42 19.3791C200.55 19.4505 200.664 19.5479 200.755 19.6653C200.846 19.7827 200.912 19.9176 200.949 20.0615C200.985 20.2055 200.992 20.3555 200.968 20.5021C200.945 20.6488 200.891 20.7889 200.811 20.914C200.699 21.0602 200.552 21.1756 200.384 21.2493C200.215 21.3231 200.031 21.3527 199.848 21.3354Z" fill="#231F20"/>
<path d="M54.8087 220.82C54.6207 220.865 54.4249 220.865 54.2369 220.82C54.0605 220.722 53.9141 220.578 53.8133 220.403C53.7126 220.228 53.6614 220.029 53.665 219.827V159.031C53.7089 158.763 53.8464 158.519 54.0532 158.344C54.2599 158.168 54.5224 158.072 54.7937 158.072C55.0649 158.072 55.3273 158.168 55.5341 158.344C55.7408 158.519 55.8784 158.763 55.9223 159.031V217.72L92.6711 196.652V160.836C92.6443 160.673 92.6533 160.505 92.6977 160.346C92.7421 160.186 92.8207 160.037 92.9281 159.911C93.0354 159.785 93.169 159.683 93.3195 159.613C93.4701 159.544 93.6339 159.508 93.7997 159.508C93.9656 159.508 94.1294 159.544 94.2799 159.613C94.4304 159.683 94.564 159.785 94.6714 159.911C94.7788 160.037 94.8574 160.186 94.9017 160.346C94.9461 160.505 94.9552 160.673 94.9284 160.836V197.284C94.932 197.486 94.8808 197.685 94.78 197.86C94.6793 198.035 94.5329 198.179 94.3565 198.277L55.23 220.79C55.0928 220.827 54.9498 220.837 54.8087 220.82Z" fill="#231F20"/>
<path d="M54.8086 143.771C54.5053 143.771 54.2143 143.651 53.9999 143.436C53.7854 143.222 53.6649 142.931 53.6649 142.628V105.217L40.6628 112.711C40.4758 112.85 40.2489 112.925 40.0157 112.925C39.7826 112.925 39.5557 112.85 39.3687 112.711C39.1873 112.562 39.0577 112.36 38.9982 112.133C38.9388 111.906 38.9525 111.666 39.0375 111.447L73.2582 23.2918C73.3375 23.1092 73.4631 22.9505 73.6226 22.8313C73.7821 22.7121 73.97 22.6367 74.1676 22.6123C74.3652 22.588 74.5657 22.6157 74.7493 22.6926C74.933 22.7696 75.0933 22.8932 75.2146 23.0511L109.435 71.5981C109.527 71.7256 109.591 71.8711 109.623 72.0252C109.655 72.1792 109.654 72.3382 109.62 72.4918C109.585 72.6453 109.519 72.7899 109.425 72.916C109.331 73.0421 109.211 73.1468 109.074 73.2232L94.9283 81.3797V132.696C94.9551 132.859 94.946 133.027 94.9016 133.186C94.8572 133.346 94.7786 133.495 94.6713 133.621C94.5639 133.747 94.4303 133.849 94.2798 133.918C94.1293 133.988 93.9655 134.024 93.7996 134.024C93.6338 134.024 93.4699 133.988 93.3194 133.918C93.1689 133.849 93.0353 133.747 92.928 133.621C92.8206 133.495 92.742 133.346 92.6976 133.186C92.6532 133.027 92.6441 132.859 92.671 132.696V80.7476C92.6673 80.5457 92.7186 80.3467 92.8193 80.1718C92.92 79.9968 93.0664 79.8526 93.2428 79.7544L106.877 71.899L74.5223 25.9705L42.2279 109.159L54.2668 102.267C54.4387 102.178 54.6297 102.131 54.8236 102.131C55.0175 102.131 55.2086 102.178 55.3805 102.267C55.5568 102.365 55.7032 102.51 55.8039 102.685C55.9046 102.86 55.9559 103.059 55.9522 103.26V142.628C55.9522 142.931 55.8317 143.222 55.6172 143.436C55.4028 143.651 55.1119 143.771 54.8086 143.771Z" fill="#231F20"/>
<path d="M15.8329 198.307C15.5348 198.299 15.2515 198.176 15.0435 197.962C14.8355 197.748 14.7192 197.462 14.7193 197.164V98.3843L0.573526 90.1978C0.33929 90.0644 0.16141 89.8506 0.0728538 89.596C-0.0157021 89.3414 -0.00893309 89.0634 0.0919585 88.8134L14.8096 50.9208C14.8629 50.7845 14.9426 50.66 15.0441 50.5544C15.1456 50.4489 15.2669 50.3643 15.401 50.3056C15.5352 50.2469 15.6796 50.2153 15.826 50.2124C15.9724 50.2095 16.1179 50.2354 16.2543 50.2888C16.3906 50.3422 16.5151 50.4219 16.6207 50.5234C16.7262 50.6249 16.8108 50.7461 16.8695 50.8802C16.9282 51.0144 16.9598 51.1588 16.9627 51.3052C16.9656 51.4516 16.9397 51.5971 16.8863 51.7335L2.52983 88.7231L16.4047 96.759C16.5787 96.8522 16.724 96.9912 16.8248 97.161C16.9255 97.3307 16.9781 97.5248 16.9766 97.7222V197.043C16.9935 197.203 16.9765 197.365 16.9266 197.518C16.8768 197.671 16.7953 197.812 16.6874 197.931C16.5794 198.05 16.4475 198.145 16.3003 198.21C16.1531 198.275 15.9938 198.308 15.8329 198.307Z" fill="#231F20"/>
<path d="M23.1465 33.675C23.0075 33.7034 22.8642 33.7034 22.7252 33.675C22.5887 33.6218 22.464 33.5422 22.3583 33.4407C22.2527 33.3393 22.1681 33.218 22.1094 33.0838C22.0507 32.9496 22.019 32.8052 22.0162 32.6587C22.0134 32.5123 22.0395 32.3667 22.0931 32.2303L34.2825 0.748584C34.3962 0.470778 34.6146 0.248771 34.8905 0.130527C35.1664 0.0122837 35.4777 0.00730825 35.7573 0.116566C35.8937 0.169769 36.0184 0.249335 36.124 0.350783C36.2297 0.452231 36.3143 0.573512 36.373 0.707711C36.4317 0.841909 36.4635 0.98643 36.4663 1.13288C36.4691 1.27934 36.4428 1.42484 36.3893 1.56118L24.1999 33.043C24.1026 33.2377 23.9519 33.4005 23.7653 33.5125C23.5787 33.6244 23.364 33.6808 23.1465 33.675Z" fill="#231F20"/>
<path d="M54.8088 220.821C54.6208 220.866 54.4249 220.866 54.2369 220.821L15.291 198.308C15.033 198.151 14.8453 197.901 14.7668 197.61C14.6883 197.319 14.7251 197.008 14.8696 196.743C14.9441 196.616 15.043 196.505 15.1608 196.416C15.2785 196.328 15.4127 196.263 15.5554 196.227C15.6982 196.191 15.8468 196.183 15.9925 196.204C16.1383 196.226 16.2783 196.276 16.4046 196.352L55.3505 218.865C55.5771 218.979 55.7577 219.168 55.8625 219.399C55.9673 219.63 55.99 219.89 55.9268 220.136C55.8635 220.382 55.7182 220.599 55.5149 220.75C55.3116 220.902 55.0625 220.98 54.8088 220.971V220.821Z" fill="#231F20"/>
<path d="M40.0909 112.861C39.8896 112.869 39.6907 112.816 39.519 112.711L0.573102 90.1982C0.443472 90.1262 0.329544 90.0291 0.237943 89.9125C0.146341 89.7959 0.0789779 89.6623 0.039731 89.5193C0.000484212 89.3763 -0.00982476 89.2269 0.00942065 89.0799C0.0286661 88.9329 0.0770598 88.7912 0.151788 88.6632C0.308453 88.4052 0.558491 88.2174 0.849937 88.139C1.14138 88.0605 1.4518 88.0974 1.71681 88.2418L40.6627 110.755C40.9215 110.911 41.108 111.163 41.1813 111.456C41.2546 111.75 41.2089 112.06 41.054 112.32C40.9594 112.49 40.8192 112.631 40.6491 112.727C40.4791 112.823 40.2858 112.869 40.0909 112.861Z" fill="#231F20"/>
<path d="M74.2817 24.7367C74.087 24.7327 73.898 24.6697 73.7398 24.5561L34.7639 2.0433C34.5465 1.87265 34.3983 1.62904 34.3466 1.35755C34.2949 1.08607 34.3433 0.805035 34.4827 0.566453C34.6222 0.327871 34.8434 0.147867 35.1053 0.0597185C35.3672 -0.0284301 35.6523 -0.0187105 35.9076 0.0869978L74.8534 22.6298C74.9831 22.7018 75.0971 22.7989 75.1887 22.9155C75.2803 23.0321 75.3476 23.1657 75.3869 23.3087C75.4261 23.4517 75.4364 23.6011 75.4172 23.7481C75.398 23.8951 75.3496 24.0368 75.2748 24.1648C75.172 24.3371 75.0267 24.4801 74.8528 24.5802C74.6789 24.6803 74.4823 24.7342 74.2817 24.7367Z" fill="#231F20"/>
</svg>
