<svg width="50" height="72" viewBox="0 0 50 72" fill="none" xmlns="http://www.w3.org/2000/svg">
<path d="M10.4 29.1425C10.3376 29.1574 10.2725 29.1574 10.21 29.1425L0.210043 23.3525C0.137818 23.2958 0.0885718 23.2149 0.0714014 23.1247C0.0542309 23.0344 0.070301 22.9411 0.116644 22.8618C0.162986 22.7825 0.236465 22.7227 0.323492 22.6934C0.410518 22.6642 0.505207 22.6673 0.590048 22.7025L10.59 28.4925C10.6583 28.5361 10.7108 28.6003 10.74 28.6758C10.7692 28.7513 10.7735 28.8342 10.7523 28.9123C10.7311 28.9904 10.6855 29.0598 10.6221 29.1102C10.5587 29.1606 10.4809 29.1894 10.4 29.1925V29.1425Z" fill="#2737CE"/>
<path d="M29.9601 71.7325L22.4201 70.9425C14.8001 70.1325 10.0601 63.3225 10.0601 53.1725V28.8025C10.0609 28.7359 10.0788 28.6705 10.112 28.6128C10.1453 28.555 10.1928 28.5067 10.2501 28.4725C17.1621 24.3716 23.4864 19.3525 29.0501 13.5525L29.6901 12.9025C29.7496 12.8431 29.8268 12.8045 29.9101 12.7925L30.5501 12.7025C37.1845 11.6593 43.5546 9.34349 49.3101 5.88251C49.3672 5.85271 49.4306 5.83716 49.4951 5.83716C49.5595 5.83716 49.6229 5.85271 49.6801 5.88251C49.7373 5.91669 49.7848 5.96499 49.8181 6.02277C49.8513 6.08054 49.8692 6.14587 49.8701 6.21252V30.5525C49.8701 40.5525 45.2301 52.6525 37.7701 62.0625L30.3101 71.5525C30.2746 71.6124 30.2229 71.6611 30.161 71.6929C30.0991 71.7248 30.0294 71.7385 29.9601 71.7325ZM10.7701 29.0225V53.1725C10.7701 62.9125 15.2501 69.4325 22.4601 70.1725L29.8001 70.9425L37.2101 61.6025C44.5801 52.3225 49.1501 40.4225 49.1501 30.6025V6.86252C43.4563 10.2166 37.1792 12.4628 30.6501 13.4825L30.1401 13.5525L29.5901 14.1225C24.0048 19.9013 17.676 24.9119 10.7701 29.0225Z" fill="#2737CE"/>
<path d="M17.03 69.0625C16.9636 69.0615 16.8983 69.0443 16.84 69.0125L7.17 63.3325C6.54694 62.981 5.95777 62.5726 5.41001 62.1125C1.92001 59.0425 2.38849e-06 53.7925 2.38849e-06 47.3325V22.9725C-0.000227609 22.9068 0.0161565 22.8421 0.0476251 22.7844C0.0790936 22.7267 0.124619 22.6779 0.179995 22.6425C7.10417 18.5532 13.4447 13.548 19.03 7.76251L19.67 7.10251C19.7291 7.04411 19.8071 7.00869 19.89 7.00253L20.53 6.91251C27.1728 5.85433 33.5492 3.52515 39.31 0.0525208C39.3674 0.0181583 39.4331 0 39.5 0C39.5669 0 39.6326 0.0181583 39.69 0.0525208L49.69 5.89252C49.7331 5.91642 49.7709 5.94869 49.8014 5.98743C49.8318 6.02616 49.8542 6.07057 49.8672 6.11807C49.8803 6.16558 49.8837 6.21523 49.8773 6.26407C49.8709 6.31291 49.8548 6.35998 49.83 6.40253C49.8063 6.44581 49.7739 6.48374 49.7349 6.51398C49.6959 6.54422 49.6511 6.56612 49.6032 6.57831C49.5554 6.5905 49.5056 6.59275 49.4569 6.58487C49.4081 6.57699 49.3615 6.55917 49.32 6.53253L39.48 0.812531C33.6862 4.28012 27.28 6.60221 20.61 7.65253L20.09 7.72253L19.54 8.28253C13.9614 14.0646 7.63548 19.0756 0.729998 23.1825V47.3325C0.729998 53.5725 2.56 58.6225 5.89 61.5525C6.39854 61.9817 6.94782 62.3602 7.53 62.6825L17.2 68.3625C17.2682 68.4061 17.3208 68.4703 17.3499 68.5458C17.3791 68.6214 17.3834 68.7042 17.3622 68.7823C17.341 68.8605 17.2954 68.9298 17.2321 68.9802C17.1687 69.0306 17.0909 69.0594 17.01 69.0625H17.03Z" fill="#2737CE"/>
<path d="M29.96 13.5524C29.8922 13.5512 29.8262 13.5304 29.77 13.4924L19.77 7.66239C19.727 7.63849 19.6891 7.60625 19.6587 7.56752C19.6282 7.52878 19.6058 7.48434 19.5928 7.43684C19.5798 7.38934 19.5763 7.33972 19.5827 7.29087C19.5891 7.24203 19.6052 7.19496 19.63 7.15242C19.6802 7.06741 19.7615 7.00527 19.8567 6.97914C19.9519 6.95301 20.0535 6.96493 20.14 7.0124L30.14 12.8524C30.1831 12.8763 30.221 12.9086 30.2514 12.9473C30.2818 12.986 30.3042 13.0305 30.3173 13.078C30.3303 13.1255 30.3337 13.1751 30.3273 13.2239C30.3209 13.2728 30.3049 13.3199 30.28 13.3624C30.2467 13.4182 30.2 13.4648 30.1442 13.498C30.0883 13.5312 30.025 13.5499 29.96 13.5524Z" fill="#2737CE"/>
<path d="M28.3101 67.6926L22.8601 67.1126C17.2801 66.5226 13.9501 61.3125 13.9501 53.1726V30.9825C13.9506 30.9183 13.9674 30.8553 13.9989 30.7994C14.0303 30.7434 14.0755 30.6963 14.1301 30.6625C20.462 26.6601 26.299 21.924 31.5201 16.5526C31.5784 16.4969 31.6511 16.4588 31.7301 16.4426C36.5033 15.6743 41.1452 14.2404 45.5201 12.1826C45.5776 12.1558 45.6409 12.144 45.7043 12.148C45.7676 12.152 45.8289 12.1719 45.8826 12.2057C45.9363 12.2395 45.9806 12.2862 46.0116 12.3415C46.0426 12.3969 46.0593 12.4591 46.0601 12.5226V30.5226C46.0601 39.7226 41.7401 50.8826 34.7901 59.6426L28.5601 67.5526C28.5298 67.5913 28.4921 67.6237 28.4492 67.6477C28.4062 67.6718 28.359 67.687 28.3101 67.6926ZM14.6701 31.1926V53.1926C14.6701 60.9126 17.7501 65.8426 22.9101 66.3926L28.1501 66.9426L34.2501 59.2526C41.0501 50.6026 45.3101 39.6226 45.3101 30.5526V13.1126C41.0619 15.0503 36.5765 16.4188 31.9701 17.1826C26.7506 22.5107 20.928 27.2124 14.6201 31.1926H14.6701Z" fill="#2737CE"/>
<path d="M24.76 65.4425L19.32 64.8725C18.7159 64.8082 18.1197 64.6842 17.54 64.5025C17.4864 64.4939 17.4353 64.4739 17.3901 64.4438C17.3448 64.4138 17.3066 64.3744 17.2779 64.3283C17.2491 64.2823 17.2306 64.2306 17.2236 64.1767C17.2165 64.1229 17.2211 64.0682 17.2369 64.0163C17.2528 63.9643 17.2796 63.9164 17.3155 63.8757C17.3515 63.835 17.3957 63.8025 17.4453 63.7804C17.4949 63.7582 17.5486 63.7469 17.6029 63.7473C17.6572 63.7477 17.7108 63.7597 17.76 63.7825C18.2901 63.9522 18.8364 64.0662 19.39 64.1225L24.63 64.6725L30.73 56.9925C37.58 48.3525 41.84 37.3725 41.84 28.3325V14.0125C41.8311 13.9581 41.8342 13.9025 41.8489 13.8494C41.8636 13.7963 41.8897 13.747 41.9254 13.705C41.9611 13.663 42.0055 13.6293 42.0555 13.6062C42.1055 13.583 42.1599 13.571 42.215 13.571C42.2701 13.571 42.3246 13.583 42.3746 13.6062C42.4246 13.6293 42.469 13.663 42.5046 13.705C42.5403 13.747 42.5664 13.7963 42.5812 13.8494C42.5959 13.9025 42.5989 13.9581 42.59 14.0125V28.3325C42.59 37.5325 38.27 48.6925 31.32 57.4525L25.09 65.3025C25.0514 65.3519 25.0008 65.3906 24.9431 65.4151C24.8854 65.4396 24.8224 65.449 24.76 65.4425Z" fill="#2737CE"/>
</svg>
