<svg width="78" height="78" viewBox="0 0 78 78" fill="none" xmlns="http://www.w3.org/2000/svg">
<path d="M23.12 71.0655C23.0567 71.0645 22.9947 71.0473 22.94 71.0155L0.179995 57.8755C0.124619 57.8401 0.0791089 57.7913 0.0476403 57.7336C0.0161718 57.6759 -0.000227612 57.6112 2.38631e-06 57.5455C0.000529162 57.4813 0.0173234 57.4183 0.0488 57.3623C0.0802766 57.3064 0.125402 57.2593 0.179995 57.2255L7.23999 53.1555C7.28194 53.1303 7.32849 53.1136 7.37692 53.1065C7.42536 53.0994 7.47472 53.1019 7.52216 53.114C7.56959 53.1261 7.61415 53.1475 7.65326 53.1769C7.69237 53.2064 7.72526 53.2433 7.75 53.2855C7.798 53.3736 7.81022 53.4767 7.78415 53.5735C7.75808 53.6704 7.69573 53.7535 7.61002 53.8055L1.12 57.5455L23.12 70.2555L33.8 64.0655C33.8421 64.0386 33.8892 64.0205 33.9385 64.0123C33.9878 64.004 34.0383 64.0059 34.0869 64.0177C34.1355 64.0295 34.1811 64.0511 34.2211 64.081C34.2611 64.111 34.2947 64.1488 34.3197 64.192C34.3447 64.2353 34.3607 64.2832 34.3667 64.3328C34.3727 64.3824 34.3686 64.4328 34.3546 64.4808C34.3406 64.5287 34.317 64.5734 34.2853 64.612C34.2536 64.6506 34.2144 64.6825 34.17 64.7055L23.31 70.9855C23.2545 71.0279 23.1891 71.0555 23.12 71.0655Z" fill="#2737CE"/>
<path d="M40.96 60.7355C40.8949 60.7339 40.8312 60.7156 40.7752 60.6824C40.7191 60.6491 40.6726 60.602 40.64 60.5455C40.6152 60.503 40.5991 60.4559 40.5927 60.407C40.5863 60.3582 40.5897 60.3086 40.6028 60.2611C40.6158 60.2136 40.6382 60.1691 40.6687 60.1304C40.6991 60.0917 40.737 60.0594 40.78 60.0355L76.53 39.3855L70.04 35.6455C69.9974 35.6212 69.9599 35.5887 69.9297 35.55C69.8996 35.5112 69.8774 35.4668 69.8644 35.4195C69.8514 35.3721 69.8479 35.3227 69.854 35.2739C69.8601 35.2252 69.8757 35.1782 69.9 35.1355C69.9243 35.0928 69.9568 35.0553 69.9956 35.0252C70.0343 34.9951 70.0787 34.9729 70.126 34.9599C70.1734 34.9469 70.2228 34.9433 70.2716 34.9494C70.3203 34.9556 70.3673 34.9712 70.41 34.9955L77.47 39.0655C77.5246 39.0993 77.5698 39.1464 77.6013 39.2023C77.6327 39.2583 77.6495 39.3213 77.65 39.3855C77.6502 39.4512 77.6339 39.5159 77.6024 39.5736C77.5709 39.6313 77.5254 39.6801 77.47 39.7155L41.15 60.7155C41.0891 60.737 41.024 60.7439 40.96 60.7355Z" fill="#2737CE"/>
<path d="M23.12 77.6554C23.0609 77.6702 22.9991 77.6702 22.94 77.6554L0.180001 64.4654C0.124747 64.4324 0.0790931 64.3855 0.0475243 64.3293C0.0159556 64.2732 -0.000427432 64.2098 8.47685e-06 64.1454V57.5154C8.47685e-06 57.4173 0.0389879 57.3232 0.108376 57.2538C0.177765 57.1844 0.271873 57.1454 0.370004 57.1454C0.469077 57.1454 0.564249 57.1841 0.635232 57.2532C0.706215 57.3223 0.747401 57.4164 0.750008 57.5154V63.9254L23.12 76.8454L76.9 45.8454V39.4354C76.9026 39.3364 76.9438 39.2423 77.0148 39.1732C77.0858 39.1041 77.1809 39.0654 77.28 39.0654C77.3781 39.0654 77.4722 39.1044 77.5416 39.1738C77.611 39.2432 77.65 39.3373 77.65 39.4354V46.0654C77.6504 46.1298 77.6341 46.1932 77.6025 46.2493C77.5709 46.3055 77.5253 46.3524 77.47 46.3854L23.31 77.6554C23.2475 77.6703 23.1825 77.6703 23.12 77.6554Z" fill="#2737CE"/>
<path d="M7.42004 57.8955C7.321 57.8929 7.22689 57.8517 7.15777 57.7808C7.08866 57.7098 7.05001 57.6146 7.05005 57.5155V40.3855C7.04114 40.3312 7.04415 40.2755 7.0589 40.2224C7.07364 40.1693 7.09976 40.1201 7.13543 40.0781C7.17111 40.0361 7.21546 40.0024 7.26547 39.9792C7.31548 39.9561 7.36995 39.9441 7.42505 39.9441C7.48015 39.9441 7.53458 39.9561 7.58459 39.9792C7.6346 40.0024 7.67895 40.0361 7.71463 40.0781C7.7503 40.1201 7.77642 40.1693 7.79117 40.2224C7.80591 40.2755 7.80896 40.3312 7.80005 40.3855V57.5155C7.80005 57.6163 7.76001 57.713 7.68875 57.7842C7.61749 57.8555 7.52082 57.8955 7.42004 57.8955Z" fill="#2737CE"/>
<path d="M38.8199 57.8955C38.7209 57.8929 38.6268 57.8517 38.5577 57.7808C38.4886 57.7098 38.4499 57.6146 38.4499 57.5155V40.3855C38.441 40.3312 38.4441 40.2755 38.4588 40.2224C38.4735 40.1693 38.4997 40.1201 38.5353 40.0781C38.571 40.0361 38.6154 40.0024 38.6654 39.9792C38.7154 39.9561 38.7698 39.9441 38.8249 39.9441C38.88 39.9441 38.9345 39.9561 38.9845 39.9792C39.0345 40.0024 39.0789 40.0361 39.1146 40.0781C39.1502 40.1201 39.1763 40.1693 39.1911 40.2224C39.2058 40.2755 39.2089 40.3312 39.1999 40.3855V57.5155C39.1999 57.6163 39.1599 57.713 39.0887 57.7842C39.0174 57.8555 38.9207 57.8955 38.8199 57.8955Z" fill="#2737CE"/>
<path d="M23.12 49.8253C23.0609 49.8401 22.9991 49.8401 22.94 49.8253L18.05 47.0053C18.0067 46.9816 17.9688 46.9492 17.9385 46.9102C17.9083 46.8712 17.8864 46.8264 17.8742 46.7786C17.862 46.7307 17.8598 46.6809 17.8677 46.6322C17.8756 46.5835 17.8934 46.5369 17.92 46.4953C17.9439 46.4522 17.9762 46.4144 18.0149 46.384C18.0537 46.3535 18.0981 46.3311 18.1456 46.3181C18.1931 46.305 18.2427 46.3016 18.2915 46.308C18.3404 46.3144 18.3874 46.3305 18.43 46.3553L23.12 49.0653L38.07 40.4353L23.12 31.8053L8.17001 40.4353L13.86 43.7153C13.9457 43.7674 14.0081 43.8504 14.0341 43.9473C14.0602 44.0441 14.048 44.1473 14 44.2353C13.9482 44.3186 13.8662 44.3787 13.7711 44.4029C13.6761 44.4271 13.5753 44.4137 13.49 44.3653L7.23999 40.7553C7.18123 40.725 7.13194 40.6792 7.09753 40.6227C7.06312 40.5663 7.04492 40.5014 7.04492 40.4353C7.04492 40.3692 7.06312 40.3044 7.09753 40.2479C7.13194 40.1915 7.18123 40.1456 7.23999 40.1153L22.94 31.0453C22.9955 31.0108 23.0596 30.9924 23.125 30.9924C23.1904 30.9924 23.2545 31.0108 23.31 31.0453L39.01 40.1153C39.0688 40.1456 39.1181 40.1915 39.1525 40.2479C39.1869 40.3044 39.2051 40.3692 39.2051 40.4353C39.2051 40.5014 39.1869 40.5663 39.1525 40.6227C39.1181 40.6792 39.0688 40.725 39.01 40.7553L23.31 49.8253C23.2475 49.8402 23.1825 49.8402 23.12 49.8253Z" fill="#2737CE"/>
<path d="M38.8199 34.3553C38.7609 34.3702 38.699 34.3702 38.64 34.3553L22.9399 25.2854C22.8828 25.2536 22.8352 25.2072 22.8018 25.151C22.7684 25.0948 22.7505 25.0307 22.7499 24.9653C22.7487 24.8983 22.7658 24.8322 22.7992 24.774C22.8327 24.7159 22.8813 24.668 22.9399 24.6354L38.64 15.5753C38.6955 15.5408 38.7596 15.5225 38.825 15.5225C38.8903 15.5225 38.9544 15.5408 39.0099 15.5753L54.7099 24.6354C54.7685 24.668 54.8172 24.7159 54.8506 24.774C54.8841 24.8322 54.9011 24.8983 54.8999 24.9653C54.8994 25.0307 54.8815 25.0948 54.8481 25.151C54.8147 25.2072 54.767 25.2536 54.7099 25.2854L48.7899 28.7054C48.7474 28.7302 48.7003 28.7463 48.6515 28.7527C48.6026 28.759 48.553 28.7556 48.5055 28.7426C48.458 28.7295 48.4136 28.7072 48.3748 28.6767C48.3361 28.6463 48.3038 28.6084 48.2799 28.5654C48.2551 28.5228 48.239 28.4757 48.2326 28.4269C48.2262 28.3781 48.2297 28.3284 48.2427 28.2809C48.2557 28.2334 48.2781 28.189 48.3086 28.1503C48.339 28.1115 48.3769 28.0793 48.42 28.0554L53.77 24.9653L38.8199 16.3253L23.8699 24.9653L38.8199 33.5954L42.7 31.3553C42.7425 31.3305 42.7896 31.3144 42.8384 31.308C42.8873 31.3017 42.9369 31.3051 42.9844 31.3181C43.0319 31.3312 43.0763 31.3536 43.1151 31.384C43.1538 31.4144 43.186 31.4523 43.2099 31.4953C43.2352 31.5373 43.2518 31.5838 43.259 31.6323C43.2661 31.6807 43.2635 31.7301 43.2514 31.7775C43.2393 31.8249 43.218 31.8695 43.1885 31.9086C43.1591 31.9477 43.1222 31.9806 43.08 32.0054L39.0099 34.3553C38.9475 34.3702 38.8824 34.3702 38.8199 34.3553Z" fill="#2737CE"/>
<path d="M54.52 18.8754C54.4561 18.879 54.3928 18.8614 54.34 18.8253L38.63 9.76535C38.5714 9.73273 38.5228 9.6848 38.4893 9.62668C38.4558 9.56855 38.4388 9.50241 38.44 9.43535C38.4395 9.36976 38.457 9.3053 38.4904 9.2489C38.5239 9.1925 38.5722 9.14633 38.63 9.11536L43.9 6.06535C43.9865 6.01788 44.0882 6.00594 44.1833 6.03207C44.2785 6.0582 44.3598 6.12035 44.41 6.20535C44.4348 6.2479 44.4509 6.29497 44.4573 6.34381C44.4637 6.39265 44.4603 6.44229 44.4472 6.48979C44.4342 6.53729 44.4118 6.58172 44.3814 6.62045C44.3509 6.65919 44.3131 6.69144 44.27 6.71535L39.56 9.43535L54.52 18.0654L69.47 9.43535L54.52 0.805359L48.63 4.19536C48.542 4.24335 48.4388 4.25558 48.3419 4.22951C48.2451 4.20344 48.1621 4.14107 48.11 4.05536C48.0852 4.01281 48.0691 3.96573 48.0627 3.91689C48.0563 3.86804 48.0597 3.81842 48.0728 3.77092C48.0858 3.72342 48.1082 3.67899 48.1386 3.64026C48.1691 3.60153 48.2069 3.56926 48.25 3.54535L54.31 0.0453491C54.3671 0.0155554 54.4306 0 54.495 0C54.5594 0 54.6229 0.0155554 54.68 0.0453491L70.38 9.11536C70.4378 9.14633 70.4861 9.1925 70.5196 9.2489C70.553 9.3053 70.5705 9.36976 70.57 9.43535C70.5712 9.50241 70.5542 9.56855 70.5207 9.62668C70.4873 9.6848 70.4386 9.73273 70.38 9.76535L54.68 18.8253C54.632 18.8559 54.5768 18.8732 54.52 18.8754Z" fill="#2737CE"/>
<path d="M54.52 48.8254C54.4219 48.8254 54.3278 48.7864 54.2584 48.717C54.189 48.6476 54.15 48.5535 54.15 48.4554V18.5054C54.1411 18.451 54.1441 18.3954 54.1589 18.3423C54.1736 18.2892 54.1997 18.2399 54.2354 18.1979C54.2711 18.1559 54.3155 18.1222 54.3655 18.0991C54.4155 18.0759 54.4699 18.064 54.525 18.064C54.5801 18.064 54.6346 18.0759 54.6846 18.0991C54.7346 18.1222 54.779 18.1559 54.8146 18.1979C54.8503 18.2399 54.8764 18.2892 54.8912 18.3423C54.9059 18.3954 54.9089 18.451 54.9 18.5054V48.4554C54.9 48.5048 54.8901 48.5538 54.8709 48.5993C54.8517 48.6449 54.8236 48.6861 54.7881 48.7206C54.7527 48.7551 54.7107 48.7822 54.6647 48.8002C54.6186 48.8182 54.5695 48.8267 54.52 48.8254Z" fill="#2737CE"/>
<path d="M70.22 39.7655C70.1209 39.7629 70.0268 39.7217 69.9577 39.6507C69.8886 39.5797 69.8499 39.4846 69.85 39.3855V9.4355C69.8645 9.34656 69.9103 9.26569 69.9789 9.20734C70.0476 9.14898 70.1348 9.11694 70.225 9.11694C70.3151 9.11694 70.4023 9.14898 70.471 9.20734C70.5397 9.26569 70.5854 9.34656 70.6 9.4355V39.3855C70.6 39.4863 70.5599 39.5829 70.4887 39.6542C70.4174 39.7255 70.3208 39.7655 70.22 39.7655Z" fill="#2737CE"/>
<path d="M38.8201 16.2255C38.721 16.2229 38.6269 16.1817 38.5578 16.1107C38.4887 16.0397 38.45 15.9446 38.4501 15.8455V9.4355C38.4646 9.34656 38.5103 9.26569 38.579 9.20734C38.6477 9.14898 38.7349 9.11694 38.8251 9.11694C38.9152 9.11694 39.0024 9.14898 39.0711 9.20734C39.1398 9.26569 39.1855 9.34656 39.2001 9.4355V15.8455C39.2001 15.9463 39.16 16.0429 39.0888 16.1142C39.0175 16.1855 38.9209 16.2255 38.8201 16.2255Z" fill="#2737CE"/>
<path d="M23.12 66.7155C23.021 66.7129 22.9269 66.6717 22.8578 66.6007C22.7886 66.5297 22.75 66.4346 22.75 66.3355V49.4455C22.7646 49.3566 22.8103 49.2757 22.879 49.2173C22.9477 49.159 23.0349 49.127 23.125 49.127C23.2151 49.127 23.3023 49.159 23.371 49.2173C23.4397 49.2757 23.4854 49.3566 23.5 49.4455V66.3355C23.5 66.4363 23.46 66.5329 23.3887 66.6042C23.3174 66.6755 23.2208 66.7155 23.12 66.7155Z" fill="#2737CE"/>
<path d="M38.8201 40.7555C38.7219 40.7555 38.6278 40.7166 38.5584 40.6472C38.4891 40.5778 38.4501 40.4837 38.4501 40.3855V33.9755C38.4646 33.8866 38.5103 33.8057 38.579 33.7474C38.6477 33.689 38.7349 33.657 38.8251 33.657C38.9152 33.657 39.0024 33.689 39.0711 33.7474C39.1398 33.8057 39.1855 33.8866 39.2001 33.9755V40.3855C39.2001 40.435 39.1902 40.4839 39.171 40.5295C39.1518 40.575 39.1236 40.6163 39.0882 40.6508C39.0528 40.6853 39.0108 40.7123 38.9647 40.7303C38.9187 40.7483 38.8695 40.7569 38.8201 40.7555Z" fill="#2737CE"/>
<path d="M23.12 31.6953C23.021 31.6927 22.9269 31.6515 22.8578 31.5806C22.7886 31.5096 22.75 31.4144 22.75 31.3153V24.9153C22.7411 24.861 22.7441 24.8053 22.7588 24.7522C22.7736 24.6991 22.7997 24.6499 22.8354 24.6079C22.8711 24.5659 22.9154 24.5321 22.9655 24.509C23.0155 24.4859 23.0699 24.4739 23.125 24.4739C23.1801 24.4739 23.2345 24.4859 23.2845 24.509C23.3346 24.5321 23.3789 24.5659 23.4146 24.6079C23.4503 24.6499 23.4764 24.6991 23.4911 24.7522C23.5059 24.8053 23.5089 24.861 23.5 24.9153V31.3153C23.5 31.4161 23.46 31.5128 23.3887 31.584C23.3174 31.6553 23.2208 31.6953 23.12 31.6953Z" fill="#2737CE"/>
<path d="M23.12 77.6555C23.0227 77.6529 22.93 77.6131 22.8612 77.5443C22.7923 77.4754 22.7525 77.3828 22.75 77.2855V70.6555C22.7646 70.5665 22.8103 70.4856 22.879 70.4273C22.9477 70.3689 23.0349 70.3369 23.125 70.3369C23.2151 70.3369 23.3023 70.3689 23.371 70.4273C23.4397 70.4856 23.4854 70.5665 23.5 70.6555V77.2855C23.4974 77.3845 23.4562 77.4786 23.3852 77.5477C23.3142 77.6168 23.2191 77.6555 23.12 77.6555Z" fill="#2737CE"/>
</svg>
