<svg width="77" height="78" viewBox="0 0 77 78" fill="none" xmlns="http://www.w3.org/2000/svg">
<path d="M49.54 69.2533C42.54 69.2533 35.6 67.7233 30.3 64.6533C25.85 62.0833 23.12 58.8133 22.4 55.1733C22.3908 55.1254 22.3911 55.0761 22.401 55.0283C22.4108 54.9805 22.43 54.9351 22.4574 54.8947C22.4848 54.8544 22.5198 54.8197 22.5606 54.7929C22.6014 54.7661 22.647 54.7475 22.695 54.7383C22.7429 54.7291 22.7922 54.7295 22.84 54.7393C22.8878 54.7492 22.9332 54.7684 22.9736 54.7957C23.014 54.8231 23.0486 54.8582 23.0754 54.899C23.1022 54.9398 23.1208 54.9854 23.13 55.0333C23.81 58.4433 26.42 61.5433 30.67 64.0333C41.08 70.0333 58 70.0333 68.41 64.0333C73.01 61.3833 75.73 57.8733 76.08 54.1633C76.38 50.9233 74.81 47.6533 71.66 44.9633C71.5932 44.8912 71.5561 44.7966 71.5561 44.6983C71.5561 44.6001 71.5932 44.5054 71.66 44.4333C71.6944 44.3979 71.7356 44.3698 71.7812 44.3506C71.8267 44.3314 71.8756 44.3215 71.925 44.3215C71.9744 44.3215 72.0233 44.3314 72.0688 44.3506C72.1143 44.3698 72.1555 44.3979 72.19 44.4333C75.53 47.2933 77.19 50.7833 76.86 54.2733C76.49 58.2733 73.64 61.9433 68.86 64.7233C63.48 67.6933 56.51 69.2533 49.54 69.2533Z" fill="#2737CE"/>
<path d="M49.54 77.1234C42.54 77.1234 35.6 75.5934 30.3 72.5334C25 69.4734 22.22 65.5334 22.22 61.2034V54.9334C22.22 54.8353 22.259 54.7411 22.3283 54.6718C22.3977 54.6024 22.4918 54.5634 22.59 54.5634C22.689 54.5634 22.7842 54.602 22.8552 54.6711C22.9262 54.7403 22.9674 54.8343 22.97 54.9334V61.2534C22.97 65.2534 25.7 69.0634 30.67 71.9334C41.08 77.9334 58 77.9334 68.41 71.9334C73.41 69.0634 76.11 65.2734 76.11 61.2534V53.4334C76.1011 53.379 76.1041 53.3234 76.1188 53.2703C76.1336 53.2172 76.1597 53.1679 76.1954 53.1259C76.231 53.0839 76.2754 53.0502 76.3254 53.0271C76.3754 53.0039 76.4299 52.9919 76.485 52.9919C76.5401 52.9919 76.5945 53.0039 76.6445 53.0271C76.6945 53.0502 76.7389 53.0839 76.7746 53.1259C76.8102 53.1679 76.8364 53.2172 76.8511 53.2703C76.8659 53.3234 76.8689 53.379 76.86 53.4334V61.2534C76.86 65.5434 73.99 69.5734 68.78 72.5834C63.57 75.5934 56.51 77.1234 49.54 77.1234Z" fill="#2737CE"/>
<path d="M49.63 66.6034C49.5292 66.6034 49.4326 66.5634 49.3613 66.4921C49.29 66.4209 49.25 66.3242 49.25 66.2234C49.25 66.174 49.2599 66.125 49.2791 66.0795C49.2983 66.0339 49.3265 65.9927 49.3619 65.9582C49.3973 65.9237 49.4393 65.8967 49.4853 65.8787C49.5314 65.8607 49.5806 65.8521 49.63 65.8534C55.044 65.951 60.3932 64.6636 65.17 62.1134C65.2126 62.0886 65.2596 62.0725 65.3085 62.0661C65.3573 62.0597 65.4069 62.0631 65.4544 62.0762C65.5019 62.0892 65.5464 62.1116 65.5851 62.1421C65.6238 62.1725 65.6561 62.2104 65.68 62.2534C65.7048 62.296 65.7209 62.3431 65.7273 62.3919C65.7337 62.4407 65.7303 62.4904 65.7172 62.5379C65.7042 62.5854 65.6818 62.6298 65.6514 62.6685C65.6209 62.7073 65.5831 62.7395 65.54 62.7634C60.6506 65.3785 55.1739 66.7003 49.63 66.6034Z" fill="#2737CE"/>
<path d="M44.99 54.2533C37.92 54.2533 30.99 52.6633 25.72 49.6433C20.45 46.6233 17.64 42.6433 17.64 38.3233C17.64 34.0033 20.51 30.0033 25.72 26.9933C36.33 20.8733 53.59 20.8733 64.2 26.9933C69.41 29.9933 72.28 33.9933 72.28 38.3233C72.28 42.6533 69.41 46.6333 64.2 49.6433C63.46 50.0733 62.67 50.4833 61.85 50.8633C61.7582 50.9013 61.6552 50.9029 61.5623 50.8676C61.4694 50.8322 61.3934 50.7628 61.35 50.6733C61.3091 50.5845 61.3051 50.483 61.3389 50.3912C61.3726 50.2994 61.4413 50.2246 61.53 50.1833C62.33 49.8133 63.1 49.4133 63.83 48.9933C68.83 46.1333 71.53 42.3333 71.53 38.3233C71.53 34.3133 68.8 30.5133 63.83 27.6433C53.43 21.6433 36.5 21.6433 26.09 27.6433C21.09 30.5133 18.39 34.3033 18.39 38.3233C18.39 42.3433 21.12 46.1333 26.09 48.9933C34.09 53.6233 46.36 54.8233 56.58 51.9933C56.6755 51.9668 56.7776 51.9793 56.8639 52.028C56.9501 52.0768 57.0135 52.1579 57.04 52.2533C57.0665 52.3488 57.054 52.4509 57.0053 52.5372C56.9565 52.6234 56.8755 52.6868 56.78 52.7133C52.9375 53.7564 48.9715 54.2745 44.99 54.2533Z" fill="#2737CE"/>
<path d="M44.96 62.1733C37.96 62.1733 31.02 60.6433 25.72 57.5833C20.42 54.5233 17.64 50.5833 17.64 46.2533V38.3633C17.6311 38.3089 17.6341 38.2533 17.6489 38.2002C17.6636 38.1471 17.6897 38.0979 17.7254 38.0559C17.7611 38.0139 17.8054 37.9801 17.8555 37.957C17.9055 37.9339 17.9599 37.9219 18.015 37.9219C18.0701 37.9219 18.1245 37.9339 18.1746 37.957C18.2246 37.9801 18.2689 38.0139 18.3046 38.0559C18.3403 38.0979 18.3664 38.1471 18.3812 38.2002C18.3959 38.2533 18.3989 38.3089 18.39 38.3633V46.2533C18.39 50.2533 21.12 54.0633 26.09 56.9333C36.5 62.9333 53.42 62.9333 63.83 56.9333C68.83 54.0633 71.53 50.2733 71.53 46.2533V38.4333C71.53 38.3325 71.5701 38.2359 71.6413 38.1646C71.7126 38.0933 71.8092 38.0533 71.91 38.0533C71.9594 38.0533 72.0084 38.0632 72.054 38.0824C72.0995 38.1016 72.1407 38.1298 72.1752 38.1652C72.2097 38.2006 72.2368 38.2426 72.2548 38.2887C72.2728 38.3347 72.2813 38.3839 72.28 38.4333V46.2533C72.28 50.5533 69.41 54.5733 64.2 57.5833C58.99 60.5933 51.93 62.1733 44.96 62.1733Z" fill="#2737CE"/>
<path d="M54.0599 45.5035C53.9937 45.5011 53.9288 45.484 53.8699 45.4536L50.2899 43.3835C50.2037 43.3345 50.1405 43.2532 50.1143 43.1575C50.088 43.0619 50.1009 42.9597 50.1499 42.8735C50.199 42.7873 50.2803 42.7242 50.3759 42.6979C50.4716 42.6717 50.5737 42.6845 50.6599 42.7336L54.2499 44.8035C54.293 44.8274 54.3309 44.8597 54.3613 44.8984C54.3917 44.9372 54.4141 44.9816 54.4272 45.0291C54.4402 45.0766 54.4436 45.1262 54.4372 45.1751C54.4308 45.2239 54.4147 45.271 54.3899 45.3135C54.3557 45.3708 54.3075 45.4183 54.2497 45.4515C54.1919 45.4848 54.1266 45.5027 54.0599 45.5035Z" fill="#2737CE"/>
<path d="M56.68 43.9934C56.6137 43.991 56.5489 43.9739 56.49 43.9434L52.91 41.8734C52.8243 41.8214 52.7619 41.7383 52.7358 41.6415C52.7098 41.5446 52.722 41.4415 52.77 41.3534C52.8218 41.2701 52.9038 41.2101 52.9988 41.1858C53.0939 41.1616 53.1946 41.1751 53.28 41.2234L56.87 43.2934C56.913 43.3174 56.9509 43.3496 56.9814 43.3884C57.0118 43.4271 57.0342 43.4715 57.0472 43.519C57.0603 43.5665 57.0637 43.6161 57.0573 43.665C57.0509 43.7138 57.0348 43.7609 57.01 43.8034C56.9758 43.8607 56.9275 43.9082 56.8697 43.9415C56.812 43.9747 56.7466 43.9926 56.68 43.9934Z" fill="#2737CE"/>
<path d="M39.13 40.9434C37.8766 40.965 36.6382 40.6691 35.53 40.0833C35.059 39.9105 34.6525 39.5973 34.3653 39.1859C34.0781 38.7746 33.9241 38.285 33.9241 37.7834C33.9241 37.2817 34.0781 36.7921 34.3653 36.3808C34.6525 35.9694 35.059 35.6562 35.53 35.4834L40.36 32.7034C41.4752 32.1361 42.7087 31.8403 43.96 31.8403C45.2112 31.8403 46.4447 32.1361 47.56 32.7034C47.6027 32.7277 47.6401 32.7601 47.6703 32.7989C47.7004 32.8377 47.7226 32.882 47.7356 32.9294C47.7486 32.9767 47.7521 33.0262 47.746 33.0749C47.7399 33.1236 47.7243 33.1707 47.7 33.2133C47.6757 33.256 47.6432 33.2935 47.6044 33.3236C47.5657 33.3538 47.5213 33.376 47.474 33.389C47.4266 33.402 47.3772 33.4055 47.3284 33.3994C47.2797 33.3933 47.2327 33.3777 47.19 33.3534C46.1907 32.8457 45.0858 32.5811 43.965 32.5811C42.8442 32.5811 41.7392 32.8457 40.74 33.3534L35.91 36.1334C35.5537 36.2382 35.2409 36.4556 35.0184 36.7531C34.7959 37.0505 34.6757 37.4119 34.6757 37.7834C34.6757 38.1548 34.7959 38.5162 35.0184 38.8137C35.2409 39.1111 35.5537 39.3285 35.91 39.4333C36.9099 39.9387 38.0146 40.202 39.135 40.202C40.2554 40.202 41.36 39.9387 42.36 39.4333L44.77 38.0334C44.858 37.9854 44.9612 37.9731 45.058 37.9992C45.1548 38.0253 45.2379 38.0877 45.29 38.1734C45.3148 38.2159 45.3309 38.263 45.3373 38.3118C45.3437 38.3607 45.3402 38.4103 45.3272 38.4578C45.3142 38.5053 45.2918 38.5497 45.2613 38.5884C45.2309 38.6272 45.193 38.6594 45.15 38.6833L42.73 40.0833C41.6227 40.6716 40.3836 40.9676 39.13 40.9434Z" fill="#2737CE"/>
<path d="M45.9599 44.8833C44.7065 44.9062 43.4677 44.6103 42.3599 44.0233C42.2742 43.9712 42.2118 43.8882 42.1858 43.7914C42.1597 43.6945 42.1719 43.5913 42.2199 43.5033C42.2717 43.42 42.3537 43.36 42.4488 43.3357C42.5438 43.3115 42.6446 43.3249 42.7299 43.3733C43.7305 43.8763 44.835 44.1383 45.9549 44.1383C47.0749 44.1383 48.1793 43.8763 49.1799 43.3733L54.0099 40.5833C54.3623 40.4757 54.6708 40.2578 54.89 39.9616C55.1092 39.6655 55.2276 39.3067 55.2276 38.9383C55.2276 38.5698 55.1092 38.2111 54.89 37.915C54.6708 37.6188 54.3623 37.4009 54.0099 37.2933C53.0107 36.7856 51.9057 36.521 50.7849 36.521C49.6641 36.521 48.5592 36.7856 47.5599 37.2933L45.1499 38.6833C45.1074 38.7081 45.0603 38.7242 45.0115 38.7306C44.9626 38.737 44.913 38.7336 44.8655 38.7205C44.818 38.7075 44.7736 38.6851 44.7348 38.6547C44.6961 38.6242 44.6638 38.5864 44.6399 38.5433C44.6147 38.5014 44.598 38.4548 44.5909 38.4064C44.5838 38.3579 44.5863 38.3086 44.5984 38.2611C44.6105 38.2137 44.6319 38.1691 44.6613 38.13C44.6908 38.0909 44.7277 38.058 44.7699 38.0333L47.1899 36.6433C48.3052 36.076 49.5387 35.7803 50.7899 35.7803C52.0412 35.7803 53.2747 36.076 54.3899 36.6433C54.8576 36.8181 55.2607 37.1315 55.5452 37.5416C55.8298 37.9518 55.9823 38.4391 55.9823 38.9383C55.9823 39.4375 55.8298 39.9248 55.5452 40.335C55.2607 40.7451 54.8576 41.0586 54.3899 41.2333L49.5599 44.0233C48.4522 44.6103 47.2134 44.9062 45.9599 44.8833Z" fill="#2737CE"/>
<path d="M36.82 35.5534C36.757 35.5508 36.6954 35.5337 36.64 35.5034L33.05 33.4334C32.965 33.3832 32.9028 33.3019 32.8767 33.2067C32.8506 33.1116 32.8625 33.01 32.91 32.9234C32.962 32.8377 33.0451 32.7753 33.142 32.7493C33.2388 32.7232 33.3419 32.7354 33.43 32.7834L37.01 34.8534C37.0531 34.8773 37.0909 34.9096 37.1214 34.9483C37.1518 34.9871 37.1742 35.0315 37.1872 35.079C37.2003 35.1265 37.2037 35.1761 37.1973 35.2249C37.1909 35.2738 37.1748 35.3208 37.15 35.3634C37.1158 35.4206 37.0675 35.4682 37.0098 35.5014C36.952 35.5347 36.8867 35.5526 36.82 35.5534Z" fill="#2737CE"/>
<path d="M39.4399 34.0435C39.3769 34.0409 39.3153 34.0237 39.2599 33.9934L35.6699 31.9235C35.6266 31.8985 35.5886 31.8653 35.5581 31.8256C35.5276 31.786 35.5052 31.7407 35.4922 31.6924C35.4792 31.6442 35.4759 31.5938 35.4823 31.5442C35.4888 31.4946 35.505 31.4468 35.5299 31.4034C35.5549 31.3601 35.5881 31.3221 35.6277 31.2916C35.6674 31.2611 35.7126 31.2387 35.7609 31.2257C35.8092 31.2127 35.8596 31.2094 35.9092 31.2158C35.9588 31.2223 36.0066 31.2385 36.0499 31.2635L39.6299 33.3334C39.7028 33.3751 39.7599 33.4396 39.7922 33.5171C39.8245 33.5946 39.8303 33.6806 39.8086 33.7617C39.7869 33.8428 39.7389 33.9144 39.6723 33.9654C39.6056 34.0163 39.5239 34.0438 39.4399 34.0435Z" fill="#2737CE"/>
<path d="M23.62 42.6134C23.5517 42.6148 23.4844 42.5968 23.4259 42.5613C23.3675 42.5259 23.3204 42.4746 23.29 42.4134C22.5992 41.1962 22.2294 39.8233 22.2154 38.4237C22.2014 37.0242 22.5437 35.6442 23.21 34.4134C23.2568 34.3275 23.3348 34.263 23.4279 34.2332C23.521 34.2034 23.6221 34.2106 23.71 34.2534C23.7548 34.2756 23.7946 34.3065 23.827 34.3445C23.8595 34.3824 23.8839 34.4266 23.8989 34.4742C23.9138 34.5219 23.919 34.5721 23.914 34.6218C23.9091 34.6715 23.8941 34.7197 23.87 34.7634C23.2602 35.879 22.9474 37.1326 22.9614 38.4038C22.9754 39.6751 23.3158 40.9215 23.95 42.0234C23.9962 42.1096 24.0063 42.2107 23.9782 42.3044C23.9501 42.3981 23.886 42.4768 23.8 42.5234C23.7484 42.5679 23.6865 42.5988 23.62 42.6134Z" fill="#2737CE"/>
<path d="M44.96 51.6435C39.3872 51.7526 33.8793 50.4341 28.96 47.8134C28.9169 47.7895 28.879 47.7573 28.8486 47.7185C28.8182 47.6798 28.7958 47.6354 28.7827 47.5879C28.7697 47.5404 28.7663 47.4908 28.7727 47.4419C28.7791 47.3931 28.7951 47.346 28.82 47.3034C28.8439 47.2604 28.8761 47.2225 28.9149 47.1921C28.9536 47.1616 28.998 47.1393 29.0455 47.1262C29.093 47.1132 29.1427 47.1098 29.1915 47.1161C29.2404 47.1225 29.2874 47.1386 29.33 47.1634C37.95 52.1634 51.97 52.1634 60.59 47.1634C62.8152 45.9864 64.6758 44.2226 65.97 42.0634C68.37 37.6434 66.31 32.8534 60.59 29.5534C51.97 24.5534 37.95 24.5534 29.33 29.5534C29.2874 29.5783 29.2404 29.5944 29.1915 29.6008C29.1427 29.6072 29.093 29.6037 29.0455 29.5907C28.998 29.5777 28.9536 29.5552 28.9149 29.5248C28.8761 29.4944 28.8439 29.4565 28.82 29.4134C28.7951 29.3709 28.7791 29.3238 28.7727 29.275C28.7663 29.2261 28.7697 29.1765 28.7827 29.129C28.7958 29.0815 28.8182 29.0371 28.8486 28.9983C28.879 28.9596 28.9169 28.9273 28.96 28.9034C37.78 23.8134 52.14 23.8134 60.96 28.9034C67.06 32.4334 69.24 37.6134 66.62 42.4134C65.2604 44.6954 63.3033 46.5626 60.96 47.8134C56.0396 50.4312 50.5324 51.7495 44.96 51.6435Z" fill="#2737CE"/>
<path d="M18.3499 54.1436C16.0347 54.1903 13.7766 53.4222 11.9699 51.9736C9.04995 49.5936 7.43994 45.4036 7.43994 40.1636C7.43994 27.9136 16.0799 12.9635 26.6899 6.83354C31.8999 3.83354 36.8099 3.35355 40.5399 5.50355C44.2699 7.65355 46.2999 12.1436 46.2999 18.1636C46.2937 19.7376 46.1666 21.3089 45.9199 22.8635C45.9005 22.9599 45.8454 23.0453 45.7657 23.1028C45.686 23.1603 45.5875 23.1856 45.4899 23.1736C45.4411 23.1663 45.3942 23.1493 45.352 23.1236C45.3097 23.0979 45.2731 23.064 45.2442 23.0239C45.2153 22.9839 45.1948 22.9384 45.1837 22.8902C45.1727 22.8421 45.1714 22.7922 45.1799 22.7435C45.4233 21.229 45.547 19.6976 45.5499 18.1636C45.5499 12.4236 43.6399 8.16356 40.1599 6.16356C36.6799 4.16356 32.0299 4.63354 27.0599 7.49354C16.6599 13.4935 8.18994 28.1636 8.18994 40.1736C8.18994 45.1736 9.69994 49.1735 12.4399 51.4035C13.6399 52.3227 15.034 52.9555 16.5158 53.2536C17.9976 53.5516 19.5279 53.5072 20.9899 53.1235C21.0379 53.1133 21.0874 53.1128 21.1356 53.1219C21.1838 53.131 21.2297 53.1495 21.2706 53.1765C21.3116 53.2035 21.3467 53.2383 21.3741 53.279C21.4014 53.3197 21.4204 53.3655 21.4299 53.4136C21.4416 53.4616 21.4433 53.5115 21.4348 53.5602C21.4263 53.6089 21.4079 53.6554 21.3807 53.6967C21.3535 53.7379 21.3181 53.7732 21.2767 53.8002C21.2352 53.8272 21.1887 53.8453 21.1399 53.8536C20.2224 54.0456 19.2874 54.1428 18.3499 54.1436Z" fill="#2737CE"/>
<path d="M13.58 52.9533C13.5208 52.9674 13.4592 52.9674 13.4 52.9533L5.78 48.6933C2.05 46.5433 0 42.0433 0 36.0233C0 28.2833 3.41 19.2533 9.1 11.8833C9.12952 11.843 9.16689 11.8091 9.20986 11.7836C9.25284 11.7582 9.30053 11.7417 9.35005 11.7351C9.39958 11.7286 9.44991 11.7321 9.49802 11.7456C9.54614 11.759 9.59103 11.782 9.63 11.8133C9.70698 11.8761 9.75709 11.9659 9.7701 12.0644C9.7831 12.1629 9.75803 12.2627 9.7 12.3433C4.1 19.5833 0.75 28.4433 0.75 36.0233C0.75 41.7633 2.67 46.0233 6.15 48.0233L13.77 52.2533C13.8131 52.2772 13.8509 52.3095 13.8814 52.3482C13.9118 52.3869 13.9342 52.4314 13.9472 52.4789C13.9603 52.5264 13.9637 52.576 13.9573 52.6249C13.9509 52.6737 13.9348 52.7208 13.91 52.7633C13.8758 52.8205 13.8275 52.868 13.7698 52.9013C13.712 52.9346 13.6467 52.9525 13.58 52.9533Z" fill="#2737CE"/>
<path d="M13.44 7.92337C13.3394 7.92198 13.243 7.88268 13.17 7.81336C13.101 7.74241 13.0624 7.64735 13.0624 7.54837C13.0624 7.44939 13.101 7.3543 13.17 7.28336C15.0004 5.50224 17.0384 3.94774 19.24 2.65335C24.24 -0.226648 28.99 -0.786645 32.66 1.09335C32.7035 1.11556 32.7421 1.14613 32.7737 1.18332C32.8053 1.22051 32.8292 1.26359 32.8441 1.31006C32.8589 1.35653 32.8645 1.40548 32.8603 1.4541C32.8562 1.50272 32.8425 1.55005 32.82 1.59335C32.7989 1.63778 32.7689 1.67741 32.7318 1.70978C32.6948 1.74215 32.6515 1.76659 32.6047 1.78159C32.5578 1.79658 32.5084 1.80179 32.4594 1.79694C32.4105 1.79208 32.363 1.77726 32.32 1.75336C28.89 0.00335848 24.32 0.553346 19.61 3.30335C17.4641 4.56941 15.4767 6.0868 13.69 7.82337C13.657 7.85571 13.6179 7.88118 13.575 7.89835C13.5321 7.91551 13.4862 7.92403 13.44 7.92337Z" fill="#2737CE"/>
<path d="M21.09 28.9634C20.9909 28.9634 20.8957 28.9248 20.8247 28.8557C20.7538 28.7866 20.7126 28.6925 20.71 28.5934C20.7847 27.3407 21.1532 26.1231 21.7855 25.0392C22.4178 23.9552 23.2963 23.0351 24.35 22.3534L29.18 19.5634C29.5818 19.2791 30.052 19.1071 30.5424 19.0649C31.0328 19.0227 31.5255 19.112 31.97 19.3234C32.3788 19.6003 32.7052 19.9825 32.9146 20.4296C33.1241 20.8767 33.2089 21.3721 33.16 21.8634C33.1574 21.9624 33.1162 22.0566 33.0452 22.1257C32.9742 22.1948 32.879 22.2335 32.78 22.2334C32.6818 22.2334 32.5877 22.1944 32.5183 22.1251C32.4489 22.0557 32.41 21.9615 32.41 21.8634C32.4954 21.4993 32.4599 21.1174 32.3088 20.7753C32.1577 20.4333 31.8992 20.1498 31.5725 19.9678C31.2459 19.7858 30.8688 19.7152 30.4984 19.7668C30.128 19.8183 29.7845 19.9891 29.52 20.2534L24.69 23.0434C23.7503 23.656 22.9682 24.4813 22.4071 25.4525C21.8459 26.4237 21.5214 27.5134 21.46 28.6334C21.448 28.7236 21.4041 28.8065 21.3362 28.8671C21.2683 28.9276 21.1809 28.9618 21.09 28.9634Z" fill="#2737CE"/>
<path d="M25.6 22.4134C25.5026 22.4108 25.41 22.371 25.3412 22.3022C25.2723 22.2333 25.2325 22.1407 25.23 22.0434V17.9034C25.2211 17.849 25.2241 17.7933 25.2388 17.7402C25.2536 17.6871 25.2797 17.6379 25.3154 17.5959C25.351 17.5539 25.3954 17.5202 25.4454 17.497C25.4954 17.4739 25.5499 17.4619 25.605 17.4619C25.6601 17.4619 25.7145 17.4739 25.7645 17.497C25.8145 17.5202 25.8589 17.5539 25.8946 17.5959C25.9303 17.6379 25.9564 17.6871 25.9711 17.7402C25.9859 17.7933 25.9889 17.849 25.98 17.9034V22.0434C25.9774 22.1424 25.9362 22.2365 25.8652 22.3056C25.7942 22.3747 25.6991 22.4134 25.6 22.4134Z" fill="#2737CE"/>
<path d="M28.22 20.9035C28.1209 20.9009 28.0268 20.8597 27.9577 20.7887C27.8886 20.7177 27.8499 20.6226 27.85 20.5235V16.3835C27.8645 16.2946 27.9103 16.2137 27.979 16.1553C28.0477 16.097 28.1348 16.0649 28.225 16.0649C28.3151 16.0649 28.4023 16.097 28.471 16.1553C28.5397 16.2137 28.5854 16.2946 28.6 16.3835V20.5235C28.6 20.6243 28.5599 20.7209 28.4887 20.7922C28.4174 20.8635 28.3208 20.9035 28.22 20.9035Z" fill="#2737CE"/>
<path d="M12.88 29.1933H12.76C12.6665 29.1594 12.59 29.0901 12.547 29.0004C12.5039 28.9106 12.4979 28.8075 12.53 28.7133C14.0478 24.5074 16.2881 20.5988 19.15 17.1634C19.2137 17.0878 19.3047 17.0406 19.4032 17.0321C19.5017 17.0237 19.5994 17.0547 19.675 17.1183C19.7506 17.182 19.7978 17.2731 19.8063 17.3715C19.8147 17.47 19.7837 17.5678 19.72 17.6434C16.9197 21.0122 14.727 24.8427 13.24 28.9633C13.21 29.0333 13.1596 29.0927 13.0954 29.1337C13.0312 29.1747 12.9562 29.1955 12.88 29.1933Z" fill="#2737CE"/>
<path d="M16.16 49.1435C16.1043 49.1583 16.0457 49.1583 15.99 49.1435C12.64 47.4835 10.72 43.5534 10.72 38.3334C10.7345 38.2445 10.7803 38.1636 10.8489 38.1053C10.9176 38.0469 11.0048 38.0149 11.095 38.0149C11.1851 38.0149 11.2723 38.0469 11.341 38.1053C11.4097 38.1636 11.4554 38.2445 11.47 38.3334C11.47 43.2534 13.24 46.9434 16.32 48.4734C16.3643 48.4948 16.4039 48.5247 16.4365 48.5615C16.4691 48.5983 16.4941 48.6412 16.5099 48.6878C16.5257 48.7343 16.5321 48.7836 16.5287 48.8326C16.5253 48.8817 16.5121 48.9295 16.49 48.9734C16.4548 49.0283 16.4058 49.073 16.3478 49.1028C16.2899 49.1327 16.2251 49.1467 16.16 49.1435Z" fill="#2737CE"/>
<path d="M42.7299 20.4135C42.6805 20.4135 42.6315 20.4036 42.586 20.3844C42.5404 20.3652 42.4992 20.337 42.4647 20.3016C42.4302 20.2662 42.4032 20.2242 42.3852 20.1781C42.3672 20.1321 42.3586 20.0829 42.3599 20.0335C42.3599 15.2935 40.7799 11.7734 37.9099 10.1134C35.0399 8.45344 31.2099 8.85345 27.0999 11.2235C27.0574 11.2483 27.0103 11.2644 26.9615 11.2708C26.9126 11.2771 26.863 11.2737 26.8155 11.2607C26.768 11.2476 26.7236 11.2253 26.6848 11.1948C26.6461 11.1644 26.6138 11.1265 26.5899 11.0834C26.5425 10.9969 26.5305 10.8953 26.5566 10.8001C26.5828 10.7049 26.6449 10.6236 26.7299 10.5735C31.0699 8.06346 35.1799 7.67344 38.2899 9.46344C41.3999 11.2534 43.1099 15.0135 43.1099 20.0335C43.1099 20.1342 43.0699 20.2309 42.9986 20.3022C42.9274 20.3734 42.8307 20.4135 42.7299 20.4135Z" fill="#2737CE"/>
<path d="M40.64 6.35346C40.5763 6.3557 40.5134 6.33822 40.46 6.30344L32.35 1.79346C32.3073 1.76917 32.2698 1.73669 32.2397 1.69791C32.2096 1.65914 32.1874 1.61481 32.1744 1.56745C32.1614 1.52009 32.1578 1.47064 32.1639 1.42191C32.17 1.37319 32.1857 1.32613 32.21 1.28346C32.2343 1.24078 32.2667 1.2033 32.3055 1.17316C32.3443 1.14303 32.3886 1.12083 32.436 1.10783C32.4833 1.09483 32.5328 1.09128 32.5815 1.09739C32.6302 1.1035 32.6773 1.11918 32.72 1.14347L40.79 5.65345C40.833 5.67736 40.8709 5.70963 40.9013 5.74836C40.9318 5.78709 40.9542 5.8315 40.9672 5.87901C40.9803 5.92651 40.9837 5.97616 40.9773 6.025C40.9709 6.07384 40.9548 6.12091 40.93 6.16346C40.8996 6.21535 40.8576 6.2595 40.8073 6.29246C40.7569 6.32542 40.6997 6.3463 40.64 6.35346Z" fill="#2737CE"/>
</svg>
