<svg width="92" height="92" viewBox="0 0 92 92" fill="none" xmlns="http://www.w3.org/2000/svg">
<g clip-path="url(#clip0)">
<path d="M46.0012 90.5157C70.5854 90.5157 90.5149 70.5862 90.5149 46.002C90.5149 21.4177 70.5854 1.48828 46.0012 1.48828C21.417 1.48828 1.48749 21.4177 1.48749 46.002C1.48749 70.5862 21.417 90.5157 46.0012 90.5157Z" fill="#39C3FC"/>
<path d="M46.0012 80.129C23.1746 80.129 4.37346 62.9438 1.79908 40.8086C1.60026 42.5135 1.48749 44.2436 1.48749 46.0019C1.48749 70.5868 21.4163 90.5156 46.0012 90.5156C70.5861 90.5156 90.5149 70.5868 90.5149 46.0019C90.5149 44.2436 90.4021 42.5135 90.2033 40.8086C87.6289 62.9438 68.8278 80.129 46.0012 80.129Z" fill="#148CE0"/>
<path d="M63.8067 68.2589C73.6404 68.2589 81.6122 60.2871 81.6122 50.4534C81.6122 40.6197 73.6404 32.6479 63.8067 32.6479C53.973 32.6479 46.0012 40.6197 46.0012 50.4534C46.0012 60.2871 53.973 68.2589 63.8067 68.2589Z" fill="#FEA82F"/>
<path d="M63.8067 63.8073C54.7289 63.8073 47.2521 57.0086 46.1555 48.2275C46.0635 48.9576 46.0012 49.698 46.0012 50.4532C46.0012 60.2863 53.9736 68.2587 63.8067 68.2587C73.6398 68.2587 81.6122 60.2863 81.6122 50.4532C81.6122 49.698 81.5499 48.9576 81.4579 48.2275C80.3613 57.0086 72.8845 63.8073 63.8067 63.8073Z" fill="#FF8031"/>
<path d="M71.2182 7.56209C79.4978 3.10479 85.6822 1.77976 87.9509 4.05145C89.3279 5.42692 89.3813 8.42121 88.1023 12.4809L90.9333 13.3726C92.6071 8.0562 92.3103 4.21318 90.049 1.95337C85.5976 -2.50097 75.8951 1.48152 68.2937 5.78748C61.6849 2.10917 54.0864 0.005151 46.0012 0.005151C20.6373 0.005151 0.0037305 20.6402 0.0037305 46.0027C0.0037305 54.0863 2.10774 61.6863 5.78458 68.2951C1.4801 75.8966 -2.50239 85.5991 1.95195 90.0519C3.28736 91.3888 5.13913 91.9972 7.39004 91.9972C11.6604 91.9972 17.3685 89.7804 23.6776 86.2015C30.2938 89.8887 37.9042 92.0001 46.0012 92.0001C71.3651 92.0001 91.9987 71.3651 91.9987 46.0027C91.9987 29.9466 83.7221 15.7927 71.2182 7.56209ZM88.994 44.5189H82.1523C80.1966 38.4887 75.3491 33.7584 69.2507 31.9601C68.4198 29.0518 67.3752 26.3306 66.1897 23.8007C72.794 21.5201 76.1281 18.4635 77.557 16.7898C84.3572 24.1286 88.629 33.8341 88.994 44.5189ZM20.8139 47.4864C21.0394 55.3847 23.0247 62.3184 25.7861 68.2135C19.1995 70.4926 15.8729 73.5433 14.4455 75.217C7.64525 67.8767 3.37342 58.1712 3.0084 47.4864H20.8139ZM47.485 4.5322C50.831 7.33359 57.1282 13.3088 61.9149 21.986C58.1267 22.9475 53.3816 23.6286 47.485 23.728V4.5322ZM50.5416 3.21459C60.1343 4.22505 68.7907 8.40489 75.4574 14.6784C74.4618 15.9158 71.5001 18.919 64.8498 21.1328C60.2931 12.5996 54.3357 6.53383 50.5416 3.21459ZM44.5174 4.53961V23.728C38.652 23.6271 33.9187 22.9401 30.1306 21.9712C34.9158 13.3133 41.1819 7.34398 44.5174 4.53961ZM27.1333 21.0883C20.5691 18.876 17.5733 15.9025 16.5539 14.6694C23.2191 8.40192 31.8681 4.22653 41.4534 3.21459C37.649 6.53234 31.6856 12.5773 27.1333 21.0883ZM44.5174 26.6941V44.5189H23.7829C24.0174 36.9886 26.0027 30.3412 28.7299 24.691C32.8682 25.8038 38.0615 26.5887 44.5174 26.6941ZM27.117 70.8843C28.4569 73.3934 29.9184 75.6903 31.4141 77.7662C28.6898 79.6817 26.1036 81.351 23.6806 82.7784C21.1106 81.213 18.7262 79.379 16.5465 77.3284C17.5392 76.0924 20.4934 73.0981 27.117 70.8843ZM30.1069 70.0148C33.6902 69.1068 38.1208 68.4479 43.5767 68.2951C40.2174 71.1544 36.9783 73.7154 33.892 75.9841C32.5833 74.165 31.2998 72.1752 30.1069 70.0148ZM48.1023 68.2862C53.708 68.4227 58.2484 69.1038 61.9119 70.046C57.1341 78.7039 50.8324 84.6702 47.485 87.4701V68.8233C47.6912 68.6438 47.8975 68.4658 48.1023 68.2862ZM44.5174 71.3562V87.4701C42.3823 85.6792 39.0467 82.587 35.6651 78.3255C38.6194 76.1503 41.5899 73.8074 44.5174 71.3562ZM64.8127 70.8977C71.4171 73.1115 74.4262 76.0999 75.4485 77.3358C68.7789 83.6078 60.1195 87.7862 50.5253 88.7937C54.3015 85.4863 60.2322 79.4399 64.8127 70.8977ZM51.2613 65.4551C51.331 65.3913 51.4007 65.329 51.4705 65.2652C51.5625 65.3424 51.6589 65.4121 51.7524 65.4878C51.5892 65.4774 51.426 65.4655 51.2613 65.4551ZM47.485 64.8794V60.6862C48.0414 61.5706 48.6646 62.4045 49.3531 63.1835C48.7269 63.7577 48.1037 64.3245 47.485 64.8794ZM44.5174 65.3112C38.057 65.418 32.8608 66.2015 28.721 67.3173C25.9982 61.6685 24.0174 55.0226 23.7829 47.4864H44.5174V65.3112ZM47.485 26.6941C53.9603 26.5873 59.1654 25.7994 63.3096 24.6806C64.3067 26.752 65.2044 28.9569 65.9523 31.2909C65.246 31.2137 64.5323 31.1647 63.8067 31.1647C56.9323 31.1647 50.9022 34.7911 47.485 40.2218V26.6941ZM14.4455 16.7883C15.8743 18.4605 19.1995 21.5112 25.7861 23.7918C23.0247 29.6869 21.0379 36.6206 20.8139 44.5189H3.0084C3.37342 33.8341 7.64525 24.1286 14.4455 16.7883ZM4.05151 87.9539C1.77834 85.6807 3.10188 79.4977 7.56067 71.2197C11.0149 76.4678 15.5108 80.9667 20.756 84.4254C12.294 88.9628 6.249 90.1499 4.05151 87.9539ZM33.1946 80.112C36.2141 83.9194 39.2084 86.8321 41.4534 88.7907C36.1845 88.2343 31.2019 86.7179 26.6719 84.4284C28.8056 83.1137 30.9853 81.6715 33.1946 80.112ZM77.557 75.217C76.3136 73.7614 73.6294 71.2612 68.6097 69.1335C70.9126 68.5444 73.0952 67.5384 75.0612 66.1243L73.3282 63.7147C70.5416 65.7178 67.2491 66.7757 63.8067 66.7757C54.8075 66.7757 47.485 59.4532 47.485 50.454C47.485 41.4548 54.8075 34.1323 63.8067 34.1323C72.8059 34.1323 80.1284 41.4548 80.1284 50.454C80.1284 54.4766 78.652 58.3404 75.9723 61.3347L78.1831 63.314C81.351 59.7752 83.096 55.2081 83.096 50.454C83.096 49.4421 82.9936 48.4568 82.8437 47.4864H88.994C88.629 58.1712 84.3572 67.8767 77.557 75.217Z" fill="black"/>
<path d="M85.7995 18.1438L88.4747 19.4317C88.9317 18.4835 89.3457 17.5621 89.7182 16.6718L86.9791 15.5278C86.6274 16.3721 86.2327 17.2446 85.7995 18.1438Z" fill="black"/>
<path d="M63.8067 43.0343C65.4433 43.0343 66.7743 44.3652 66.7743 46.0019H69.7418C69.7418 43.245 67.8441 40.9407 65.2905 40.2774V37.0991H62.3229V40.2774C59.7693 40.9407 57.8715 43.245 57.8715 46.0019C57.8715 49.2751 60.5334 51.937 63.8067 51.937C65.4433 51.937 66.7743 53.268 66.7743 54.9046C66.7743 56.5412 65.4433 57.8722 63.8067 57.8722C62.1701 57.8722 60.8391 56.5412 60.8391 54.9046H57.8715C57.8715 57.6615 59.7693 59.9658 62.3229 60.6291V63.8074H65.2905V60.6291C67.8441 59.9658 69.7418 57.6615 69.7418 54.9046C69.7418 51.6314 67.0799 48.9694 63.8067 48.9694C62.1701 48.9694 60.8391 47.6385 60.8391 46.0019C60.8391 44.3652 62.1701 43.0343 63.8067 43.0343Z" fill="black"/>
<path d="M77.1608 48.9697H74.1932V51.9373H77.1608V48.9697Z" fill="black"/>
<path d="M53.4202 48.9697H50.4526V51.9373H53.4202V48.9697Z" fill="black"/>
</g>
<defs>
<clipPath id="clip0">
<rect width="92" height="92" fill="white"/>
</clipPath>
</defs>
</svg>
