<svg width="93" height="92" viewBox="0 0 93 92" fill="none" xmlns="http://www.w3.org/2000/svg">
<path d="M14.4952 9.08643L2.85715 24.9167H8.67619V52.26H20.3143V24.9167H26.1333L14.4952 9.08643Z" fill="#FCD770"/>
<path d="M20.3143 52.26V24.9167H26.1333L14.4953 9.08643V52.26H20.3143Z" fill="#FFC729"/>
<path d="M78.5047 9.08643L66.8666 24.9167H72.6857V52.26H84.3238V24.9167H90.1428L78.5047 9.08643Z" fill="#FCD770"/>
<path d="M46.5 30.6733C27.2172 30.6733 11.5857 46.1367 11.5857 65.2122C11.5857 74.7723 15.5121 83.4228 21.8564 89.6772H71.1437C77.4879 83.4228 81.4143 74.7723 81.4143 65.2122C81.4143 46.1367 65.7829 30.6733 46.5 30.6733Z" fill="#FB5968"/>
<path d="M46.5 40.7471C32.8412 40.7471 21.7691 51.7002 21.7691 65.2121C21.7691 68.2558 22.3568 71.1585 23.3838 73.8468H69.6162C70.6432 71.1585 71.2309 68.2558 71.2309 65.2121C71.2309 51.7002 60.1588 40.7471 46.5 40.7471Z" fill="#ECECEC"/>
<path d="M21.9655 68.0903C22.2113 70.0907 22.6856 72.0206 23.3838 73.8468H69.6162C70.313 72.0206 70.7887 70.0907 71.0346 68.0903H21.9655Z" fill="#B6C1CE"/>
<path d="M46.5 69.5292C48.9103 69.5292 50.8643 67.5963 50.8643 65.2119C50.8643 62.8275 48.9103 60.8945 46.5 60.8945C44.0897 60.8945 42.1357 62.8275 42.1357 65.2119C42.1357 67.5963 44.0897 69.5292 46.5 69.5292Z" fill="#FCD770"/>
<path d="M16.2701 82.4814C17.8136 85.1179 19.6902 87.5399 21.8578 89.677H71.1437C73.3113 87.5399 75.1879 85.1179 76.7314 82.4814H16.2701Z" fill="#CD2C5A"/>
<path d="M46.5 3.33008L34.8619 19.1604H40.6809V32.1125H52.319V19.1604H58.1381L46.5 3.33008Z" fill="#FCD770"/>
<path d="M84.3238 52.26V24.9167H90.1429L78.5048 9.08643V52.26H84.3238Z" fill="#FFC729"/>
<path d="M52.319 32.1125V19.1604H58.1381L46.5 3.33008V32.1125H52.319Z" fill="#FFC729"/>
<path d="M49.4371 60.2716C48.5716 59.765 47.5751 59.4556 46.5 59.4556C43.2908 59.4556 40.6809 62.0373 40.6809 65.212C40.6809 68.3867 43.2908 70.9685 46.5 70.9685C49.7092 70.9685 52.319 68.3867 52.319 65.212C52.319 64.1471 52.0048 63.1627 51.4942 62.3065L63.5309 50.4006L61.4738 48.3657L49.4371 60.2716ZM46.5 68.0903C44.8954 68.0903 43.5905 66.7994 43.5905 65.212C43.5905 63.6247 44.8954 62.3338 46.5 62.3338C48.1046 62.3338 49.4095 63.6247 49.4095 65.212C49.4095 66.7994 48.1046 68.0903 46.5 68.0903Z" fill="black"/>
<path d="M61.0476 76.7251H31.9524V79.6033H61.0476V76.7251Z" fill="black"/>
<path d="M55.2285 82.4814H37.7714V85.3597H55.2285V82.4814Z" fill="black"/>
<path d="M46.5 29.2339C26.4461 29.2339 10.131 45.3736 10.131 65.2119C10.131 74.8439 13.9308 83.8945 20.8293 90.6958L21.2555 91.116H71.743L72.1693 90.6958C79.0692 83.8945 82.869 74.8439 82.869 65.2119C82.869 45.3736 66.5539 29.2339 46.5 29.2339ZM70.5341 88.2378H22.4659C16.3835 82.0308 13.0405 73.8768 13.0405 65.2119C13.0405 46.9595 28.0507 32.1121 46.5 32.1121C64.9493 32.1121 79.9595 46.9595 79.9595 65.2119C79.9595 73.8768 76.6165 82.0308 70.5341 88.2378Z" fill="black"/>
<path d="M39.2262 26.3557H42.1357V17.721H37.7191L46.5 5.7763L55.2809 17.721H50.8643V26.3557H53.7738V20.5992H60.9953L46.5 0.883301L32.0048 20.5992H39.2262V26.3557Z" fill="black"/>
<path d="M78.5048 6.64014L64.0095 26.3561H71.231V30.6734H74.1405V23.4778H69.7238L78.5048 11.5331L87.2857 23.4778H82.8691V46.5037H85.7786V26.3561H93L78.5048 6.64014Z" fill="black"/>
<path d="M7.22144 46.5037H10.131V23.4778H5.7143L14.4952 11.5331L23.2762 23.4778H18.8595V30.6734H21.7691V26.3561H28.9905L14.4952 6.64014L0 26.3561H7.22144V46.5037Z" fill="black"/>
<path d="M10.131 49.3818H7.22144V52.2601H10.131V49.3818Z" fill="black"/>
<path d="M21.7691 33.5518H18.8595V36.43H21.7691V33.5518Z" fill="black"/>
<path d="M74.1405 33.5518H71.2309V36.43H74.1405V33.5518Z" fill="black"/>
<path d="M85.7785 49.3818H82.869V52.2601H85.7785V49.3818Z" fill="black"/>
<path d="M61.0476 82.4814H58.1381V85.3597H61.0476V82.4814Z" fill="black"/>
<path d="M34.8619 82.4814H31.9524V85.3597H34.8619V82.4814Z" fill="black"/>
<path d="M46.5 34.9907C29.6539 34.9907 15.95 48.5487 15.95 65.2122C15.95 71.7861 18.0769 78.0592 22.1022 83.348L24.4269 81.6167C20.7842 76.8302 18.8595 71.1587 18.8595 65.2122C18.8595 50.1346 31.2585 37.869 46.5 37.869C61.7415 37.869 74.1405 50.1346 74.1405 65.2122C74.1405 71.1587 72.2158 76.8302 68.5746 81.6153L70.8993 83.3466C74.9231 78.0592 77.05 71.7861 77.05 65.2122C77.05 48.5487 63.3461 34.9907 46.5 34.9907Z" fill="black"/>
</svg>
