<svg width="92" height="92" viewBox="0 0 92 92" fill="none" xmlns="http://www.w3.org/2000/svg">
<g clip-path="url(#clip0)">
<path d="M87.5484 22.2581V1.48389H65.2903V22.2581L56.3871 35.6129L63.8065 47.4839H66.7742V69.742C66.7742 71.3816 68.1023 72.7097 69.7419 72.7097C71.3816 72.7097 72.7097 71.3816 72.7097 69.742V53.4194C72.7097 55.059 74.0377 56.3871 75.6774 56.3871C77.3171 56.3871 78.6452 55.059 78.6452 53.4194C78.6452 55.059 79.9732 56.3871 81.6129 56.3871C83.2526 56.3871 84.5807 55.059 84.5807 53.4194C84.5807 55.059 85.9087 56.3871 87.5484 56.3871C89.1881 56.3871 90.5161 55.059 90.5161 53.4194V46V26.7097L87.5484 22.2581Z" fill="#F9E0A6"/>
<path d="M78.6452 43.0327H66.7742V51.9359H78.6452V43.0327Z" fill="#EABD8C"/>
<path d="M68.2581 37.0971C68.2581 37.0971 83.0968 37.0971 90.5161 26.71V44.5164H68.2581V37.0971Z" fill="#EABD8C"/>
<path d="M75.578 39.1875L68.2581 37.0967L63.8064 47.4838H74.4161C76.7517 47.4838 78.6452 45.5904 78.6452 43.2547C78.6452 41.3658 77.3928 39.7068 75.578 39.1875Z" fill="#F9E0A6"/>
<path d="M16.3226 34.1291C24.5178 34.1291 31.1613 27.4856 31.1613 19.2904C31.1613 11.0952 24.5178 4.45166 16.3226 4.45166C8.12739 4.45166 1.48387 11.0952 1.48387 19.2904C1.48387 27.4856 8.12739 34.1291 16.3226 34.1291Z" fill="#FEA82F"/>
<path d="M16.3226 29.6774C8.88542 29.6774 2.74516 24.2004 1.66936 17.0645C1.55955 17.793 1.48387 18.532 1.48387 19.2903C1.48387 27.4857 8.12716 34.129 16.3226 34.129C24.518 34.129 31.1613 27.4857 31.1613 19.2903C31.1613 18.532 31.0856 17.793 30.9758 17.0645C29.9 24.2004 23.7597 29.6774 16.3226 29.6774Z" fill="#FF8031"/>
<path d="M87.5484 41.5483C85.9087 41.5483 84.5806 42.8764 84.5806 44.5161V53.4193C84.5806 55.059 85.9087 56.3871 87.5484 56.3871C89.1881 56.3871 90.5161 55.059 90.5161 53.4193V44.5161C90.5161 42.8764 89.1881 41.5483 87.5484 41.5483Z" fill="#F9E0A6"/>
<path d="M81.6129 41.5483C79.9732 41.5483 78.6452 42.8764 78.6452 44.5161V53.4193C78.6452 55.059 79.9732 56.3871 81.6129 56.3871C83.2526 56.3871 84.5806 55.059 84.5806 53.4193V44.5161C84.5806 42.8764 83.2526 41.5483 81.6129 41.5483Z" fill="#F9E0A6"/>
<path d="M46 69.7422C44.1808 69.7422 42.5188 70.7705 41.7057 72.3968L35.6129 84.5809V90.5164H56.3871V84.5809L50.2943 72.3968C49.4812 70.7705 47.8192 69.7422 46 69.7422Z" fill="#ECECEC"/>
<path d="M50.2943 72.3968C49.4812 70.7705 47.8192 69.7422 46 69.7422C45.2076 69.7422 44.4494 69.947 43.7742 70.3016C44.6497 70.7616 45.3842 71.4783 45.8427 72.3968L51.9355 84.5809V90.5164H56.3871V84.5809L50.2943 72.3968Z" fill="#B6C1CE"/>
<path d="M56.3871 84.5806H35.6129V90.5161H56.3871V84.5806Z" fill="#FB5968"/>
<path d="M56.3871 84.5806H51.9355V90.5161H56.3871V84.5806Z" fill="#CD2C5A"/>
<path d="M89.0323 21.8085V0H63.8064V21.8085L54.6213 35.5862L62.9829 48.9677H65.2903V69.7419C65.2903 70.3058 65.4061 70.84 65.599 71.3371L4.73651 59.383L4.16522 62.2959L41.9639 69.7212C41.3154 70.2643 40.7708 70.9439 40.3761 71.7348L34.129 84.2305V92H57.871V84.2305L51.6224 71.7333C51.5986 71.6873 51.569 71.6472 51.5452 71.6012L87.2635 78.617L87.8348 75.7041L72.9738 72.7854C73.7246 71.9885 74.1936 70.9216 74.1936 69.7419V57.5979C74.6595 57.7641 75.1551 57.871 75.6774 57.871C76.8215 57.871 77.8557 57.4243 78.6452 56.7136C79.4346 57.4258 80.4688 57.871 81.6129 57.871C82.757 57.871 83.7912 57.4243 84.5806 56.7136C85.3701 57.4258 86.4043 57.871 87.5484 57.871C90.0027 57.871 92 55.8737 92 53.4194V46V44.5161V26.2601L89.0323 21.8085ZM53.9862 83.0968H51.9355V86.0645H54.9032V89.0323H37.0968V86.0645H48.9677V83.0968H38.0138L43.0323 73.0599C43.5976 71.9292 44.7343 71.2258 46 71.2258C47.2657 71.2258 48.4024 71.9292 48.9677 73.0599L53.9862 83.0968ZM58.1529 35.6396L66.7742 22.7077V8.90323H80.129V5.93548H66.7742V2.96774H86.0645V5.93548H83.0968V8.90323H86.0645V22.7077L89.0323 27.1593V40.339C88.5663 40.1714 88.0707 40.0645 87.5484 40.0645C86.4043 40.0645 85.3701 40.5112 84.5806 41.2219C83.7912 40.5097 82.757 40.0645 81.6129 40.0645C80.8368 40.0645 80.1172 40.2812 79.4821 40.6328C78.7728 39.2692 77.5278 38.2023 75.9846 37.7615L68.6646 35.6708L67.85 38.5243L75.1699 40.615C76.3422 40.9504 77.1613 42.0351 77.1613 43.2548C77.1613 44.7684 75.9297 46 74.4146 46H64.6285L58.1529 35.6396ZM71.2258 48.9677V53.4194V69.7419C71.2258 70.561 70.561 71.2258 69.7419 71.2258C68.9228 71.2258 68.2581 70.561 68.2581 69.7419V48.9677H71.2258ZM75.6774 54.9032C74.8583 54.9032 74.1936 54.2385 74.1936 53.4194V48.9677H74.4146C75.4148 48.9677 76.3422 48.6873 77.1613 48.2332V53.4194C77.1613 54.2385 76.4965 54.9032 75.6774 54.9032ZM81.6129 54.9032C80.7938 54.9032 80.129 54.2385 80.129 53.4194V44.5161C80.129 43.6985 80.7938 43.0323 81.6129 43.0323C82.432 43.0323 83.0968 43.6985 83.0968 44.5161V53.4194C83.0968 54.2385 82.432 54.9032 81.6129 54.9032ZM89.0323 53.4194C89.0323 54.2385 88.3675 54.9032 87.5484 54.9032C86.7293 54.9032 86.0645 54.2385 86.0645 53.4194V44.5161C86.0645 43.6985 86.7293 43.0323 87.5484 43.0323C88.3675 43.0323 89.0323 43.6985 89.0323 44.5161V46V53.4194Z" fill="black"/>
<path d="M16.3226 35.6129C19.7221 35.6129 22.9896 34.5653 25.7719 32.5858L24.0506 30.1671C21.7743 31.789 19.1019 32.6452 16.3226 32.6452C8.95813 32.6452 2.96774 26.6533 2.96774 19.2904C2.96774 11.9274 8.95813 5.93552 16.3226 5.93552C23.687 5.93552 29.6774 11.9274 29.6774 19.2904C29.6774 22.0696 28.8212 24.7421 27.1994 27.0184L29.6166 28.7396C31.5975 25.9574 32.6452 22.6899 32.6452 19.2904C32.6452 10.2907 25.3223 2.96777 16.3226 2.96777C7.3229 2.96777 0 10.2907 0 19.2904C0 28.29 7.3229 35.6129 16.3226 35.6129Z" fill="black"/>
<path d="M14.8387 14.8388H17.8065C18.6256 14.8388 19.2903 15.5051 19.2903 16.3227H22.2581C22.2581 13.8684 20.2608 11.8711 17.8065 11.8711V8.90332H14.8387V11.8711C12.3844 11.8711 10.3871 13.8684 10.3871 16.3227C10.3871 18.777 12.3844 20.7743 14.8387 20.7743H17.8065C18.6256 20.7743 19.2903 21.4405 19.2903 22.2582C19.2903 23.0758 18.6256 23.742 17.8065 23.742H14.8387C14.0196 23.742 13.3548 23.0758 13.3548 22.2582H10.3871C10.3871 24.7125 12.3844 26.7098 14.8387 26.7098V29.6775H17.8065V26.7098C20.2608 26.7098 22.2581 24.7125 22.2581 22.2582C22.2581 19.8038 20.2608 17.8065 17.8065 17.8065H14.8387C14.0196 17.8065 13.3548 17.1403 13.3548 16.3227C13.3548 15.5051 14.0196 14.8388 14.8387 14.8388Z" fill="black"/>
<path d="M17.8065 40.0645H14.8387V48.9677H17.8065V40.0645Z" fill="black"/>
<path d="M26.7097 40.0645H23.7419V45.9999H26.7097V40.0645Z" fill="black"/>
<path d="M8.90323 40.0645H5.93549V45.9999H8.90323V40.0645Z" fill="black"/>
<path d="M28.1935 17.8062H25.2258V20.7739H28.1935V17.8062Z" fill="black"/>
<path d="M7.41936 17.8062H4.45161V20.7739H7.41936V17.8062Z" fill="black"/>
<path d="M26.7097 48.9678H23.7419V51.9355H26.7097V48.9678Z" fill="black"/>
<path d="M17.8065 51.9355H14.8387V54.9033H17.8065V51.9355Z" fill="black"/>
<path d="M8.90323 48.9678H5.93549V51.9355H8.90323V48.9678Z" fill="black"/>
</g>
<defs>
<clipPath id="clip0">
<rect width="92" height="92" fill="white"/>
</clipPath>
</defs>
</svg>
