<svg width="39" height="33" viewBox="0 0 39 33" fill="none" xmlns="http://www.w3.org/2000/svg">
<path fill-rule="evenodd" clip-rule="evenodd" d="M17.248 0.0177603C13.3207 0.49632 9.72665 2.07522 6.78739 4.6132C3.10878 7.78968 0.810612 12.0229 0.166985 16.8075C-0.247425 19.8887 0.11197 23.0837 1.21763 26.1484C1.57857 27.1488 2.49995 28.9637 3.14576 29.9464C3.67055 30.7449 4.47056 31.7792 5.1518 32.5399L5.46351 32.8879L5.5138 32.294C5.61228 31.1312 5.8851 30.1953 6.36636 29.3689C6.6401 28.8989 7.54746 28.0129 8.05535 27.7195C8.43059 27.5027 8.48032 27.448 8.49899 27.2311C8.52118 26.9723 8.51449 26.9614 7.70018 25.9376C7.21955 25.3332 6.73414 24.367 6.53514 23.6185C6.3484 22.916 6.27725 21.4393 6.3925 20.6556C6.5026 19.9061 6.7676 18.8633 6.99766 18.2739C7.33642 17.406 8.06972 15.9765 8.54386 15.2597L9.00631 14.5606V13.0637C9.00631 12.2404 9.02695 11.5667 9.05217 11.5667C9.07739 11.5667 10.9714 12.1858 13.2611 12.9425C15.5507 13.6992 17.6302 14.3627 17.882 14.417C18.4793 14.5458 19.8409 14.5447 20.3827 14.4149C20.6151 14.3592 22.6517 13.6993 24.9086 12.9484L29.0118 11.5832V13.0493V14.5156L29.4631 15.1317C30.5932 16.6751 31.4063 18.357 31.8429 20.0549C32.0554 20.8813 32.0723 21.0297 32.0683 22.0374C32.065 22.9228 32.0357 23.2318 31.9123 23.6888C31.6932 24.4999 31.2102 25.4176 30.5994 26.1835C30.1206 26.7839 30.0688 26.8785 30.0853 27.1233C30.1027 27.3822 30.1288 27.4098 30.6148 27.6855C32.2435 28.6093 33.1118 30.13 33.2782 32.35C33.305 32.7075 33.3424 33 33.3612 33C33.3801 33 33.5781 32.8024 33.8011 32.5608C37.9535 28.0628 39.7302 22.1125 38.7252 16.07C38.1002 12.3122 36.2902 8.71749 33.636 5.96286C30.684 2.89924 27.1164 0.969398 22.989 0.203703C22.0753 0.0342042 21.8371 0.0195171 19.7487 0.00419762C18.5089 -0.0048676 17.3836 0.00124616 17.248 0.0177603ZM19.8482 4.5411C20.3337 4.60399 22.3086 5.23525 30.9838 8.10071C33.307 8.86802 33.5538 9.01447 33.1525 9.38748C33.0519 9.48094 30.7996 10.2568 26.8304 11.5654C20.5474 13.6367 20.3483 13.6977 19.6043 13.7793C18.6985 13.8786 18.3268 13.7749 11.9061 11.6324C8.55661 10.5147 5.71766 9.54299 5.59735 9.47307C5.32854 9.31692 5.27846 9.07441 5.47915 8.90077C5.64701 8.75544 5.8732 8.67709 12.8801 6.33545C18.579 4.43084 18.7188 4.39486 19.8482 4.5411ZM11.0491 16.8682C11.0491 16.9626 11.0839 17.0612 11.1265 17.0874C11.169 17.1136 11.2958 17.2798 11.4082 17.4567C11.7246 17.9544 11.6978 18.3363 11.3133 18.8086C10.7111 19.5484 10.6103 19.6911 10.3982 20.1049C10.0753 20.7345 9.92065 21.2976 9.8769 22.0023C9.74201 24.1741 11.1469 25.9853 13.2671 26.373C14.6866 26.6326 16.2178 26.1391 17.3146 25.0684L17.7262 24.6667L17.772 25.0561C17.8689 25.8793 18.4571 27.072 19.1773 27.9052L19.4203 28.1863L19.6902 27.8767C20.3764 27.0897 20.9759 25.9844 21.0852 25.3051C21.1925 24.6383 21.1449 24.6504 21.6885 25.1525C23.1253 26.4796 25.1547 26.8135 26.8281 25.9983C27.2191 25.8078 27.496 25.6005 27.8933 25.2006C28.7278 24.3608 29.0822 23.4772 29.0822 22.2367C29.0822 21.0839 28.6888 20.0527 27.8843 19.0969C27.6606 18.831 27.4423 18.5479 27.3993 18.4678C27.2288 18.1501 27.3586 17.6738 27.7498 17.181C28.1161 16.7197 28.0346 16.6679 27.02 16.7179C25.3942 16.7979 23.8073 17.177 22.5664 17.7817C21.5621 18.271 20.979 18.8196 20.5586 19.6703C20.0438 20.7123 19.9486 21.6666 20.2435 22.8292C20.2911 23.0164 20.2858 23.0211 20.1043 22.9522C19.8587 22.8591 18.9683 22.8599 18.7931 22.9534C18.6301 23.0405 18.6281 23.0153 18.7633 22.5708C18.898 22.1277 18.8963 21.1465 18.7599 20.5689C18.2698 18.4947 16.3567 17.268 12.8806 16.7992C12.4738 16.7443 11.8953 16.6988 11.5951 16.6981C11.0629 16.6966 11.0491 16.7009 11.0491 16.8682ZM14.0542 18.6611C13.2025 19.6016 13.1727 21.0026 13.9851 21.9025C15.2172 23.2669 17.4593 22.0506 17.4593 20.0177C17.4593 19.584 17.529 19.585 17.7529 20.0218C18.0769 20.6541 18.1846 21.5901 18.0172 22.3185C17.6914 23.736 16.444 24.9203 14.9393 25.2408C14.4353 25.3481 14.2829 25.3535 13.8123 25.2806C11.4624 24.9166 10.3408 22.5082 11.5163 20.3508C11.9612 19.5344 12.7716 18.8443 13.6599 18.5256C14.2712 18.3064 14.3507 18.3337 14.0542 18.6611ZM25.3736 18.5524C26.5315 18.9872 27.3755 19.8877 27.7839 21.1239C27.9559 21.6449 27.9551 22.575 27.782 23.0915C27.5417 23.8086 26.9688 24.5354 26.3642 24.8901C26.0336 25.0841 25.0939 25.3408 24.7212 25.339C24.283 25.3369 23.4989 25.1386 23.0399 24.9137C21.5745 24.1958 20.6377 22.4812 20.9027 21.0019C20.9899 20.5156 21.2168 19.9496 21.4315 19.6833C21.5392 19.5497 21.5428 19.5566 21.5038 19.8238C21.4505 20.1884 21.6356 20.978 21.8662 21.3708C22.6196 22.6532 24.2884 22.8578 25.1168 21.7692C25.7657 20.9165 25.6806 19.4971 24.9293 18.6435C24.6522 18.3287 24.7334 18.312 25.3736 18.5524Z" fill="white"/>
</svg>
