<svg width="75" height="56" viewBox="0 0 75 56" fill="none" xmlns="http://www.w3.org/2000/svg">
<path d="M43.555 43.47H31.345C30.345 43.47 29.605 42.98 29.605 42.32V39.6C29.605 39.49 29.365 39.29 28.925 39.22C26.6954 38.8625 24.4958 38.3377 22.345 37.65C21.9095 37.5113 21.4376 37.5435 21.025 37.74L17.705 39.66C17.3491 39.8425 16.9549 39.9377 16.555 39.9377C16.1551 39.9377 15.7609 39.8425 15.405 39.66L6.745 34.66C6.58625 34.5743 6.45364 34.4473 6.36121 34.2924C6.26878 34.1374 6.21998 33.9604 6.21998 33.78C6.21998 33.5996 6.26878 33.4226 6.36121 33.2676C6.45364 33.1127 6.58625 32.9857 6.745 32.9L10.085 30.98C10.215 30.9 10.275 30.82 10.285 30.77C10.2745 30.7158 10.2464 30.6666 10.205 30.63C9.08303 29.5101 8.1388 28.2252 7.405 26.82C7.28009 26.6833 7.12376 26.5791 6.94952 26.5163C6.77529 26.4536 6.58839 26.4343 6.405 26.46H1.735C0.735001 26.46 0.00500488 25.96 0.00500488 25.3V18.22C0.00500488 17.56 0.755001 17.06 1.735 17.06H6.445C6.62839 17.0857 6.81529 17.0664 6.98952 17.0037C7.16376 16.9409 7.32009 16.8367 7.445 16.7C8.14827 15.2754 9.06557 13.9669 10.165 12.82C10.165 12.82 10.245 12.73 10.235 12.68C10.225 12.63 10.175 12.55 10.035 12.47L6.715 10.55C6.54411 10.4733 6.3982 10.3501 6.29388 10.1945C6.18957 10.039 6.13105 9.85723 6.125 9.67001C6.13849 9.48474 6.19999 9.30615 6.30344 9.15186C6.40689 8.99756 6.54873 8.87285 6.715 8.79001L15.375 3.79001C15.7291 3.60757 16.1217 3.51239 16.52 3.51239C16.9183 3.51239 17.3109 3.60757 17.665 3.79001L20.995 5.71002C21.2014 5.81714 21.4271 5.88202 21.6589 5.90091C21.8907 5.9198 22.124 5.89229 22.345 5.82001C24.4926 5.13281 26.6888 4.60799 28.915 4.25C29.355 4.18 29.595 3.98 29.595 3.87V1.14999C29.595 0.489994 30.345 0 31.335 0H43.585C44.585 0 45.315 0.489994 45.315 1.14999V3.82001C45.315 3.91001 45.525 4.12001 46.005 4.20001C48.2282 4.55693 50.4211 5.08177 52.565 5.77002C53.0038 5.9093 53.479 5.87711 53.895 5.67999L57.215 3.76001C57.5691 3.57757 57.9617 3.48239 58.36 3.48239C58.7583 3.48239 59.1509 3.57757 59.505 3.76001L68.175 8.76001C68.3338 8.84569 68.4664 8.97273 68.5588 9.12766C68.6512 9.28258 68.7 9.45962 68.7 9.64001C68.7 9.82041 68.6512 9.99745 68.5588 10.1524C68.4664 10.3073 68.3338 10.4343 68.175 10.52L64.845 12.44C64.715 12.52 64.655 12.6 64.645 12.65C64.635 12.7 64.645 12.76 64.725 12.79C65.8369 13.928 66.7678 15.2298 67.485 16.65C67.6099 16.7867 67.7662 16.8909 67.9405 16.9537C68.1147 17.0164 68.3016 17.0357 68.485 17.01H73.185C73.7136 16.9828 74.2314 17.1662 74.625 17.52C74.7145 17.6033 74.7864 17.7038 74.8362 17.8155C74.886 17.9272 74.9128 18.0477 74.915 18.17V25.25C74.915 25.91 74.175 26.41 73.185 26.41H68.485C68.3016 26.3843 68.1147 26.4036 67.9405 26.4663C67.7662 26.5291 67.6099 26.6333 67.485 26.77C66.7678 28.1902 65.8369 29.492 64.725 30.63C64.7027 30.6465 64.684 30.6675 64.6703 30.6916C64.6565 30.7157 64.6479 30.7424 64.645 30.77C64.645 30.82 64.715 30.9 64.855 30.98L68.175 32.9C68.344 32.9781 68.4879 33.1019 68.5903 33.2574C68.6928 33.4129 68.7498 33.5939 68.755 33.78C68.7445 33.9648 68.6853 34.1435 68.5834 34.2981C68.4816 34.4526 68.3407 34.5775 68.175 34.66L59.505 39.66C59.1509 39.8424 58.7583 39.9376 58.36 39.9376C57.9617 39.9376 57.5691 39.8424 57.215 39.66L53.885 37.74C53.4726 37.5425 53.0004 37.5103 52.565 37.65C50.4211 38.3382 48.2282 38.8631 46.005 39.22C45.565 39.29 45.315 39.49 45.315 39.6V42.32C45.285 42.98 44.545 43.47 43.555 43.47ZM21.755 36.82C22.0229 36.8192 22.2894 36.8597 22.545 36.94C24.6586 37.6077 26.8175 38.1224 29.005 38.48C29.795 38.61 30.315 39.06 30.315 39.6V42.32C30.315 42.46 30.695 42.72 31.315 42.72H43.565C44.175 42.72 44.565 42.46 44.565 42.32V39.6C44.565 39.06 45.095 38.6 45.875 38.48C48.0627 38.1235 50.2217 37.6088 52.335 36.94C52.6506 36.836 52.9837 36.7957 53.315 36.8215C53.6463 36.8472 53.9692 36.9385 54.265 37.09L57.595 39.01C57.8345 39.1282 58.0979 39.1897 58.365 39.1897C58.632 39.1897 58.8955 39.1282 59.135 39.01L67.795 34.01C67.955 33.92 68.005 33.83 68.005 33.78C68.005 33.73 68.005 33.64 67.795 33.55L64.475 31.63C64.3257 31.5614 64.1956 31.4571 64.0962 31.3263C63.9967 31.1955 63.9311 31.0422 63.905 30.88C63.8866 30.7386 63.9024 30.5949 63.9511 30.4609C63.9999 30.3269 64.0801 30.2065 64.185 30.11C65.2418 29.0264 66.1285 27.789 66.815 26.44C66.99 26.174 67.2343 25.9608 67.5215 25.8233C67.8088 25.6859 68.1281 25.6294 68.445 25.66H73.145C73.755 25.66 74.145 25.39 74.145 25.25V18.17C74.1431 18.146 74.1358 18.1228 74.1237 18.102C74.1116 18.0812 74.0949 18.0635 74.075 18.05C73.8185 17.8432 73.4939 17.7397 73.165 17.76H68.465C68.148 17.7906 67.8288 17.7341 67.5415 17.5967C67.2543 17.4592 67.01 17.246 66.835 16.98C66.1485 15.631 65.2618 14.3936 64.205 13.31C64.1001 13.2135 64.0199 13.0931 63.9711 12.9591C63.9224 12.8251 63.9066 12.6814 63.925 12.54C63.9511 12.3778 64.0167 12.2245 64.1161 12.0937C64.2156 11.9629 64.3457 11.8586 64.495 11.79L67.825 9.87C67.975 9.77999 68.035 9.69001 68.035 9.64001C68.035 9.59001 67.975 9.5 67.815 9.41L59.155 4.41C58.9155 4.29183 58.6521 4.23035 58.385 4.23035C58.118 4.23035 57.8545 4.29183 57.615 4.41L54.285 6.33002C53.6864 6.63176 52.993 6.68564 52.355 6.48001C50.2417 5.81117 48.0827 5.29647 45.895 4.94C45.115 4.81 44.585 4.36001 44.585 3.82001V1.10001C44.585 0.960006 44.215 0.700012 43.585 0.700012H31.345C30.735 0.700012 30.345 0.960006 30.345 1.10001V3.82001C30.345 4.36001 29.825 4.82 29.035 4.94C26.8477 5.29875 24.6889 5.8134 22.575 6.48001C22.2611 6.5843 21.9296 6.62476 21.5998 6.599C21.2701 6.57324 20.9489 6.48178 20.655 6.33002L17.345 4.41C17.1055 4.29183 16.8421 4.23035 16.575 4.23035C16.308 4.23035 16.0445 4.29183 15.805 4.41L7.135 9.41C6.985 9.5 6.925 9.59001 6.925 9.64001C6.925 9.69001 6.985 9.77999 7.135 9.87L10.415 11.82C10.5596 11.895 10.6858 12.0012 10.7843 12.1309C10.8829 12.2606 10.9515 12.4106 10.985 12.57C11.001 12.7113 10.984 12.8543 10.9354 12.9879C10.8869 13.1215 10.808 13.242 10.705 13.34C9.64543 14.4213 8.7584 15.6591 8.075 17.01C7.8992 17.2752 7.65477 17.4878 7.36774 17.6252C7.08072 17.7625 6.76183 17.8195 6.445 17.79H1.735C1.135 17.79 0.735001 18.06 0.735001 18.2V25.28C0.735001 25.42 1.115 25.69 1.735 25.69H6.445C6.76183 25.6605 7.08072 25.7175 7.36774 25.8549C7.65477 25.9922 7.8992 26.2048 8.075 26.47C8.7584 27.8209 9.64543 29.0587 10.705 30.14C10.8093 30.237 10.889 30.3574 10.9377 30.4913C10.9864 30.6252 11.0026 30.7687 10.985 30.91C10.9535 31.0702 10.8858 31.2211 10.787 31.3511C10.6882 31.4811 10.5609 31.5868 10.415 31.66L7.085 33.58C6.935 33.67 6.875 33.76 6.875 33.81C6.875 33.86 6.935 33.95 7.085 34.04L15.755 39.04C15.9945 39.1582 16.2579 39.2197 16.525 39.2197C16.7921 39.2197 17.0555 39.1582 17.295 39.04L20.625 37.12C20.9695 36.9243 21.3588 36.821 21.755 36.82Z" fill="#2737CE"/>
<path d="M73.115 38.3701H68.415C68.3261 38.3555 68.2452 38.3098 68.1868 38.2411C68.1285 38.1724 68.0964 38.0852 68.0964 37.9951C68.0964 37.9049 68.1285 37.8177 68.1868 37.7491C68.2452 37.6804 68.3261 37.6346 68.415 37.6201H73.115C73.725 37.6201 74.115 37.3601 74.115 37.2101V25.2101C74.115 25.1093 74.155 25.0126 74.2263 24.9414C74.2976 24.8701 74.3942 24.8301 74.495 24.8301C74.5444 24.8301 74.5934 24.8399 74.6389 24.8592C74.6845 24.8784 74.7257 24.9065 74.7602 24.942C74.7947 24.9774 74.8218 25.0193 74.8398 25.0654C74.8577 25.1115 74.8663 25.1607 74.865 25.2101V37.2101C74.845 37.8701 74.105 38.3701 73.115 38.3701Z" fill="#2737CE"/>
<path d="M43.555 55.4402H31.345C30.345 55.4402 29.605 54.9402 29.605 54.2802V51.5702C29.605 51.4602 29.365 51.2602 28.925 51.1902C26.6973 50.8231 24.4985 50.2984 22.345 49.6202C21.9096 49.4815 21.4377 49.5137 21.025 49.7102L17.705 51.6302C17.3492 51.8127 16.955 51.9079 16.555 51.9079C16.1551 51.9079 15.7609 51.8127 15.405 51.6302L6.74503 46.6302C6.57562 46.5543 6.4307 46.4327 6.32649 46.279C6.22229 46.1254 6.16292 45.9457 6.15503 45.7602C6.155 45.6611 6.19366 45.5659 6.26277 45.495C6.33189 45.424 6.42599 45.3828 6.52503 45.3802C6.62236 45.3827 6.71501 45.4225 6.78386 45.4914C6.85271 45.5602 6.89251 45.6529 6.89503 45.7502C6.89503 45.8002 6.95503 45.8902 7.10503 45.9802L15.775 50.9802C16.0157 51.0941 16.2787 51.1532 16.545 51.1532C16.8113 51.1532 17.0743 51.0941 17.315 50.9802L20.645 49.0602C21.2389 48.7557 21.929 48.6982 22.565 48.9002C24.6774 49.5749 26.8365 50.0929 29.025 50.4502C29.815 50.5702 30.335 51.0302 30.335 51.5702V54.2802C30.335 54.4202 30.715 54.6902 31.335 54.6902H43.585C44.195 54.6902 44.585 54.4202 44.585 54.2802V51.5702C44.585 51.0302 45.115 50.5702 45.895 50.4502C48.084 50.0952 50.2433 49.5771 52.355 48.9002C52.9937 48.6999 53.685 48.7536 54.285 49.0502L57.615 50.9802C57.8545 51.0984 58.118 51.1599 58.385 51.1599C58.6521 51.1599 58.9156 51.0984 59.155 50.9802L67.815 45.9802C67.955 45.9002 68.045 45.8102 68.025 45.7402C68.0074 45.6422 68.029 45.5412 68.0851 45.4589C68.1412 45.3766 68.2273 45.3196 68.325 45.3002C68.423 45.2826 68.5241 45.3041 68.6064 45.3602C68.6887 45.4164 68.7456 45.5025 68.765 45.6002C68.7846 45.8053 68.7404 46.0115 68.6383 46.1904C68.5363 46.3694 68.3815 46.5126 68.195 46.6002L59.525 51.6002C59.1709 51.7827 58.7784 51.8778 58.38 51.8778C57.9817 51.8778 57.5891 51.7827 57.235 51.6002L53.905 49.6702C53.4924 49.4719 53.0186 49.4432 52.585 49.5902C50.4385 50.2691 48.2463 50.7938 46.025 51.1602C45.585 51.2302 45.335 51.4302 45.335 51.5402V54.2502C45.285 54.9402 44.545 55.4402 43.555 55.4402Z" fill="#2737CE"/>
<path d="M6.44499 38.37H1.735C0.734996 38.37 0.00500021 37.87 0.00500021 37.21V25.21C-0.00390877 25.1556 -0.000886769 25.1 0.0138579 25.0469C0.0286027 24.9938 0.0547152 24.9446 0.0903884 24.9026C0.126062 24.8606 0.170439 24.8268 0.220447 24.8037C0.270455 24.7805 0.3249 24.7686 0.38 24.7686C0.4351 24.7686 0.489538 24.7805 0.539546 24.8037C0.589554 24.8268 0.633931 24.8606 0.669604 24.9026C0.705278 24.9446 0.73139 24.9938 0.746135 25.0469C0.76088 25.1 0.763909 25.1556 0.755 25.21V37.21C0.755 37.36 1.135 37.62 1.755 37.62H6.44499C6.53394 37.6346 6.61481 37.6803 6.67317 37.749C6.73152 37.8177 6.76355 37.9049 6.76355 37.995C6.76355 38.0851 6.73152 38.1723 6.67317 38.241C6.61481 38.3097 6.53394 38.3554 6.44499 38.37Z" fill="#2737CE"/>
<path d="M52.345 30.6799C52.2794 30.6804 52.2149 30.663 52.1585 30.6295C52.1021 30.596 52.0559 30.5478 52.025 30.4899C51.9983 30.4484 51.9805 30.4018 51.9726 30.3531C51.9648 30.3043 51.967 30.2545 51.9792 30.2067C51.9914 30.1589 52.0133 30.114 52.0435 30.075C52.0737 30.036 52.1117 30.0037 52.155 29.9799C56.015 27.7499 58.155 24.8199 58.155 21.7099C58.155 18.5999 56.035 15.7099 52.155 13.4399C52.1117 13.4162 52.0737 13.3838 52.0435 13.3448C52.0133 13.3058 51.9914 13.261 51.9792 13.2132C51.967 13.1654 51.9648 13.1155 51.9726 13.0668C51.9805 13.0181 51.9983 12.9715 52.025 12.9299C52.0489 12.8868 52.0811 12.849 52.1199 12.8186C52.1586 12.7881 52.203 12.7657 52.2505 12.7527C52.298 12.7397 52.3477 12.7362 52.3965 12.7426C52.4453 12.749 52.4924 12.7651 52.535 12.7899C56.625 15.1599 58.885 18.3199 58.885 21.7099C58.885 25.0999 56.625 28.2599 52.535 30.6299C52.4761 30.6604 52.4112 30.6775 52.345 30.6799Z" fill="#2737CE"/>
<path d="M16.395 21.5899C16.3454 21.5874 16.2969 21.575 16.2523 21.5534C16.2077 21.5317 16.1679 21.5014 16.1353 21.4641C16.1026 21.4268 16.0778 21.3833 16.0623 21.3362C16.0468 21.2891 16.0409 21.2393 16.045 21.1899C16.275 17.9999 18.525 15.0199 22.385 12.7899C22.4275 12.7651 22.4746 12.749 22.5234 12.7426C22.5723 12.7362 22.6219 12.7397 22.6694 12.7527C22.7169 12.7657 22.7613 12.7881 22.8001 12.8186C22.8388 12.849 22.8711 12.8868 22.895 12.9299C22.9198 12.9725 22.9359 13.0196 22.9423 13.0684C22.9487 13.1173 22.9452 13.1669 22.9322 13.2144C22.9192 13.2619 22.8968 13.3063 22.8663 13.345C22.8359 13.3838 22.798 13.416 22.755 13.4399C19.115 15.5399 17.005 18.3099 16.755 21.2399C16.75 21.3329 16.7101 21.4205 16.6434 21.4853C16.5767 21.5502 16.488 21.5875 16.395 21.5899Z" fill="#2737CE"/>
<path d="M37.4249 31.5001C33.3404 31.5803 29.3029 30.6166 25.6949 28.7001C22.4949 26.8501 20.6949 24.3701 20.6949 21.7001C20.6949 19.0301 22.4549 16.5601 25.6949 14.7001C32.1649 10.9701 42.6949 10.9701 49.1549 14.7001C52.3649 16.5501 54.1549 19.0301 54.1549 21.7001C54.1549 24.3701 52.3949 26.8401 49.1549 28.7001C45.5479 30.6191 41.5098 31.583 37.4249 31.5001ZM37.4249 12.6601C33.4724 12.5808 29.5653 13.5137 26.075 15.3701C23.075 17.0801 21.4849 19.3701 21.4849 21.7101C21.4849 24.0501 23.115 26.3401 26.075 28.0501C32.335 31.6601 42.525 31.6601 48.785 28.0501C51.785 26.3401 53.3749 24.0501 53.3749 21.7101C53.3749 19.3701 51.7449 17.0801 48.785 15.3701C45.2915 13.5124 41.3808 12.5795 37.4249 12.6601Z" fill="#2737CE"/>
<path d="M23.3449 26.82C23.2947 26.8222 23.2445 26.8135 23.1979 26.7945C23.1513 26.7755 23.1094 26.7467 23.0749 26.71C23.0395 26.6756 23.0114 26.6343 22.9922 26.5888C22.973 26.5433 22.9631 26.4944 22.9631 26.445C22.9631 26.3956 22.973 26.3467 22.9922 26.3012C23.0114 26.2557 23.0395 26.2145 23.0749 26.18C23.8741 25.4 24.7717 24.7276 25.7449 24.18C32.2149 20.44 42.7449 20.44 49.2049 24.18C50.1817 24.7268 51.0827 25.3992 51.8849 26.18C51.9517 26.2521 51.9888 26.3468 51.9888 26.445C51.9888 26.5433 51.9517 26.6379 51.8849 26.71C51.8504 26.7454 51.8092 26.7735 51.7637 26.7927C51.7182 26.8119 51.6693 26.8218 51.6199 26.8218C51.5705 26.8218 51.5216 26.8119 51.4761 26.7927C51.4306 26.7735 51.3894 26.7454 51.3549 26.71C50.5992 25.9777 49.7522 25.3458 48.8349 24.83C42.5749 21.21 32.3849 21.21 26.1249 24.83C25.2034 25.3433 24.3557 25.9791 23.6049 26.72C23.5346 26.7859 23.4413 26.8218 23.3449 26.82Z" fill="#2737CE"/>
<path d="M6.505 15.72C6.40422 15.72 6.30756 15.68 6.2363 15.6087C6.16503 15.5374 6.125 15.4408 6.125 15.34V9.63C6.125 9.52922 6.16503 9.43256 6.2363 9.3613C6.30756 9.29003 6.40422 9.25 6.505 9.25C6.55445 9.24998 6.60339 9.25987 6.64894 9.27908C6.6945 9.2983 6.73574 9.32645 6.77023 9.36188C6.80472 9.3973 6.83177 9.4393 6.84976 9.48535C6.86776 9.5314 6.87634 9.58058 6.875 9.63V15.34C6.87634 15.3894 6.86776 15.4386 6.84976 15.4847C6.83177 15.5307 6.80472 15.5727 6.77023 15.6081C6.73574 15.6435 6.6945 15.6717 6.64894 15.6909C6.60339 15.7101 6.55445 15.72 6.505 15.72Z" fill="#2737CE"/>
<path d="M68.345 15.7202C68.2442 15.7202 68.1475 15.6801 68.0763 15.6089C68.005 15.5376 67.965 15.4409 67.965 15.3401V9.63016C67.956 9.57578 67.9591 9.52013 67.9738 9.46704C67.9886 9.41395 68.0147 9.36469 68.0503 9.32269C68.086 9.2807 68.1304 9.24698 68.1804 9.22385C68.2304 9.20071 68.2849 9.18872 68.34 9.18872C68.3951 9.18872 68.4495 9.20071 68.4995 9.22385C68.5495 9.24698 68.5939 9.2807 68.6296 9.32269C68.6652 9.36469 68.6914 9.41395 68.7061 9.46704C68.7209 9.52013 68.7239 9.57578 68.715 9.63016V15.3401C68.715 15.4392 68.6763 15.5344 68.6072 15.6054C68.5381 15.6764 68.444 15.7175 68.345 15.7202Z" fill="#2737CE"/>
<path d="M44.915 51.9401C44.816 51.9402 44.7208 51.9015 44.6498 51.8324C44.5788 51.7633 44.5376 51.6692 44.535 51.5701V42.3201C44.5261 42.2658 44.5291 42.2101 44.5439 42.157C44.5586 42.1039 44.5847 42.0547 44.6204 42.0127C44.6561 41.9707 44.7005 41.937 44.7505 41.9138C44.8005 41.8907 44.8549 41.8787 44.91 41.8787C44.9651 41.8787 45.0196 41.8907 45.0696 41.9138C45.1196 41.937 45.164 41.9707 45.1996 42.0127C45.2353 42.0547 45.2614 42.1039 45.2762 42.157C45.2909 42.2101 45.2939 42.2658 45.285 42.3201V51.5701C45.2825 51.6675 45.2427 51.7601 45.1739 51.829C45.105 51.8978 45.0124 51.9376 44.915 51.9401Z" fill="#2737CE"/>
<path d="M29.9449 51.9402C29.8459 51.9402 29.7507 51.9016 29.6797 51.8325C29.6087 51.7633 29.5675 51.6692 29.5649 51.5702V42.3202C29.5649 42.2194 29.605 42.1228 29.6762 42.0515C29.7475 41.9802 29.8442 41.9402 29.9449 41.9402C29.9944 41.9402 30.0433 41.9501 30.0889 41.9693C30.1344 41.9885 30.1757 42.0166 30.2102 42.0521C30.2447 42.0875 30.2717 42.1295 30.2897 42.1755C30.3077 42.2216 30.3163 42.2708 30.3149 42.3202V51.5702C30.3149 51.6188 30.3054 51.6669 30.2868 51.7118C30.2682 51.7567 30.2409 51.7975 30.2066 51.8318C30.1722 51.8662 30.1314 51.8935 30.0865 51.912C30.0416 51.9306 29.9935 51.9402 29.9449 51.9402Z" fill="#2737CE"/>
<path d="M17.485 48.72C17.3859 48.72 17.2907 48.6813 17.2197 48.6122C17.1488 48.5431 17.1076 48.449 17.105 48.35V39.35C17.105 39.2492 17.145 39.1525 17.2163 39.0813C17.2875 39.01 17.3842 38.97 17.485 38.97C17.5344 38.97 17.5834 38.9798 17.6289 38.9991C17.6745 39.0183 17.7157 39.0464 17.7502 39.0818C17.7847 39.1173 17.8117 39.1593 17.8297 39.2053C17.8477 39.2514 17.8563 39.3006 17.855 39.35V48.35C17.855 48.4481 17.816 48.5422 17.7466 48.6116C17.6772 48.681 17.5831 48.72 17.485 48.72Z" fill="#2737CE"/>
<path d="M6.50503 46.1502C6.4069 46.1502 6.31278 46.1112 6.24339 46.0418C6.174 45.9724 6.13502 45.8783 6.13502 45.7802V33.7802C6.13369 33.7307 6.14227 33.6815 6.16026 33.6355C6.17826 33.5894 6.2053 33.5475 6.23979 33.5121C6.27428 33.4766 6.31553 33.4485 6.36108 33.4293C6.40664 33.41 6.45558 33.4001 6.50503 33.4001C6.60581 33.4001 6.70246 33.4402 6.77373 33.5114C6.84499 33.5827 6.88502 33.6794 6.88502 33.7802V45.7802C6.88242 45.8792 6.84123 45.9733 6.77025 46.0424C6.69926 46.1115 6.6041 46.1502 6.50503 46.1502Z" fill="#2737CE"/>
<path d="M68.345 46.03C68.2955 46.0313 68.2463 46.0227 68.2003 46.0047C68.1542 45.9867 68.1123 45.9597 68.0769 45.9252C68.0414 45.8907 68.0133 45.8494 67.9941 45.8039C67.9748 45.7583 67.9649 45.7094 67.965 45.66V33.6599C67.956 33.6056 67.9591 33.5499 67.9738 33.4968C67.9886 33.4437 68.0147 33.3945 68.0503 33.3525C68.086 33.3105 68.1304 33.2768 68.1804 33.2536C68.2304 33.2305 68.2849 33.2185 68.34 33.2185C68.3951 33.2185 68.4495 33.2305 68.4995 33.2536C68.5495 33.2768 68.5939 33.3105 68.6296 33.3525C68.6652 33.3945 68.6914 33.4437 68.7061 33.4968C68.7209 33.5499 68.7239 33.6056 68.715 33.6599V45.66C68.715 45.7086 68.7054 45.7566 68.6868 45.8015C68.6682 45.8464 68.6409 45.8872 68.6066 45.9216C68.5722 45.9559 68.5314 45.9832 68.4865 46.0018C68.4417 46.0204 68.3936 46.03 68.345 46.03Z" fill="#2737CE"/>
<path d="M52.4249 49.6301C52.3755 49.6315 52.3263 49.6229 52.2803 49.6049C52.2342 49.5869 52.1922 49.5598 52.1568 49.5253C52.1214 49.4908 52.0932 49.4496 52.074 49.4041C52.0548 49.3585 52.0449 49.3096 52.0449 49.2601V40.0001C52.0449 39.8993 52.085 39.8027 52.1562 39.7314C52.2275 39.6602 52.3241 39.6201 52.4249 39.6201C52.4744 39.6201 52.5233 39.63 52.5689 39.6492C52.6144 39.6684 52.6557 39.6966 52.6902 39.732C52.7246 39.7674 52.7517 39.8094 52.7697 39.8555C52.7877 39.9015 52.7963 39.9507 52.7949 40.0001V49.2601C52.7963 49.3091 52.7877 49.3578 52.7696 49.4033C52.7515 49.4488 52.7243 49.4902 52.6896 49.5248C52.655 49.5595 52.6137 49.5867 52.5681 49.6048C52.5226 49.6229 52.4739 49.6315 52.4249 49.6301Z" fill="#2737CE"/>
</svg>
