<svg width="78" height="51" viewBox="0 0 78 51" fill="none" xmlns="http://www.w3.org/2000/svg">
<path d="M47.0971 43.8672C39.0971 43.8672 31.2971 42.0572 25.4971 38.7072C19.6971 35.3572 16.4971 30.8472 16.4971 26.0472C16.4971 21.2472 19.7071 16.7472 25.4971 13.3772C37.3871 6.51718 56.7271 6.51718 68.6171 13.3772C74.4471 16.7472 77.6171 21.2372 77.6171 26.0472C77.6171 30.8572 74.4071 35.3372 68.6171 38.7072C67.0413 39.6138 65.3922 40.3866 63.6871 41.0172C63.6418 41.035 63.5934 41.0437 63.5448 41.0427C63.4961 41.0418 63.4481 41.0313 63.4035 41.0118C63.3589 40.9923 63.3186 40.9641 63.2849 40.929C63.2512 40.8939 63.2248 40.8525 63.2071 40.8072C63.1708 40.7143 63.1724 40.6108 63.2117 40.5192C63.251 40.4275 63.3248 40.355 63.4171 40.3172C65.0861 39.6971 66.7015 38.9412 68.2471 38.0572C73.8371 34.8272 76.9071 30.5672 76.9071 26.0572C76.9071 21.5472 73.8371 17.2672 68.2471 14.0572C56.5671 7.30717 37.5571 7.30717 25.8771 14.0572C20.2871 17.2872 17.2071 21.5472 17.2071 26.0572C17.2071 30.5672 20.2871 34.8372 25.8771 38.0572C33.5071 42.4672 44.7371 44.1672 55.1671 42.4772C55.2652 42.4613 55.3657 42.485 55.4463 42.5431C55.5269 42.6013 55.5812 42.6891 55.5971 42.7872C55.613 42.8853 55.5893 42.9857 55.5311 43.0664C55.473 43.147 55.3852 43.2013 55.2871 43.2172C52.5789 43.6533 49.8401 43.8707 47.0971 43.8672Z" fill="#2737CE"/>
<path d="M26.0871 13.8473C26.0201 13.851 25.9536 13.8335 25.8971 13.7973L23.4071 12.3673C23.3638 12.3423 23.3258 12.3091 23.2953 12.2695C23.2648 12.2298 23.2424 12.1846 23.2294 12.1363C23.2164 12.088 23.213 12.0376 23.2195 11.988C23.226 11.9384 23.2422 11.8906 23.2671 11.8473C23.2921 11.8039 23.3253 11.766 23.3649 11.7355C23.4046 11.705 23.4498 11.6826 23.4981 11.6696C23.5464 11.6566 23.5968 11.6532 23.6464 11.6597C23.6959 11.6662 23.7438 11.6823 23.7871 11.7073L26.2771 13.1473C26.3631 13.1992 26.425 13.283 26.4494 13.3805C26.4738 13.4779 26.4585 13.581 26.4071 13.6673C26.3748 13.7232 26.3281 13.7695 26.2718 13.8011C26.2155 13.8328 26.1517 13.8488 26.0871 13.8473Z" fill="#2737CE"/>
<path d="M20.757 17.8072C20.69 17.8108 20.6235 17.7934 20.567 17.7572L17.317 15.8772C17.2739 15.8533 17.2361 15.821 17.2056 15.7823C17.1752 15.7435 17.1528 15.6991 17.1398 15.6516C17.1267 15.6041 17.1233 15.5545 17.1297 15.5056C17.1361 15.4568 17.1522 15.4097 17.177 15.3672C17.2009 15.3241 17.2332 15.2863 17.2719 15.2558C17.3107 15.2254 17.3551 15.203 17.4026 15.19C17.4501 15.1769 17.4997 15.1735 17.5485 15.1799C17.5974 15.1863 17.6445 15.2024 17.687 15.2272L20.947 17.1072C21.033 17.1591 21.0949 17.2429 21.1193 17.3403C21.1437 17.4378 21.1285 17.5409 21.077 17.6272C21.0447 17.6831 20.998 17.7294 20.9417 17.761C20.8854 17.7927 20.8216 17.8086 20.757 17.8072Z" fill="#2737CE"/>
<path d="M15.6971 14.5772C15.0005 14.5893 14.3123 14.4241 13.6971 14.0972L0.937073 6.72717C0.661042 6.6198 0.423896 6.43154 0.256683 6.18707C0.0894704 5.94261 0 5.65336 0 5.35718C0 5.061 0.0894704 4.77171 0.256683 4.52725C0.423896 4.28279 0.661042 4.09453 0.937073 3.98715L7.00708 0.477173C7.6271 0.163465 8.31222 0 9.00708 0C9.70194 0 10.3871 0.163465 11.0071 0.477173L23.7571 7.84717C24.0331 7.95454 24.2703 8.14281 24.4375 8.38727C24.6047 8.63173 24.6942 8.92098 24.6942 9.21716C24.6942 9.51334 24.6047 9.80263 24.4375 10.0471C24.2703 10.2916 24.0331 10.4798 23.7571 10.5872L17.6971 14.1272C17.0791 14.4437 16.3911 14.5985 15.6971 14.5772ZM9.01709 0.747162C8.45049 0.735174 7.88997 0.865852 7.38708 1.12717L1.31708 4.63718C1.15503 4.67564 1.01072 4.76763 0.90744 4.89828C0.804162 5.02894 0.747955 5.19063 0.747955 5.35718C0.747955 5.52373 0.804162 5.68538 0.90744 5.81604C1.01072 5.9467 1.15503 6.03872 1.31708 6.07718L14.0771 13.4472C14.5818 13.699 15.1381 13.83 15.7021 13.83C16.2661 13.83 16.8224 13.699 17.3271 13.4472L23.3971 9.93716C23.545 9.87619 23.6744 9.77772 23.7726 9.65146C23.8708 9.5252 23.9344 9.3755 23.9571 9.21716C23.9571 8.96716 23.7571 8.70716 23.3971 8.49716L10.6371 1.12717C10.1373 0.86708 9.58036 0.736426 9.01709 0.747162Z" fill="#2737CE"/>
<path d="M15.7071 20.9873C15.0109 20.9963 14.3234 20.8314 13.7071 20.5073L0.937086 13.1273C0.673828 13.0028 0.448721 12.8101 0.285169 12.5692C0.121618 12.3283 0.0256017 12.0479 0.00709322 11.7573V5.34729C0.00575695 5.29787 0.0143362 5.24869 0.0323313 5.20264C0.0503263 5.15659 0.0773684 5.11459 0.11186 5.07916C0.146352 5.04374 0.187613 5.01558 0.233167 4.99637C0.278722 4.97715 0.327646 4.96727 0.377088 4.96729C0.477871 4.96729 0.574532 5.00732 0.645796 5.07858C0.717059 5.14985 0.757093 5.24651 0.757093 5.34729V11.7573C0.757093 12.0073 0.957091 12.2673 1.31709 12.4773L14.0771 19.8473C14.8517 20.2314 15.7367 20.3305 16.5771 20.1273C16.6251 20.1155 16.6749 20.1133 16.7237 20.1211C16.7725 20.1288 16.8192 20.1463 16.8612 20.1724C16.9031 20.1985 16.9394 20.2327 16.9679 20.273C16.9964 20.3134 17.0165 20.359 17.0271 20.4073C17.0482 20.504 17.0308 20.6051 16.9785 20.6891C16.9262 20.7732 16.8432 20.8335 16.7471 20.8573C16.4066 20.9405 16.0576 20.9841 15.7071 20.9873Z" fill="#2737CE"/>
<path d="M47.0571 39.0471C41.6008 39.1528 36.2076 37.8655 31.3871 35.3071C27.1371 32.8471 24.7971 29.5571 24.7971 26.0471C24.7971 22.5371 27.1371 19.2371 31.3871 16.7771C40.0271 11.7771 54.0871 11.7771 62.7271 16.7771C66.9871 19.2371 69.3271 22.5271 69.3271 26.0471C69.3271 29.5671 66.9771 32.8471 62.7271 35.3071C57.9069 37.8664 52.5136 39.1536 47.0571 39.0471ZM47.0571 13.7771C41.733 13.6737 36.4705 14.93 31.7671 17.4271C27.7671 19.7471 25.5471 22.8071 25.5471 26.0471C25.5471 29.2871 27.7571 32.3371 31.7671 34.6571C40.1971 39.5271 53.9171 39.5271 62.3471 34.6571C66.3471 32.3371 68.5771 29.2771 68.5771 26.0471C68.5771 22.8171 66.3671 19.7471 62.3471 17.4271C57.6441 14.9291 52.3814 13.6728 47.0571 13.7771Z" fill="#2737CE"/>
<path d="M47.0571 50.8771C39.2471 50.8771 31.4471 49.1671 25.4971 45.7271C19.5471 42.2871 16.4971 37.8671 16.4971 33.0671V26.0671C16.4881 26.0128 16.4912 25.9571 16.5059 25.904C16.5207 25.8509 16.5468 25.8017 16.5825 25.7597C16.6182 25.7177 16.6625 25.684 16.7125 25.6608C16.7625 25.6377 16.817 25.6257 16.8721 25.6257C16.9272 25.6257 16.9816 25.6377 17.0316 25.6608C17.0816 25.684 17.126 25.7177 17.1617 25.7597C17.1973 25.8017 17.2235 25.8509 17.2382 25.904C17.253 25.9571 17.256 26.0128 17.2471 26.0671V33.0671C17.2471 37.5871 20.3271 41.8571 25.9171 45.0671C37.5971 51.8171 56.6071 51.8171 68.2871 45.0671C73.6271 41.9871 76.7071 37.9071 76.9371 33.5771V26.0371C76.9282 25.9828 76.9312 25.9271 76.9459 25.874C76.9607 25.8209 76.9868 25.7717 77.0224 25.7297C77.0581 25.6877 77.1025 25.6539 77.1525 25.6308C77.2025 25.6077 77.257 25.5957 77.3121 25.5957C77.3672 25.5957 77.4216 25.6077 77.4716 25.6308C77.5216 25.6539 77.566 25.6877 77.6017 25.7297C77.6373 25.7717 77.6635 25.8209 77.6782 25.874C77.693 25.9271 77.696 25.9828 77.6871 26.0371V33.5971C77.4371 38.2071 74.2271 42.4971 68.6871 45.7171C62.6371 49.1271 54.8671 50.8771 47.0571 50.8771Z" fill="#2737CE"/>
<path d="M67.7471 29.2873C67.6812 29.2885 67.6162 29.2725 67.5583 29.2409C67.5005 29.2094 67.4518 29.1633 67.4172 29.1073C66.1515 27.1501 64.4062 25.5494 62.3471 24.4573C56.7571 21.2173 48.5472 20.0173 40.9272 21.3073C40.8786 21.3152 40.8289 21.3134 40.781 21.3021C40.7331 21.2908 40.6879 21.2701 40.648 21.2413C40.608 21.2125 40.5742 21.1762 40.5483 21.1343C40.5224 21.0924 40.505 21.0459 40.4971 20.9973C40.4893 20.9487 40.491 20.899 40.5024 20.8511C40.5137 20.8032 40.5343 20.758 40.5631 20.7181C40.5919 20.6781 40.6283 20.6443 40.6701 20.6184C40.712 20.5925 40.7586 20.5752 40.8072 20.5673C48.5872 19.2473 56.9871 20.4873 62.7271 23.7973C64.8936 24.9607 66.7305 26.6532 68.0671 28.7173C68.116 28.8042 68.1298 28.9065 68.1056 29.0032C68.0814 29.0999 68.0212 29.1836 67.9371 29.2373C67.8801 29.2723 67.814 29.2897 67.7471 29.2873Z" fill="#2737CE"/>
<path d="M28.377 26.8473C28.3247 26.8471 28.2729 26.8364 28.2248 26.8158C28.1767 26.7952 28.1332 26.7651 28.097 26.7273C28.028 26.6564 27.9894 26.5613 27.9894 26.4623C27.9894 26.3633 28.028 26.2683 28.097 26.1973C29.0948 25.2787 30.1915 24.4738 31.367 23.7973C32.8171 22.9885 34.3406 22.3188 35.917 21.7973C35.9636 21.7816 36.0129 21.7751 36.062 21.7784C36.1111 21.7817 36.1591 21.7946 36.2032 21.8164C36.2473 21.8383 36.2867 21.8686 36.3191 21.9056C36.3515 21.9427 36.3763 21.9857 36.392 22.0323C36.4078 22.0789 36.4142 22.1282 36.4109 22.1773C36.4076 22.2264 36.3947 22.2744 36.3729 22.3185C36.3511 22.3626 36.3208 22.402 36.2838 22.4344C36.2467 22.4668 36.2036 22.4916 36.157 22.5073C34.6227 23.0219 33.145 23.692 31.747 24.5073C30.6149 25.1461 29.5612 25.9146 28.607 26.7973C28.5384 26.8401 28.4572 26.8577 28.377 26.8473Z" fill="#2737CE"/>
<path d="M24.3372 12.8373C24.2381 12.8373 24.1429 12.7987 24.0719 12.7296C24.0009 12.6604 23.9598 12.5663 23.9572 12.4673V9.2673C23.9717 9.17836 24.0174 9.09748 24.0861 9.03912C24.1548 8.98077 24.242 8.94873 24.3322 8.94873C24.4223 8.94873 24.5095 8.98077 24.5782 9.03912C24.6468 9.09748 24.6926 9.17836 24.7072 9.2673V12.4673C24.7046 12.5646 24.6648 12.6573 24.596 12.7261C24.5271 12.795 24.4345 12.8348 24.3372 12.8373Z" fill="#2737CE"/>
<path d="M17.4971 19.5772C17.3997 19.5746 17.3071 19.5349 17.2382 19.466C17.1694 19.3972 17.1296 19.3045 17.1271 19.2072V15.5572C17.1182 15.5028 17.1212 15.4471 17.1359 15.394C17.1507 15.341 17.1768 15.2917 17.2125 15.2497C17.2481 15.2077 17.2925 15.174 17.3425 15.1508C17.3925 15.1277 17.447 15.1157 17.5021 15.1157C17.5572 15.1157 17.6116 15.1277 17.6616 15.1508C17.7116 15.174 17.756 15.2077 17.7917 15.2497C17.8273 15.2917 17.8535 15.341 17.8682 15.394C17.883 15.4471 17.886 15.5028 17.8771 15.5572V19.2072C17.8745 19.3062 17.8333 19.4003 17.7623 19.4694C17.6913 19.5385 17.5961 19.5772 17.4971 19.5772Z" fill="#2737CE"/>
<path d="M13.8871 17.2971C13.7863 17.2971 13.6896 17.2571 13.6184 17.1858C13.5471 17.1146 13.5071 17.0179 13.5071 16.9171V13.7671C13.5071 13.7177 13.5169 13.6687 13.5362 13.6232C13.5554 13.5776 13.5835 13.5364 13.619 13.5019C13.6544 13.4674 13.6964 13.4403 13.7424 13.4224C13.7885 13.4044 13.8377 13.3958 13.8871 13.3971C13.936 13.3957 13.9848 13.4044 14.0303 13.4225C14.0758 13.4406 14.1172 13.4678 14.1518 13.5024C14.1864 13.5371 14.2136 13.5784 14.2317 13.6239C14.2498 13.6694 14.2585 13.7182 14.2571 13.7671V16.9171C14.2584 16.9666 14.2498 17.0157 14.2318 17.0618C14.2138 17.1078 14.1868 17.1498 14.1523 17.1852C14.1178 17.2207 14.0766 17.2488 14.031 17.268C13.9855 17.2872 13.9365 17.2972 13.8871 17.2971Z" fill="#2737CE"/>
<path d="M4.97712 5.46712C4.89283 5.47012 4.81006 5.44422 4.7425 5.39373C4.67494 5.34324 4.62666 5.27119 4.60566 5.18951C4.58465 5.10782 4.59217 5.02142 4.62699 4.9446C4.66181 4.86779 4.72185 4.80518 4.79713 4.76714L8.33713 2.76714C8.42249 2.7188 8.52321 2.70532 8.61826 2.72955C8.71332 2.75378 8.79532 2.81381 8.84711 2.89712C8.89511 2.98517 8.90736 3.08834 8.88129 3.18517C8.85522 3.28201 8.79284 3.36508 8.70713 3.41714L5.16712 5.41714C5.10878 5.44896 5.04357 5.4661 4.97712 5.46712Z" fill="#2737CE"/>
</svg>
