<svg width="75" height="72" viewBox="0 0 75 72" fill="none" xmlns="http://www.w3.org/2000/svg">
<path d="M20.9041 71.079H20.8242C12.2342 69.079 5.66414 65.309 2.30414 60.349C0.850616 58.3009 0.0521903 55.8602 0.0141602 53.349C0.0141602 53.2482 0.0541939 53.1516 0.125458 53.0803C0.196722 53.009 0.293352 52.969 0.394135 52.969C0.493174 52.9716 0.587287 53.0128 0.656403 53.0838C0.725518 53.1548 0.764194 53.2499 0.76416 53.349C0.800788 55.7152 1.55774 58.014 2.93414 59.939C6.09414 64.629 12.5841 68.399 20.7441 70.299L29.4542 57.569C29.4793 57.5215 29.5142 57.4798 29.5566 57.4468C29.599 57.4138 29.6479 57.3901 29.7001 57.3774C29.7523 57.3646 29.8067 57.3631 29.8595 57.373C29.9123 57.3828 29.9625 57.4037 30.0067 57.4343C30.0508 57.4649 30.088 57.5046 30.1157 57.5506C30.1434 57.5967 30.161 57.6481 30.1674 57.7015C30.1738 57.7548 30.1688 57.809 30.1527 57.8602C30.1366 57.9115 30.1099 57.9588 30.0742 57.999L21.2141 70.939C21.1769 70.9848 21.1295 71.0213 21.0757 71.0456C21.0219 71.0699 20.9631 71.0813 20.9041 71.079Z" fill="#2737CE"/>
<path d="M41.7242 70.4091C37.6874 70.4087 33.6631 69.9627 29.7242 69.0791C29.6281 69.0554 29.5451 68.9951 29.4928 68.911C29.4405 68.827 29.4231 68.7258 29.4442 68.6291C29.4537 68.581 29.4727 68.5353 29.5001 68.4946C29.5274 68.4539 29.5626 68.4191 29.6035 68.3921C29.6445 68.3651 29.6903 68.3465 29.7385 68.3374C29.7867 68.3284 29.8362 68.3289 29.8842 68.3391C37.6257 70.0804 45.6554 70.0975 53.4042 68.3891C65.5642 65.6491 73.7342 58.7891 73.7342 51.3291C73.7253 51.2748 73.7283 51.2191 73.743 51.166C73.7578 51.1129 73.7839 51.0637 73.8196 51.0217C73.8553 50.9797 73.8996 50.9459 73.9496 50.9228C73.9996 50.8997 74.0541 50.8877 74.1092 50.8877C74.1643 50.8877 74.2187 50.8997 74.2687 50.9228C74.3187 50.9459 74.3631 50.9797 74.3988 51.0217C74.4345 51.0637 74.4606 51.1129 74.4753 51.166C74.4901 51.2191 74.4931 51.2748 74.4842 51.3291C74.4842 59.2691 66.2742 66.2591 53.5642 69.1191C49.6775 69.9865 45.7065 70.4192 41.7242 70.4091Z" fill="#2737CE"/>
<path d="M20.9042 25.629H20.8242C12.2342 23.629 5.66423 19.859 2.30423 14.899C-0.935774 10.099 -0.755754 4.89901 2.82425 0.149012C2.86953 0.0913899 2.93013 0.0476978 2.99911 0.0229364C3.06809 -0.00182492 3.14264 -0.00665274 3.21423 0.00901279L12.3042 2.30902C12.4006 2.33487 12.483 2.39761 12.5335 2.48368C12.584 2.56975 12.5987 2.67225 12.5742 2.76901C12.5484 2.86541 12.4856 2.94776 12.3996 2.99828C12.3135 3.0488 12.211 3.06343 12.1142 3.03901L3.27423 0.799014C0.0442276 5.18901 -0.0757687 10.039 2.93423 14.479C6.09423 19.159 12.5842 22.929 20.7442 24.839L32.1842 8.11901L17.0342 4.26901C16.9869 4.25732 16.9423 4.23639 16.9031 4.20741C16.8639 4.17843 16.8308 4.14198 16.8057 4.10016C16.7806 4.05834 16.764 4.01197 16.7569 3.96372C16.7498 3.91547 16.7523 3.86629 16.7642 3.81901C16.7902 3.72215 16.8525 3.63901 16.9382 3.58687C17.0238 3.53473 17.1263 3.51759 17.2242 3.53901L32.8942 7.53901C32.9521 7.55535 33.0055 7.58452 33.0505 7.62434C33.0955 7.66416 33.131 7.71361 33.1542 7.76901C33.1788 7.82409 33.1915 7.88371 33.1915 7.94401C33.1915 8.00431 33.1788 8.06394 33.1542 8.11901L21.2542 25.489C21.2138 25.5416 21.16 25.5823 21.0984 25.6069C21.0368 25.6316 20.9698 25.6392 20.9042 25.629Z" fill="#2737CE"/>
<path d="M53.4442 41.0991C53.3584 41.1011 53.2747 41.0733 53.2072 41.0204C53.1397 40.9675 53.0927 40.8928 53.0742 40.8091C53.056 40.7113 53.0758 40.6101 53.1297 40.5265C53.1837 40.4428 53.2675 40.3829 53.3641 40.3591C63.2441 38.1291 70.5542 33.2591 72.9042 27.3591C73.5961 25.6193 73.8326 23.7317 73.5911 21.875C73.3496 20.0183 72.6381 18.254 71.5241 16.7491C65.4341 7.74909 48.1042 2.9591 32.0742 5.8591C32.0249 5.86771 31.9744 5.86653 31.9256 5.8556C31.8768 5.84468 31.8307 5.82423 31.7898 5.79543C31.7489 5.76663 31.7142 5.73004 31.6874 5.68777C31.6607 5.6455 31.6426 5.59838 31.6342 5.5491C31.6255 5.50116 31.6264 5.45198 31.6368 5.40439C31.6473 5.3568 31.667 5.31174 31.6949 5.27178C31.7227 5.23183 31.7582 5.19778 31.7993 5.17158C31.8403 5.14538 31.8862 5.12754 31.9341 5.1191C48.2341 2.1191 65.9341 7.1191 72.1441 16.3291C73.326 17.9361 74.08 19.8171 74.3354 21.7955C74.5908 23.7738 74.3392 25.7847 73.6042 27.6391C71.1542 33.8091 63.6541 38.8491 53.5241 41.1391L53.4442 41.0991Z" fill="#2737CE"/>
<path d="M41.7742 42.3792C37.7073 42.3861 33.6523 41.9401 29.6842 41.0491C29.6245 41.0352 29.5691 41.007 29.5227 40.9669C29.4763 40.9269 29.4402 40.8762 29.4176 40.8192C29.395 40.7623 29.3866 40.7007 29.3929 40.6397C29.3993 40.5787 29.4203 40.5202 29.4542 40.4691L40.5442 24.2692C40.6118 24.1862 40.6568 24.0872 40.6748 23.9818C40.6929 23.8763 40.6833 23.768 40.647 23.6673C40.6108 23.5667 40.5491 23.4771 40.468 23.4073C40.3869 23.3375 40.2891 23.2899 40.1842 23.2692L34.7742 21.8991C34.7198 21.894 34.6673 21.8771 34.62 21.8498C34.5728 21.8224 34.532 21.7852 34.5004 21.7407C34.4688 21.6962 34.4472 21.6454 34.437 21.5917C34.4268 21.5381 34.4283 21.4829 34.4414 21.4299C34.4545 21.3769 34.4788 21.3273 34.5127 21.2846C34.5467 21.2418 34.5894 21.2069 34.6381 21.1822C34.6868 21.1574 34.7402 21.1434 34.7947 21.1412C34.8493 21.1389 34.9037 21.1485 34.9542 21.1691L40.3642 22.5391C40.5782 22.5927 40.7762 22.6972 40.9412 22.8436C41.1062 22.9901 41.2334 23.1743 41.312 23.3805C41.3905 23.5867 41.4181 23.8088 41.3924 24.0279C41.3666 24.2471 41.2884 24.4568 41.1642 24.6391L30.3842 40.3891C35.075 41.3831 39.8761 41.7563 44.6642 41.4991C44.7633 41.4964 44.8596 41.5325 44.9324 41.5998C45.0053 41.667 45.049 41.7601 45.0542 41.8591C45.0569 41.9078 45.05 41.9564 45.0338 42.0023C45.0177 42.0483 44.9926 42.0906 44.9601 42.1268C44.9276 42.163 44.8883 42.1925 44.8443 42.2135C44.8004 42.2345 44.7528 42.2466 44.7042 42.2491C43.7242 42.3291 42.7442 42.3792 41.7742 42.3792Z" fill="#2737CE"/>
<path d="M32.8042 36.6191C32.7547 36.6204 32.7056 36.6118 32.6595 36.5938C32.6135 36.5759 32.5715 36.5488 32.5361 36.5143C32.5006 36.4798 32.4725 36.4386 32.4533 36.393C32.4341 36.3475 32.4242 36.2985 32.4242 36.2491V7.86909C32.4388 7.78015 32.4845 7.69928 32.5532 7.64092C32.6219 7.58257 32.7091 7.55054 32.7992 7.55054C32.8893 7.55054 32.9765 7.58257 33.0452 7.64092C33.1139 7.69928 33.1596 7.78015 33.1742 7.86909V36.2491C33.1742 36.2977 33.1646 36.3458 33.146 36.3907C33.1274 36.4356 33.1002 36.4764 33.0658 36.5107C33.0314 36.5451 32.9907 36.5723 32.9458 36.5909C32.9009 36.6095 32.8528 36.6191 32.8042 36.6191Z" fill="#2737CE"/>
<path d="M0.394165 53.6991C0.297778 53.6965 0.206217 53.6564 0.138977 53.5872C0.0717368 53.5181 0.0341445 53.4255 0.0341797 53.3291V7.86909C0.0487528 7.78015 0.094455 7.69928 0.163147 7.64092C0.231839 7.58257 0.319048 7.55054 0.40918 7.55054C0.499311 7.55054 0.58652 7.58257 0.655212 7.64092C0.723904 7.69928 0.769607 7.78015 0.78418 7.86909V53.3291C0.784253 53.3794 0.774074 53.4292 0.754242 53.4755C0.73441 53.5217 0.705328 53.5634 0.668823 53.5981C0.632319 53.6327 0.589156 53.6595 0.541931 53.6769C0.494706 53.6943 0.44441 53.7018 0.394165 53.6991Z" fill="#2737CE"/>
<path d="M29.7642 69.0791C29.7152 69.0805 29.6665 69.0719 29.621 69.0537C29.5755 69.0356 29.5341 69.0084 29.4995 68.9738C29.4649 68.9392 29.4377 68.8978 29.4195 68.8523C29.4014 68.8068 29.3928 68.7581 29.3942 68.7091V40.7091C29.3942 40.6605 29.4038 40.6124 29.4224 40.5675C29.4409 40.5226 29.4682 40.4818 29.5026 40.4475C29.5369 40.4131 29.5777 40.3859 29.6226 40.3673C29.6675 40.3487 29.7156 40.3391 29.7642 40.3391C29.8633 40.3391 29.9585 40.3777 30.0294 40.4469C30.1004 40.516 30.1416 40.6101 30.1442 40.7091V68.7091C30.1442 68.7586 30.1343 68.8075 30.1151 68.8531C30.0959 68.8986 30.0677 68.9398 30.0323 68.9743C29.9969 69.0088 29.9549 69.0359 29.9089 69.0539C29.8628 69.0719 29.8136 69.0804 29.7642 69.0791Z" fill="#2737CE"/>
<path d="M74.0342 51.6991C73.9368 51.6965 73.8442 51.6567 73.7754 51.5879C73.7065 51.519 73.6667 51.4264 73.6642 51.3291V23.3291C73.6788 23.2401 73.7245 23.1592 73.7932 23.1009C73.8618 23.0425 73.9491 23.0105 74.0392 23.0105C74.1293 23.0105 74.2165 23.0425 74.2852 23.1009C74.3539 23.1592 74.3996 23.2401 74.4142 23.3291V51.3291C74.4116 51.4281 74.3704 51.5222 74.2994 51.5913C74.2284 51.6604 74.1333 51.6991 74.0342 51.6991Z" fill="#2737CE"/>
<path d="M20.9042 71.0791C20.806 71.0791 20.7119 71.0402 20.6425 70.9708C20.5732 70.9014 20.5342 70.8073 20.5342 70.7092V25.2491C20.5342 25.151 20.5732 25.0569 20.6425 24.9875C20.7119 24.9181 20.806 24.8792 20.9042 24.8792C21.0032 24.8791 21.0984 24.9178 21.1694 24.9869C21.2404 25.056 21.2816 25.1501 21.2842 25.2491V70.7092C21.2816 70.8082 21.2404 70.9023 21.1694 70.9714C21.0984 71.0405 21.0032 71.0792 20.9042 71.0791Z" fill="#2737CE"/>
<path d="M60.4941 51.0792C60.3951 51.0792 60.2999 51.0405 60.2289 50.9714C60.1579 50.9023 60.1167 50.8082 60.1141 50.7092V38.5292C60.1141 38.4284 60.1542 38.3317 60.2254 38.2605C60.2967 38.1892 60.3934 38.1492 60.4941 38.1492C60.5436 38.1492 60.5925 38.159 60.6381 38.1783C60.6836 38.1975 60.7249 38.2256 60.7594 38.2611C60.7939 38.2965 60.8209 38.3385 60.8389 38.3845C60.8569 38.4306 60.8655 38.4797 60.8641 38.5292V50.7092C60.8641 50.8073 60.8252 50.9014 60.7558 50.9708C60.6864 51.0402 60.5923 51.0792 60.4941 51.0792Z" fill="#2737CE"/>
<path d="M56.5542 68.329C56.4534 68.329 56.3568 68.289 56.2855 68.2177C56.2142 68.1465 56.1742 68.0498 56.1742 67.949V61.399C56.1742 61.2983 56.2142 61.2016 56.2855 61.1303C56.3568 61.0591 56.4534 61.019 56.5542 61.019C56.6036 61.019 56.6526 61.0289 56.6981 61.0481C56.7437 61.0673 56.7849 61.0955 56.8194 61.1309C56.8539 61.1663 56.8809 61.2083 56.8989 61.2544C56.9169 61.3004 56.9255 61.3496 56.9242 61.399V67.949C56.9255 67.9985 56.9169 68.0477 56.8989 68.0937C56.8809 68.1398 56.8539 68.1817 56.8194 68.2172C56.7849 68.2526 56.7437 68.2807 56.6981 68.3C56.6526 68.3192 56.6036 68.3291 56.5542 68.329Z" fill="#2737CE"/>
<path d="M11.0342 61.0491C10.9848 61.0504 10.9356 61.0418 10.8895 61.0238C10.8435 61.0058 10.8015 60.9788 10.766 60.9443C10.7306 60.9098 10.7025 60.8686 10.6833 60.823C10.664 60.7775 10.6542 60.7285 10.6542 60.6791V50.2591C10.6453 50.2047 10.6483 50.149 10.663 50.0959C10.6778 50.0428 10.7039 49.9936 10.7396 49.9516C10.7752 49.9096 10.8196 49.8759 10.8696 49.8527C10.9196 49.8296 10.9741 49.8176 11.0292 49.8176C11.0843 49.8176 11.1387 49.8296 11.1887 49.8527C11.2387 49.8759 11.2831 49.9096 11.3188 49.9516C11.3545 49.9936 11.3806 50.0428 11.3953 50.0959C11.4101 50.149 11.4131 50.2047 11.4042 50.2591V60.6791C11.4042 60.7772 11.3652 60.8713 11.2958 60.9407C11.2264 61.0101 11.1323 61.0491 11.0342 61.0491Z" fill="#2737CE"/>
</svg>
