<svg width="251" height="251" viewBox="0 0 251 251" fill="none" xmlns="http://www.w3.org/2000/svg">
<g opacity="0.5">
<path d="M176.248 229.67C176.452 229.667 176.652 229.611 176.829 229.508L250.374 187.049C250.553 186.935 250.7 186.777 250.801 186.591C250.903 186.404 250.956 186.195 250.955 185.983C250.954 185.775 250.899 185.572 250.798 185.391C250.696 185.21 250.55 185.058 250.374 184.949L227.561 171.797C227.425 171.716 227.275 171.662 227.118 171.639C226.962 171.616 226.802 171.624 226.649 171.663C226.496 171.702 226.352 171.771 226.225 171.867C226.099 171.962 225.993 172.081 225.913 172.217C225.758 172.502 225.718 172.835 225.802 173.148C225.887 173.461 226.088 173.73 226.365 173.898L247.336 185.983L176.248 227.053L141.737 207.051C141.601 206.964 141.449 206.905 141.29 206.879C141.13 206.852 140.967 206.858 140.81 206.896C140.653 206.935 140.506 207.004 140.377 207.101C140.247 207.198 140.139 207.32 140.058 207.46C139.977 207.6 139.926 207.754 139.906 207.915C139.887 208.075 139.9 208.238 139.945 208.393C139.99 208.548 140.067 208.692 140.169 208.817C140.272 208.942 140.398 209.044 140.542 209.119L175.634 229.411C175.813 229.549 176.024 229.637 176.248 229.67Z" fill="white"/>
<path d="M118.601 196.291C118.812 196.286 119.017 196.227 119.198 196.119C119.38 196.012 119.53 195.859 119.635 195.677C119.715 195.539 119.767 195.387 119.788 195.229C119.809 195.072 119.798 194.911 119.756 194.758C119.713 194.604 119.641 194.461 119.543 194.336C119.444 194.21 119.322 194.106 119.183 194.029L3.66383 127.303L24.6349 115.218C24.7729 115.139 24.894 115.034 24.9913 114.909C25.0887 114.784 25.1604 114.64 25.2024 114.487C25.2445 114.334 25.2559 114.174 25.2362 114.017C25.2164 113.86 25.1659 113.708 25.0874 113.57C25.0089 113.432 24.9039 113.311 24.7786 113.213C24.6533 113.116 24.5101 113.044 24.3571 113.002C24.204 112.96 24.0442 112.949 23.8868 112.968C23.7293 112.988 23.5773 113.039 23.4394 113.117L0.626404 126.269C0.450005 126.378 0.304092 126.53 0.202377 126.711C0.10067 126.892 0.0465012 127.095 0.0447998 127.303C0.0440521 127.515 0.0969467 127.724 0.198631 127.91C0.300316 128.097 0.447472 128.255 0.626404 128.369L117.987 196.226C118.184 196.296 118.394 196.318 118.601 196.291Z" fill="white"/>
<path d="M176.248 250.964C176.439 251.012 176.638 251.012 176.829 250.964L250.374 208.343C250.552 208.236 250.7 208.085 250.802 207.903C250.904 207.722 250.957 207.517 250.955 207.309V185.886C250.955 185.568 250.829 185.264 250.605 185.04C250.381 184.816 250.077 184.69 249.76 184.69C249.44 184.69 249.132 184.815 248.903 185.038C248.673 185.261 248.54 185.565 248.532 185.886V206.598L176.248 248.347L2.46832 148.176V127.464C2.4599 127.144 2.32681 126.84 2.09744 126.616C1.86807 126.393 1.56055 126.268 1.24042 126.268C0.923325 126.268 0.619232 126.394 0.39502 126.618C0.170807 126.842 0.0448456 127.147 0.0448456 127.464V148.887C0.0434418 149.095 0.096283 149.3 0.198288 149.481C0.300293 149.663 0.447906 149.814 0.62645 149.921L175.634 250.964C175.835 251.012 176.046 251.012 176.248 250.964Z" fill="white"/>
<path d="M226.979 187.114C227.299 187.105 227.603 186.972 227.826 186.743C228.05 186.514 228.175 186.206 228.174 185.886V130.534C228.203 130.358 228.193 130.178 228.146 130.007C228.098 129.835 228.014 129.676 227.899 129.54C227.783 129.405 227.64 129.296 227.478 129.221C227.317 129.146 227.141 129.107 226.963 129.107C226.785 129.107 226.609 129.146 226.447 129.221C226.286 129.296 226.142 129.405 226.027 129.54C225.912 129.676 225.827 129.835 225.78 130.007C225.732 130.178 225.722 130.358 225.751 130.534V185.886C225.751 186.212 225.88 186.524 226.111 186.754C226.341 186.985 226.653 187.114 226.979 187.114Z" fill="white"/>
<path d="M125.516 187.114C125.836 187.105 126.141 186.972 126.364 186.743C126.587 186.514 126.712 186.206 126.712 185.886V130.534C126.741 130.358 126.731 130.178 126.683 130.007C126.636 129.835 126.551 129.676 126.436 129.54C126.321 129.405 126.177 129.296 126.016 129.221C125.854 129.146 125.678 129.107 125.5 129.107C125.322 129.107 125.146 129.146 124.985 129.221C124.823 129.296 124.68 129.405 124.564 129.54C124.449 129.676 124.365 129.835 124.317 130.007C124.27 130.178 124.26 130.358 124.289 130.534V185.886C124.289 186.212 124.418 186.524 124.648 186.754C124.878 186.985 125.191 187.114 125.516 187.114Z" fill="white"/>
<path d="M176.248 161.037C176.439 161.084 176.638 161.084 176.829 161.037L192.63 151.924C192.77 151.848 192.893 151.743 192.991 151.617C193.088 151.491 193.159 151.346 193.198 151.192C193.238 151.037 193.245 150.876 193.219 150.719C193.194 150.561 193.136 150.411 193.05 150.276C192.973 150.137 192.869 150.015 192.744 149.917C192.619 149.818 192.475 149.746 192.322 149.704C192.168 149.662 192.008 149.65 191.85 149.671C191.692 149.692 191.54 149.744 191.402 149.824L176.248 158.581L127.94 130.695L176.248 102.809L224.556 130.695L206.169 141.293C205.892 141.462 205.691 141.73 205.607 142.043C205.523 142.356 205.562 142.689 205.717 142.974C205.884 143.243 206.149 143.437 206.457 143.515C206.764 143.593 207.089 143.55 207.365 143.394L227.561 131.729C227.751 131.631 227.91 131.483 228.021 131.3C228.132 131.118 228.191 130.908 228.191 130.695C228.191 130.481 228.132 130.272 228.021 130.089C227.91 129.907 227.751 129.759 227.561 129.661L176.829 100.353C176.65 100.241 176.443 100.182 176.231 100.182C176.02 100.182 175.813 100.241 175.634 100.353L124.902 129.661C124.712 129.759 124.553 129.907 124.442 130.089C124.331 130.272 124.272 130.481 124.272 130.695C124.272 130.908 124.331 131.118 124.442 131.3C124.553 131.483 124.712 131.631 124.902 131.729L175.634 161.037C175.836 161.085 176.046 161.085 176.248 161.037Z" fill="white"/>
<path d="M125.516 111.049C125.707 111.097 125.907 111.097 126.098 111.049L176.829 81.7409C177.014 81.6382 177.168 81.4884 177.276 81.3067C177.384 81.1251 177.442 80.9181 177.443 80.7069C177.447 80.4902 177.392 80.2765 177.284 80.0887C177.176 79.9009 177.019 79.746 176.829 79.6406L126.098 50.365C125.919 50.2533 125.712 50.1941 125.5 50.1941C125.289 50.1941 125.082 50.2533 124.902 50.365L74.1711 79.6406C73.9817 79.746 73.8246 79.9009 73.7164 80.0887C73.6083 80.2765 73.5532 80.4902 73.5572 80.7069C73.559 80.9181 73.6168 81.1251 73.7246 81.3067C73.8325 81.4884 73.9866 81.6382 74.1711 81.7409L93.3004 92.792C93.4378 92.8722 93.5899 92.9241 93.7478 92.9448C93.9056 92.9655 94.066 92.9544 94.2195 92.9123C94.373 92.8701 94.5165 92.7978 94.6417 92.6995C94.7668 92.6011 94.8711 92.4787 94.9483 92.3396C95.0286 92.2021 95.0805 92.05 95.1012 91.8922C95.1219 91.7343 95.1108 91.574 95.0687 91.4205C95.0265 91.267 94.9542 91.1234 94.8559 90.9983C94.7575 90.8731 94.6351 90.7689 94.4959 90.6916L77.2085 80.7069L125.516 52.7885L173.824 80.7069L125.516 108.593L112.979 101.355C112.841 101.275 112.689 101.223 112.532 101.202C112.374 101.181 112.213 101.192 112.06 101.235C111.906 101.277 111.763 101.349 111.638 101.447C111.512 101.546 111.408 101.668 111.331 101.807C111.25 101.943 111.196 102.093 111.173 102.25C111.15 102.406 111.158 102.566 111.197 102.719C111.236 102.872 111.305 103.016 111.4 103.143C111.495 103.269 111.615 103.375 111.751 103.455L124.902 111.049C125.104 111.097 125.315 111.097 125.516 111.049Z" fill="white"/>
<path d="M74.7847 61.028C74.9911 61.0398 75.1957 60.983 75.3664 60.8665L126.13 31.5909C126.319 31.4855 126.477 31.3306 126.585 31.1428C126.693 30.955 126.748 30.7413 126.744 30.5246C126.746 30.3126 126.689 30.1043 126.581 29.9221C126.473 29.7399 126.317 29.5907 126.13 29.4906L109.101 19.6351C108.822 19.4817 108.493 19.4431 108.186 19.5276C107.878 19.612 107.615 19.8128 107.453 20.0875C107.373 20.225 107.321 20.3771 107.3 20.5349C107.28 20.6927 107.291 20.8531 107.333 21.0066C107.375 21.1601 107.447 21.3036 107.546 21.4288C107.644 21.554 107.766 21.6582 107.906 21.7354L123.125 30.5246L74.7847 58.4107L26.4769 30.5246L74.7847 2.63849L93.8171 13.5926C94.1016 13.7477 94.435 13.7872 94.7479 13.7029C95.0608 13.6187 95.3292 13.4172 95.4974 13.1402C95.5776 13.0027 95.6295 12.8506 95.6502 12.6928C95.6709 12.5349 95.6599 12.3746 95.6178 12.2211C95.5756 12.0676 95.5032 11.9241 95.4049 11.7989C95.3065 11.6737 95.1842 11.5695 95.045 11.4922L75.4634 0.182669C75.2788 0.0863968 75.0737 0.0361328 74.8656 0.0361328C74.6574 0.0361328 74.4524 0.0863968 74.2678 0.182669L23.5364 29.4906C23.3495 29.5907 23.1936 29.7399 23.0854 29.9221C22.9772 30.1043 22.9208 30.3126 22.9224 30.5246C22.9185 30.7413 22.9735 30.955 23.0817 31.1428C23.1898 31.3306 23.347 31.4855 23.5364 31.5909L74.2678 60.8665C74.4227 60.9653 74.6011 61.0211 74.7847 61.028Z" fill="white"/>
<path d="M74.7847 157.806C75.1018 157.806 75.4059 157.68 75.6302 157.455C75.8544 157.231 75.9803 156.927 75.9803 156.61V59.8327C76.0091 59.657 75.9993 59.4771 75.9516 59.3055C75.904 59.134 75.8197 58.9748 75.7044 58.8392C75.5891 58.7035 75.4457 58.5945 75.2841 58.5197C75.1225 58.4449 74.9466 58.4062 74.7686 58.4062C74.5905 58.4062 74.4146 58.4449 74.253 58.5197C74.0915 58.5945 73.948 58.7035 73.8328 58.8392C73.7175 58.9748 73.6331 59.134 73.5854 59.3055C73.5378 59.4771 73.5281 59.657 73.5569 59.8327V156.61C73.5568 156.77 73.5887 156.928 73.6508 157.075C73.7129 157.222 73.8039 157.356 73.9184 157.467C74.0328 157.579 74.1684 157.666 74.3172 157.724C74.466 157.782 74.625 157.81 74.7847 157.806Z" fill="white"/>
<path d="M24.0535 128.53C24.3735 128.522 24.6776 128.389 24.9009 128.159C25.1243 127.93 25.2491 127.623 25.249 127.302V30.525C25.2019 30.2376 25.0543 29.9762 24.8323 29.7877C24.6103 29.5991 24.3285 29.4956 24.0373 29.4956C23.746 29.4956 23.4642 29.5991 23.2423 29.7877C23.0203 29.9762 22.8726 30.2376 22.8255 30.525V127.302C22.8255 127.628 22.9549 127.94 23.1852 128.171C23.4155 128.401 23.7278 128.53 24.0535 128.53Z" fill="white"/>
<path d="M125.516 52.4655C125.836 52.4571 126.14 52.324 126.363 52.0946C126.587 51.8653 126.712 51.5577 126.712 51.2376V30.525C126.664 30.2376 126.517 29.9762 126.295 29.7877C126.073 29.5991 125.791 29.4956 125.5 29.4956C125.209 29.4956 124.927 29.5991 124.705 29.7877C124.483 29.9762 124.335 30.2376 124.288 30.525V51.2376C124.288 51.5633 124.417 51.8756 124.648 52.1059C124.878 52.3361 125.19 52.4655 125.516 52.4655Z" fill="white"/>
<path d="M176.248 215.614C176.568 215.605 176.872 215.472 177.095 215.243C177.318 215.013 177.443 214.706 177.443 214.386V159.809C177.396 159.522 177.248 159.26 177.026 159.072C176.804 158.883 176.523 158.78 176.231 158.78C175.94 158.78 175.658 158.883 175.436 159.072C175.214 159.26 175.067 159.522 175.02 159.809V214.386C175.02 214.711 175.149 215.024 175.379 215.254C175.61 215.484 175.922 215.614 176.248 215.614Z" fill="white"/>
<path d="M125.516 131.73C125.833 131.73 126.137 131.604 126.361 131.379C126.586 131.155 126.712 130.851 126.712 130.534V109.821C126.664 109.534 126.517 109.273 126.295 109.084C126.073 108.895 125.791 108.792 125.5 108.792C125.209 108.792 124.927 108.895 124.705 109.084C124.483 109.273 124.335 109.534 124.288 109.821V130.534C124.288 130.694 124.32 130.852 124.382 130.999C124.444 131.146 124.535 131.28 124.65 131.391C124.764 131.502 124.9 131.59 125.049 131.648C125.197 131.706 125.356 131.734 125.516 131.73Z" fill="white"/>
<path d="M176.248 102.453C176.568 102.445 176.872 102.312 177.095 102.082C177.318 101.853 177.443 101.545 177.443 101.225V80.5449C177.472 80.3692 177.462 80.1893 177.415 80.0177C177.367 79.8462 177.283 79.6871 177.167 79.5514C177.052 79.4157 176.909 79.3067 176.747 79.2319C176.585 79.1572 176.409 79.1184 176.231 79.1184C176.053 79.1184 175.877 79.1572 175.716 79.2319C175.554 79.3067 175.411 79.4157 175.296 79.5514C175.18 79.6871 175.096 79.8462 175.048 80.0177C175.001 80.1893 174.991 80.3692 175.02 80.5449V101.225C175.02 101.551 175.149 101.863 175.379 102.093C175.61 102.324 175.922 102.453 176.248 102.453Z" fill="white"/>
<path d="M176.248 250.964C176.562 250.956 176.861 250.827 177.084 250.605C177.306 250.382 177.435 250.083 177.443 249.769V228.345C177.396 228.058 177.248 227.796 177.026 227.608C176.804 227.419 176.523 227.316 176.231 227.316C175.94 227.316 175.658 227.419 175.436 227.608C175.214 227.796 175.067 228.058 175.02 228.345V249.769C175.028 250.089 175.161 250.393 175.391 250.616C175.62 250.839 175.927 250.964 176.248 250.964Z" fill="white"/>
</g>
</svg>
