<svg width="202" height="203" viewBox="0 0 202 203" fill="none" xmlns="http://www.w3.org/2000/svg">
<g opacity="0.5">
<path d="M130.129 181.911C111.742 181.911 93.5121 177.892 79.5903 169.828C67.9013 163.077 60.7303 154.488 58.839 144.926C58.8149 144.8 58.8157 144.671 58.8416 144.545C58.8675 144.42 58.9178 144.301 58.9898 144.195C59.0618 144.088 59.1539 143.998 59.261 143.927C59.3681 143.857 59.488 143.808 59.6139 143.784C59.7398 143.759 59.8692 143.76 59.9948 143.786C60.1203 143.812 60.2396 143.863 60.3457 143.935C60.4518 144.006 60.5427 144.099 60.6132 144.206C60.6837 144.313 60.7324 144.433 60.7565 144.559C62.5427 153.516 69.3985 161.659 80.5622 168.199C107.907 183.96 152.351 183.96 179.696 168.199C191.779 161.238 198.923 152.019 199.843 142.273C200.631 133.763 196.507 125.173 188.233 118.107C188.057 117.918 187.96 117.669 187.96 117.411C187.96 117.153 188.057 116.904 188.233 116.715C188.323 116.622 188.431 116.548 188.551 116.498C188.671 116.447 188.799 116.421 188.929 116.421C189.058 116.421 189.187 116.447 189.306 116.498C189.426 116.548 189.534 116.622 189.625 116.715C198.398 124.228 202.758 133.395 201.892 142.562C200.92 153.069 193.434 162.709 180.878 170.012C166.746 177.813 148.437 181.911 130.129 181.911Z" fill="white"/>
<path d="M130.129 202.584C111.742 202.584 93.5121 198.565 79.5904 190.527C65.6686 182.489 58.3663 172.14 58.3663 160.766V144.296C58.3663 144.038 58.4687 143.791 58.6509 143.609C58.8332 143.427 59.0804 143.324 59.3382 143.324C59.5984 143.324 59.8484 143.426 60.0348 143.607C60.2213 143.789 60.3295 144.036 60.3363 144.296V160.897C60.3363 171.404 67.5073 181.412 80.5623 188.951C107.907 204.711 152.351 204.711 179.696 188.951C192.829 181.412 199.922 171.457 199.922 160.897V140.356C199.898 140.213 199.906 140.067 199.945 139.928C199.984 139.788 200.052 139.659 200.146 139.548C200.24 139.438 200.356 139.35 200.488 139.289C200.619 139.228 200.762 139.197 200.907 139.197C201.051 139.197 201.194 139.228 201.326 139.289C201.457 139.35 201.574 139.438 201.667 139.548C201.761 139.659 201.83 139.788 201.868 139.928C201.907 140.067 201.915 140.213 201.892 140.356V160.897C201.892 172.166 194.353 182.752 180.668 190.658C166.982 198.565 148.437 202.584 130.129 202.584Z" fill="white"/>
<path d="M130.365 174.95C130.101 174.95 129.847 174.845 129.66 174.658C129.472 174.471 129.367 174.217 129.367 173.952C129.367 173.822 129.393 173.694 129.444 173.574C129.494 173.454 129.568 173.346 129.661 173.255C129.754 173.165 129.865 173.094 129.985 173.047C130.106 172.999 130.236 172.977 130.365 172.98C144.587 173.237 158.638 169.855 171.185 163.156C171.297 163.091 171.421 163.049 171.549 163.032C171.677 163.015 171.807 163.024 171.932 163.058C172.057 163.093 172.174 163.151 172.275 163.231C172.377 163.311 172.462 163.411 172.525 163.524C172.59 163.636 172.632 163.759 172.649 163.888C172.666 164.016 172.657 164.146 172.623 164.271C172.588 164.396 172.529 164.513 172.45 164.614C172.37 164.716 172.27 164.801 172.157 164.864C159.314 171.733 144.928 175.205 130.365 174.95Z" fill="white"/>
<path d="M118.177 142.51C99.6063 142.51 81.403 138.333 67.56 130.401C53.717 122.468 46.3359 112.013 46.3359 100.666C46.3359 89.3182 53.8746 78.8112 67.56 70.9047C95.4298 54.829 140.767 54.829 168.637 70.9047C182.323 78.7849 189.861 89.292 189.861 100.666C189.861 112.04 182.323 122.494 168.637 130.401C166.693 131.53 164.618 132.607 162.464 133.605C162.223 133.705 161.953 133.709 161.709 133.616C161.465 133.524 161.265 133.341 161.151 133.106C161.044 132.873 161.033 132.606 161.122 132.365C161.21 132.124 161.391 131.927 161.624 131.819C163.725 130.847 165.748 129.796 167.665 128.693C180.799 121.181 187.891 111.199 187.891 100.666C187.891 90.1325 180.72 80.1509 167.665 72.6121C140.347 56.8516 95.8763 56.8516 68.5319 72.6121C55.3981 80.1509 48.3059 90.1062 48.3059 100.666C48.3059 111.225 55.477 121.181 68.5319 128.693C89.5459 140.855 121.776 144.007 148.621 136.573C148.872 136.504 149.14 136.537 149.367 136.665C149.594 136.793 149.76 137.006 149.83 137.256C149.899 137.507 149.867 137.775 149.739 138.002C149.61 138.229 149.398 138.395 149.147 138.465C139.054 141.205 128.636 142.565 118.177 142.51Z" fill="white"/>
<path d="M118.099 163.314C99.7113 163.314 81.4817 159.295 67.56 151.257C53.6382 143.219 46.3358 132.87 46.3358 121.496V100.771C46.3124 100.628 46.3204 100.482 46.3591 100.342C46.3978 100.203 46.4664 100.074 46.5601 99.9633C46.6538 99.853 46.7704 99.7644 46.9018 99.7036C47.0331 99.6428 47.1761 99.6113 47.3209 99.6113C47.4656 99.6113 47.6086 99.6428 47.7399 99.7036C47.8713 99.7644 47.9879 99.853 48.0816 99.9633C48.1753 100.074 48.2439 100.203 48.2826 100.342C48.3214 100.482 48.3293 100.628 48.3059 100.771V121.496C48.3059 132.003 55.4769 142.011 68.5318 149.55C95.8763 165.31 140.321 165.31 167.665 149.55C180.799 142.011 187.891 132.055 187.891 121.496V100.955C187.891 100.69 187.996 100.436 188.184 100.249C188.371 100.062 188.625 99.9566 188.889 99.9566C189.019 99.9565 189.148 99.9826 189.268 100.033C189.387 100.084 189.496 100.157 189.586 100.251C189.677 100.344 189.748 100.454 189.795 100.575C189.842 100.696 189.865 100.825 189.861 100.955V121.496C189.861 132.791 182.323 143.35 168.637 151.257C154.952 159.163 136.407 163.314 118.099 163.314Z" fill="white"/>
<path d="M142.002 119.526C141.828 119.52 141.657 119.475 141.503 119.395L132.099 113.958C131.873 113.829 131.707 113.615 131.638 113.364C131.569 113.113 131.602 112.844 131.731 112.618C131.86 112.392 132.074 112.226 132.325 112.157C132.576 112.088 132.844 112.121 133.071 112.25L142.501 117.688C142.614 117.75 142.713 117.835 142.793 117.937C142.873 118.039 142.932 118.155 142.966 118.28C143.001 118.405 143.01 118.535 142.993 118.664C142.976 118.792 142.934 118.915 142.869 119.027C142.779 119.178 142.652 119.302 142.5 119.39C142.349 119.477 142.177 119.524 142.002 119.526Z" fill="white"/>
<path d="M148.884 115.56C148.71 115.553 148.54 115.508 148.385 115.428L138.981 109.991C138.756 109.854 138.592 109.636 138.524 109.382C138.455 109.127 138.487 108.856 138.613 108.625C138.75 108.406 138.965 108.248 139.215 108.185C139.464 108.121 139.729 108.156 139.953 108.283L149.383 113.721C149.496 113.784 149.596 113.868 149.676 113.97C149.756 114.072 149.814 114.189 149.849 114.313C149.883 114.438 149.892 114.568 149.875 114.697C149.858 114.825 149.816 114.949 149.751 115.06C149.661 115.211 149.534 115.336 149.383 115.423C149.231 115.51 149.059 115.557 148.884 115.56Z" fill="white"/>
<path d="M102.785 107.548C99.4924 107.605 96.2394 106.827 93.3283 105.289C92.0912 104.835 91.0233 104.012 90.2689 102.932C89.5145 101.851 89.11 100.565 89.11 99.2473C89.11 97.9295 89.5145 96.6435 90.2689 95.5631C91.0233 94.4826 92.0912 93.6598 93.3283 93.2058L106.015 85.9035C108.945 84.4133 112.185 83.6365 115.472 83.6365C118.758 83.6365 121.999 84.4133 124.928 85.9035C125.04 85.9673 125.139 86.0525 125.218 86.1544C125.297 86.2562 125.355 86.3727 125.389 86.4971C125.424 86.6215 125.433 86.7514 125.417 86.8793C125.401 87.0073 125.36 87.1309 125.296 87.243C125.232 87.3552 125.147 87.4536 125.045 87.5327C124.943 87.6119 124.827 87.6702 124.702 87.7044C124.578 87.7385 124.448 87.7478 124.32 87.7318C124.192 87.7157 124.068 87.6746 123.956 87.6108C121.331 86.2773 118.429 85.5822 115.485 85.5822C112.541 85.5822 109.638 86.2773 107.014 87.6108L94.3264 94.9132C93.3905 95.1887 92.5689 95.7597 91.9845 96.541C91.4001 97.3222 91.0843 98.2717 91.0843 99.2473C91.0843 100.223 91.4001 101.172 91.9845 101.954C92.5689 102.735 93.3905 103.306 94.3264 103.581C96.953 104.909 99.8548 105.6 102.798 105.6C105.741 105.6 108.642 104.909 111.269 103.581L117.599 99.904C117.831 99.7779 118.102 99.7458 118.356 99.8143C118.61 99.8828 118.829 100.047 118.965 100.272C119.031 100.384 119.073 100.507 119.09 100.635C119.106 100.764 119.097 100.894 119.063 101.019C119.029 101.144 118.97 101.26 118.89 101.362C118.81 101.464 118.711 101.549 118.598 101.611L112.241 105.289C109.332 106.834 106.078 107.611 102.785 107.548Z" fill="white"/>
<path d="M120.725 117.897C117.433 117.957 114.179 117.18 111.269 115.638C111.044 115.501 110.88 115.283 110.811 115.029C110.743 114.774 110.775 114.503 110.901 114.272C111.037 114.053 111.253 113.896 111.502 113.832C111.752 113.768 112.017 113.804 112.241 113.931C114.869 115.252 117.77 115.94 120.712 115.94C123.654 115.94 126.555 115.252 129.183 113.931L141.87 106.602C142.796 106.319 143.606 105.747 144.182 104.969C144.758 104.191 145.069 103.249 145.069 102.281C145.069 101.313 144.758 100.371 144.182 99.5929C143.606 98.815 142.796 98.2426 141.87 97.9599C139.246 96.6264 136.343 95.9314 133.399 95.9314C130.455 95.9314 127.553 96.6264 124.928 97.9599L118.598 101.611C118.486 101.676 118.362 101.719 118.234 101.735C118.105 101.752 117.975 101.743 117.85 101.709C117.726 101.675 117.609 101.616 117.507 101.536C117.405 101.456 117.321 101.357 117.258 101.243C117.192 101.133 117.148 101.011 117.129 100.884C117.11 100.756 117.117 100.627 117.149 100.502C117.181 100.378 117.237 100.261 117.314 100.158C117.391 100.055 117.488 99.9687 117.599 99.9037L123.956 96.2526C126.885 94.7624 130.126 93.9856 133.412 93.9856C136.699 93.9856 139.939 94.7624 142.869 96.2526C144.097 96.7116 145.156 97.5349 145.903 98.6122C146.651 99.6896 147.051 100.97 147.051 102.281C147.051 103.592 146.651 104.872 145.903 105.95C145.156 107.027 144.097 107.85 142.869 108.309L130.181 115.638C127.272 117.18 124.018 117.957 120.725 117.897Z" fill="white"/>
<path d="M96.7169 93.3898C96.5513 93.383 96.3894 93.338 96.244 93.2585L86.814 87.8211C86.5907 87.6893 86.4275 87.4757 86.3589 87.2257C86.2902 86.9757 86.3216 86.7088 86.4463 86.4815C86.583 86.2563 86.8012 86.0925 87.0556 86.024C87.3099 85.9555 87.5809 85.9876 87.8122 86.1137L97.216 91.5511C97.3291 91.6139 97.4285 91.6987 97.5085 91.8004C97.5884 91.9021 97.6472 92.0188 97.6815 92.1436C97.7157 92.2683 97.7247 92.3987 97.7079 92.527C97.6911 92.6553 97.6489 92.7789 97.5837 92.8907C97.4939 93.041 97.3671 93.1659 97.2153 93.2532C97.0636 93.3406 96.892 93.3876 96.7169 93.3898Z" fill="white"/>
<path d="M103.599 89.4236C103.433 89.4168 103.271 89.3718 103.126 89.2922L93.6959 83.8549C93.582 83.7894 93.4822 83.702 93.4021 83.5979C93.322 83.4938 93.2632 83.3749 93.2291 83.2481C93.1949 83.1213 93.1861 82.9889 93.2031 82.8587C93.2201 82.7284 93.2626 82.6028 93.3281 82.489C93.3937 82.3751 93.481 82.2753 93.5851 82.1952C93.6892 82.1152 93.8081 82.0563 93.9349 82.0222C94.0617 81.988 94.1941 81.9792 94.3243 81.9962C94.4546 82.0132 94.5802 82.0557 94.694 82.1213L104.098 87.5586C104.289 87.6679 104.439 87.8376 104.524 88.0411C104.609 88.2446 104.624 88.4705 104.567 88.6835C104.51 88.8965 104.384 89.0846 104.209 89.2185C104.034 89.3524 103.819 89.4245 103.599 89.4236Z" fill="white"/>
<path d="M62.0438 111.934C61.8644 111.938 61.6876 111.891 61.5341 111.798C61.3806 111.705 61.2567 111.57 61.177 111.409C59.3624 108.212 58.391 104.606 58.3542 100.929C58.3175 97.2532 59.2165 93.6281 60.9669 90.3952C61.0897 90.1696 61.2947 90 61.5393 89.9217C61.7839 89.8435 62.0493 89.8625 62.2802 89.9749C62.3978 90.0331 62.5024 90.1145 62.5876 90.2142C62.6729 90.3139 62.7371 90.4298 62.7764 90.5549C62.8157 90.6801 62.8292 90.812 62.8161 90.9425C62.8031 91.0731 62.7638 91.1996 62.7005 91.3146C61.0988 94.245 60.277 97.5377 60.3138 100.877C60.3506 104.216 61.2448 107.49 62.9106 110.385C63.0319 110.611 63.0586 110.877 62.9847 111.123C62.9109 111.369 62.7426 111.576 62.5166 111.698C62.3811 111.815 62.2186 111.896 62.0438 111.934Z" fill="white"/>
<path d="M118.099 135.654C103.46 135.941 88.9923 132.477 76.0705 125.594C75.9574 125.531 75.858 125.446 75.778 125.344C75.6981 125.243 75.6392 125.126 75.605 125.001C75.5707 124.876 75.5617 124.746 75.5785 124.618C75.5953 124.49 75.6376 124.366 75.7028 124.254C75.7656 124.141 75.8503 124.041 75.9521 123.962C76.0538 123.882 76.1705 123.823 76.2953 123.789C76.4201 123.754 76.5504 123.745 76.6787 123.762C76.807 123.779 76.9307 123.821 77.0425 123.886C99.685 137.02 136.512 137.02 159.155 123.886C165 120.794 169.887 116.162 173.286 110.49C179.591 98.8797 174.18 86.2975 159.155 77.6293C136.512 64.4955 99.685 64.4955 77.0425 77.6293C76.9307 77.6945 76.807 77.7368 76.6787 77.7536C76.5504 77.7704 76.4201 77.7614 76.2953 77.7271C76.1705 77.6929 76.0538 77.634 75.9521 77.5541C75.8503 77.4741 75.7656 77.3747 75.7028 77.2616C75.6376 77.1498 75.5953 77.0262 75.5785 76.8979C75.5617 76.7696 75.5707 76.6392 75.605 76.5144C75.6392 76.3896 75.6981 76.2729 75.778 76.1712C75.858 76.0695 75.9574 75.9847 76.0705 75.9219C99.2385 62.5518 136.959 62.5518 160.126 75.9219C176.15 85.1943 181.876 98.8009 174.994 111.409C171.423 117.403 166.282 122.308 160.126 125.594C147.202 132.47 132.736 135.933 118.099 135.654Z" fill="white"/>
<path d="M48.2007 142.222C42.1191 142.344 36.1876 140.327 31.442 136.521C23.7719 130.27 19.5428 119.264 19.5428 105.5C19.5428 73.3219 42.2379 34.052 70.1077 17.95C83.7931 10.0698 96.6904 8.80896 106.488 14.4565C116.286 20.104 121.618 31.8981 121.618 47.7111C121.602 51.8458 121.268 55.9731 120.62 60.0568C120.569 60.3099 120.424 60.5343 120.215 60.6853C120.006 60.8363 119.747 60.9027 119.491 60.8711C119.362 60.8521 119.239 60.8074 119.128 60.7399C119.017 60.6724 118.921 60.5834 118.845 60.4781C118.769 60.3728 118.715 60.2534 118.686 60.1269C118.657 60.0004 118.654 59.8694 118.676 59.7416C119.316 55.7631 119.641 51.7406 119.648 47.7111C119.648 32.6336 114.631 21.4436 105.49 16.1901C96.349 10.9366 84.1346 12.1712 71.0796 19.6837C43.7615 35.4442 21.5129 73.9786 21.5129 105.526C21.5129 118.66 25.4793 129.167 32.6766 135.024C35.8285 137.438 39.4905 139.101 43.3828 139.884C47.2751 140.667 51.295 140.55 55.1353 139.542C55.2613 139.515 55.3913 139.514 55.5179 139.538C55.6444 139.562 55.765 139.61 55.8725 139.681C55.9801 139.752 56.0725 139.844 56.1443 139.951C56.2162 140.057 56.266 140.178 56.2911 140.304C56.3217 140.43 56.3261 140.561 56.3038 140.689C56.2816 140.817 56.2332 140.939 56.1617 141.048C56.0903 141.156 55.9972 141.249 55.8884 141.32C55.7796 141.39 55.6574 141.438 55.5293 141.46C53.119 141.964 50.6632 142.22 48.2007 142.222Z" fill="white"/>
<path d="M35.6712 139.095C35.5158 139.132 35.3539 139.132 35.1984 139.095L15.1826 127.905C5.38483 122.258 0 110.437 0 94.6242C0 74.2931 8.95721 50.5737 23.9034 31.2145C23.9809 31.1087 24.0791 31.0196 24.192 30.9527C24.3049 30.8858 24.4301 30.8424 24.5602 30.8253C24.6903 30.8081 24.8225 30.8175 24.9489 30.8527C25.0753 30.888 25.1932 30.9485 25.2956 31.0306C25.4978 31.1956 25.6294 31.4316 25.6636 31.6903C25.6977 31.949 25.6319 32.211 25.4794 32.4228C10.7697 51.4405 1.97006 74.7134 1.97006 94.6242C1.97006 109.702 7.01342 120.892 16.1545 126.145L36.1703 137.256C36.2834 137.319 36.3829 137.404 36.4629 137.506C36.5428 137.607 36.6016 137.724 36.6359 137.849C36.6701 137.974 36.6791 138.104 36.6623 138.232C36.6455 138.361 36.6033 138.484 36.5381 138.596C36.4483 138.746 36.3214 138.871 36.1697 138.958C36.0179 139.046 35.8463 139.093 35.6712 139.095Z" fill="white"/>
<path d="M35.3036 20.8127C35.0392 20.809 34.786 20.7058 34.5944 20.5237C34.413 20.3374 34.3116 20.0877 34.3116 19.8277C34.3116 19.5677 34.413 19.3179 34.5944 19.1315C39.4023 14.453 44.7555 10.3697 50.5387 6.96969C63.6725 -0.595347 76.1495 -2.06632 85.7897 2.87197C85.9038 2.93029 86.0053 3.01059 86.0882 3.10828C86.1712 3.20598 86.234 3.31913 86.2731 3.4412C86.3121 3.56327 86.3267 3.69185 86.3158 3.81956C86.305 3.94727 86.269 4.0716 86.21 4.18534C86.1544 4.30203 86.0756 4.40612 85.9783 4.49116C85.881 4.57619 85.7673 4.6404 85.6442 4.67978C85.5212 4.71916 85.3913 4.73285 85.2627 4.7201C85.1341 4.70735 85.0095 4.66841 84.8966 4.60563C75.8868 0.00882189 63.8826 1.4535 51.5106 8.67706C45.8738 12.0027 40.6535 15.9885 35.9603 20.55C35.8736 20.635 35.7709 20.7019 35.6582 20.747C35.5455 20.7921 35.4249 20.8144 35.3036 20.8127Z" fill="white"/>
<path d="M55.398 76.0795C55.1378 76.0796 54.8878 75.978 54.7013 75.7965C54.5149 75.6149 54.4067 75.3677 54.3998 75.1076C54.5963 71.817 55.5641 68.6188 57.2251 65.7714C58.886 62.9241 61.1936 60.5074 63.9612 58.7167L76.6484 51.3881C77.7038 50.6414 78.9391 50.1893 80.2272 50.0785C81.5153 49.9677 82.8096 50.2022 83.977 50.7577C85.0508 51.485 85.9082 52.4889 86.4584 53.6633C87.0087 54.8377 87.2313 56.139 87.1028 57.4295C87.096 57.6897 86.9878 57.9369 86.8014 58.1185C86.6149 58.3 86.3649 58.4016 86.1047 58.4015C85.8469 58.4015 85.5997 58.2991 85.4175 58.1169C85.2352 57.9346 85.1328 57.6873 85.1328 57.4295C85.3573 56.4733 85.264 55.4699 84.8671 54.5714C84.4701 53.6729 83.7912 52.9282 82.9331 52.4502C82.075 51.9722 81.0845 51.7868 80.1116 51.9222C79.1387 52.0576 78.2365 52.5064 77.5415 53.2005L64.8543 60.5292C62.3861 62.1382 60.3318 64.3061 58.8577 66.8572C57.3836 69.4082 56.5313 72.2708 56.3699 75.2127C56.3385 75.4496 56.2231 75.6673 56.0448 75.8264C55.8664 75.9855 55.6369 76.0753 55.398 76.0795Z" fill="white"/>
<path d="M67.2447 58.8744C66.989 58.8677 66.7457 58.7632 66.5648 58.5823C66.384 58.4015 66.2794 58.1581 66.2728 57.9025V47.0277C66.2494 46.8849 66.2573 46.7387 66.296 46.5992C66.3348 46.4598 66.4034 46.3304 66.4971 46.2201C66.5908 46.1098 66.7074 46.0212 66.8387 45.9604C66.9701 45.8997 67.1131 45.8682 67.2578 45.8682C67.4025 45.8682 67.5456 45.8997 67.6769 45.9604C67.8083 46.0212 67.9248 46.1098 68.0185 46.2201C68.1122 46.3304 68.1808 46.4598 68.2196 46.5992C68.2583 46.7387 68.2662 46.8849 68.2428 47.0277V57.9025C68.236 58.1626 68.1278 58.4098 67.9414 58.5913C67.7549 58.7729 67.5049 58.8745 67.2447 58.8744Z" fill="white"/>
<path d="M74.1268 54.9082C73.8666 54.9013 73.6194 54.7931 73.4379 54.6067C73.2563 54.4202 73.1548 54.1702 73.1548 53.91V43.0353C73.1931 42.8017 73.3132 42.5892 73.4937 42.4359C73.6741 42.2826 73.9031 42.1985 74.1399 42.1985C74.3766 42.1985 74.6057 42.2826 74.7861 42.4359C74.9665 42.5892 75.0866 42.8017 75.1249 43.0353V53.91C75.1249 54.1747 75.0197 54.4286 74.8326 54.6158C74.6454 54.803 74.3915 54.9082 74.1268 54.9082Z" fill="white"/>
<path d="M33.8326 76.6836H33.5174C33.2716 76.5945 33.0707 76.4125 32.9577 76.1767C32.8447 75.9409 32.8288 75.6702 32.9132 75.4228C36.9 64.375 42.7847 54.1079 50.3023 45.0839C50.4695 44.8853 50.7087 44.7613 50.9673 44.7392C51.226 44.717 51.4828 44.7984 51.6813 44.9656C51.8799 45.1328 52.0039 45.3721 52.0261 45.6307C52.0482 45.8894 51.9668 46.1462 51.7996 46.3447C44.4439 55.1939 38.6842 65.2555 34.7782 76.0795C34.6993 76.2633 34.567 76.4193 34.3983 76.527C34.2297 76.6347 34.0326 76.6893 33.8326 76.6836Z" fill="white"/>
<path d="M42.4481 129.087C42.3018 129.126 42.1479 129.126 42.0016 129.087C33.202 124.727 28.1586 114.404 28.1586 100.692C28.1969 100.459 28.317 100.246 28.4974 100.093C28.6779 99.9396 28.9069 99.8555 29.1437 99.8555C29.3804 99.8555 29.6094 99.9396 29.7899 100.093C29.9703 100.246 30.0904 100.459 30.1287 100.692C30.1287 113.616 34.778 123.309 42.8684 127.327C42.9848 127.383 43.0889 127.462 43.1745 127.559C43.2602 127.655 43.3257 127.768 43.3673 127.89C43.4089 128.013 43.4256 128.142 43.4167 128.271C43.4077 128.4 43.3731 128.526 43.315 128.641C43.2226 128.785 43.0938 128.902 42.9416 128.981C42.7894 129.059 42.6191 129.096 42.4481 129.087Z" fill="white"/>
<path d="M112.241 53.6211C112.111 53.6212 111.982 53.5952 111.863 53.5447C111.743 53.4942 111.635 53.4203 111.544 53.3272C111.453 53.2342 111.382 53.1239 111.335 53.0029C111.288 52.8819 111.265 52.7528 111.269 52.6229C111.269 40.1721 107.119 30.926 99.5799 26.5656C92.0411 22.2052 81.9807 23.2559 71.1847 29.4813C71.073 29.5465 70.9493 29.5887 70.821 29.6055C70.6927 29.6223 70.5623 29.6133 70.4376 29.5791C70.3128 29.5448 70.1961 29.486 70.0944 29.4061C69.9926 29.3261 69.9079 29.2266 69.8451 29.1135C69.7204 28.8862 69.689 28.6193 69.7577 28.3693C69.8263 28.1192 69.9895 27.9057 70.2128 27.7739C81.6129 21.1808 92.4088 20.1563 100.578 24.8582C108.747 29.5601 113.239 39.4367 113.239 52.6229C113.239 52.8877 113.134 53.1416 112.947 53.3288C112.759 53.5159 112.506 53.6211 112.241 53.6211Z" fill="white"/>
<path d="M106.751 16.689C106.584 16.6949 106.419 16.649 106.278 16.5576L84.9752 4.71105C84.8631 4.64724 84.7647 4.56192 84.6855 4.46006C84.6064 4.3582 84.5481 4.24177 84.5139 4.11737C84.4798 3.99297 84.4705 3.86307 84.4865 3.73508C84.5026 3.60708 84.5437 3.48349 84.6075 3.37138C84.6713 3.25927 84.7566 3.16083 84.8584 3.08168C84.9603 3.00252 85.0768 2.9442 85.2012 2.91005C85.3256 2.8759 85.4555 2.86658 85.5835 2.88264C85.7115 2.89869 85.835 2.93986 85.9471 3.00368L107.145 14.8503C107.258 14.9131 107.358 14.9978 107.438 15.0996C107.517 15.2013 107.576 15.318 107.611 15.4427C107.645 15.5675 107.654 15.6979 107.637 15.8262C107.62 15.9545 107.578 16.0782 107.513 16.1899C107.433 16.3262 107.323 16.4422 107.19 16.5288C107.058 16.6154 106.908 16.6702 106.751 16.689Z" fill="white"/>
</g>
</svg>
