<svg width="460" height="460" viewBox="0 0 460 460" fill="none" xmlns="http://www.w3.org/2000/svg">
<g clip-path="url(#clip0)">
<path d="M402.424 61.2806C351.752 61.2806 302.628 43.8214 263.32 11.8433C243.913 -3.94646 216.087 -3.94646 196.68 11.8433C157.373 43.8223 108.248 61.2806 57.5766 61.2806C41.7535 61.2806 28.9268 74.1074 28.9268 89.9305V166.716C28.9268 265.22 73.2825 358.488 149.694 420.654L173.277 439.841C206.317 466.721 253.686 466.721 286.726 439.841L310.31 420.654C386.72 358.489 431.077 265.217 431.077 166.713C431.077 137.233 431.077 109.529 431.077 89.9242C431.074 74.1011 418.247 61.2806 402.424 61.2806Z" fill="url(#paint0_linear)"/>
<path d="M230 434.721C224.476 434.721 219.074 432.801 214.788 429.315L169.682 392.617C136.736 365.813 109.679 331.371 91.438 293.015C73.1968 254.659 63.5548 211.935 63.5548 169.462V108.528C63.5548 101.156 69.5817 94.8873 76.9435 94.4985C127.144 91.8441 175.676 73.2285 214.788 41.4073C219.075 37.9203 224.476 36.001 230 36.001C235.524 36.001 240.926 37.9203 245.212 41.4064C284.326 73.2285 332.859 91.8441 383.059 94.4985C390.419 94.8873 396.445 101.155 396.445 108.526V169.459C396.445 211.932 386.803 254.656 368.562 293.013C350.321 331.371 323.265 365.813 290.319 392.617L245.212 429.315C240.926 432.801 235.524 434.721 230 434.721Z" fill="url(#paint1_linear)"/>
<path d="M230 417.898C224.942 417.898 219.995 416.14 216.072 412.948L174.772 379.348C144.606 354.806 119.833 323.27 103.131 288.151C86.4295 253.032 77.6011 213.914 77.6011 175.025V119.232C77.6011 112.483 83.1193 106.743 89.8596 106.386C135.824 103.955 180.26 86.9111 216.072 57.7751C219.996 54.583 224.943 52.8242 230 52.8242C235.058 52.8242 240.005 54.5821 243.927 57.7742C279.74 86.9111 324.178 103.955 370.142 106.386C376.882 106.743 382.399 112.481 382.399 119.229V175.02C382.399 213.909 373.57 253.028 356.869 288.148C340.167 323.269 315.394 354.805 285.228 379.348L243.927 412.947C240.005 416.14 235.058 417.898 230 417.898Z" fill="url(#paint2_linear)"/>
<path d="M431.074 89.9237C431.074 74.1006 418.247 61.2801 402.424 61.2801C351.752 61.2801 302.628 43.8209 263.32 11.8427C253.616 3.94788 241.808 0 230 0V460C250.102 460 270.204 453.28 286.724 439.84L310.308 420.654C386.718 358.489 431.074 265.216 431.075 166.712C431.074 137.232 431.074 109.528 431.074 89.9237Z" fill="url(#paint3_linear)"/>
<path d="M380.11 133.86C371.098 124.849 356.488 126.697 347.477 135.707L235.048 248.135C233.952 249.231 230.855 251.308 230 251.308C229.145 251.308 227.895 251.078 226.798 249.981L183.702 206.885C174.691 197.875 161.005 197.875 151.993 206.885C142.982 215.897 142.058 228.66 151.069 237.671L323.088 409.689C387.243 351.772 425.895 270.789 430.587 184.511L380.11 133.86Z" fill="url(#paint4_linear)"/>
<path d="M310.308 420.653C364.847 376.282 403.049 316.061 420.454 249.403L316.472 145.422C294.771 122.501 264.057 110.047 230.001 110.047C165.115 110.046 112.781 162.38 112.782 227.267C112.782 261.323 125.236 292.036 148.158 313.737L273.132 438.711C276.95 442.529 283.038 442.841 287.227 439.433L310.308 420.653Z" fill="url(#paint5_linear)"/>
<path d="M230 346.329C295.758 346.329 349.065 293.021 349.065 227.263C349.065 161.506 295.758 108.198 230 108.198C164.242 108.198 110.935 161.506 110.935 227.263C110.935 293.021 164.242 346.329 230 346.329Z" fill="url(#paint6_linear)"/>
<path d="M326.148 157.036L235.048 248.135C233.952 249.231 230.855 251.308 230 251.308C229.145 251.308 227.895 251.078 226.798 249.981L183.702 206.886C174.691 197.875 161.005 197.875 151.993 206.886C142.982 215.897 142.058 228.66 151.069 237.671L256.716 343.318C309.61 331.191 349.065 283.837 349.065 227.264C349.065 200.999 340.553 176.725 326.148 157.036Z" fill="url(#paint7_linear)"/>
<path d="M230 295.611C216.463 295.611 203.737 290.339 194.165 280.767L151.069 237.673C142.058 228.661 142.058 214.051 151.069 205.04C160.08 196.029 174.69 196.029 183.702 205.04L226.798 248.135C227.895 249.232 229.145 249.462 230 249.462C230.855 249.462 232.105 249.232 233.202 248.135L347.477 133.86C356.488 124.85 371.098 124.85 380.11 133.86C389.121 142.872 389.121 157.482 380.11 166.493L265.835 280.767C256.263 290.339 243.537 295.611 230 295.611Z" fill="url(#paint8_linear)"/>
</g>
<defs>
<linearGradient id="paint0_linear" x1="61.529" y1="21.717" x2="408.302" y2="368.49" gradientUnits="userSpaceOnUse">
<stop stop-color="#B5DBFF"/>
<stop offset="1" stop-color="#76E2F8"/>
</linearGradient>
<linearGradient id="paint1_linear" x1="456.275" y1="421.982" x2="149.453" y2="115.16" gradientUnits="userSpaceOnUse">
<stop stop-color="#B5DBFF" stop-opacity="0"/>
<stop offset="0.2428" stop-color="#93CEF6" stop-opacity="0.243"/>
<stop offset="0.5763" stop-color="#6ABFEC" stop-opacity="0.576"/>
<stop offset="0.8403" stop-color="#51B5E5" stop-opacity="0.84"/>
<stop offset="1" stop-color="#48B2E3"/>
</linearGradient>
<linearGradient id="paint2_linear" x1="170.677" y1="139.731" x2="305.457" y2="274.511" gradientUnits="userSpaceOnUse">
<stop stop-color="#EDF5FF"/>
<stop offset="1" stop-color="#D5E8FE"/>
</linearGradient>
<linearGradient id="paint3_linear" x1="271.791" y1="237.749" x2="-5.10422" y2="104.839" gradientUnits="userSpaceOnUse">
<stop stop-color="#B5DBFF" stop-opacity="0"/>
<stop offset="0.1734" stop-color="#8FC5E9" stop-opacity="0.173"/>
<stop offset="0.4541" stop-color="#56A4C8" stop-opacity="0.454"/>
<stop offset="0.6955" stop-color="#2D8DB1" stop-opacity="0.696"/>
<stop offset="0.8853" stop-color="#147EA2" stop-opacity="0.885"/>
<stop offset="1" stop-color="#0B799D"/>
</linearGradient>
<linearGradient id="paint4_linear" x1="377.716" y1="291.498" x2="282.956" y2="219.505" gradientUnits="userSpaceOnUse">
<stop stop-color="#B5DBFF" stop-opacity="0"/>
<stop offset="0.1734" stop-color="#8FC5E9" stop-opacity="0.173"/>
<stop offset="0.4541" stop-color="#56A4C8" stop-opacity="0.454"/>
<stop offset="0.6955" stop-color="#2D8DB1" stop-opacity="0.696"/>
<stop offset="0.8853" stop-color="#147EA2" stop-opacity="0.885"/>
<stop offset="1" stop-color="#0B799D"/>
</linearGradient>
<linearGradient id="paint5_linear" x1="361.764" y1="359.029" x2="203.831" y2="201.096" gradientUnits="userSpaceOnUse">
<stop stop-color="#B5DBFF" stop-opacity="0"/>
<stop offset="0.1734" stop-color="#8FC5E9" stop-opacity="0.173"/>
<stop offset="0.4541" stop-color="#56A4C8" stop-opacity="0.454"/>
<stop offset="0.6955" stop-color="#2D8DB1" stop-opacity="0.696"/>
<stop offset="0.8853" stop-color="#147EA2" stop-opacity="0.885"/>
<stop offset="1" stop-color="#0B799D"/>
</linearGradient>
<linearGradient id="paint6_linear" x1="174.62" y1="171.885" x2="289.383" y2="286.647" gradientUnits="userSpaceOnUse">
<stop stop-color="#B9DD39"/>
<stop offset="1" stop-color="#90CC1C"/>
</linearGradient>
<linearGradient id="paint7_linear" x1="338.223" y1="296.968" x2="295.548" y2="254.293" gradientUnits="userSpaceOnUse">
<stop stop-color="#66BB00" stop-opacity="0"/>
<stop offset="1" stop-color="#66BB00"/>
</linearGradient>
<linearGradient id="paint8_linear" x1="219.521" y1="139.697" x2="338.384" y2="258.56" gradientUnits="userSpaceOnUse">
<stop stop-color="#0B799D"/>
<stop offset="1" stop-color="#07485E"/>
</linearGradient>
<clipPath id="clip0">
<rect width="460" height="460" fill="white"/>
</clipPath>
</defs>
</svg>
