<svg width="298" height="465" viewBox="0 0 298 465" fill="none" xmlns="http://www.w3.org/2000/svg">
<path opacity="0.2" d="M69.1122 464.381H69.7225C70.1149 464.416 70.5088 464.337 70.8631 464.152C71.2174 463.967 71.519 463.683 71.7364 463.329L127.64 359.022L238.41 290.207C257.671 278.201 273.658 260.948 284.767 240.181C295.876 219.415 301.716 195.866 301.699 171.9V38.4102C301.714 31.6729 300.079 25.0504 296.96 19.2106C293.84 13.3707 289.346 8.51982 283.93 5.14709C278.515 1.77435 272.369 -0.000985291 266.113 0C259.857 0.000986111 253.712 1.77826 248.297 5.1527L116.838 86.916L64.2297 119.385C44.9499 131.372 28.9434 148.619 17.8221 169.388C6.70083 190.158 0.857345 213.716 0.880194 237.692V371.116C0.877609 377.855 2.52261 384.476 5.64977 390.313C8.77693 396.15 13.2761 400.998 18.6947 404.369C24.1134 407.74 30.2606 409.515 36.5183 409.515C42.7759 409.516 48.9235 407.743 54.3428 404.373L67.4033 396.223V461.949C67.4181 462.495 67.5906 463.023 67.8969 463.459C68.2032 463.895 68.6279 464.217 69.1122 464.381Z" fill="#260980"/>
<path d="M176.39 457.689H175.793C175.32 457.541 174.905 457.248 174.606 456.853C174.307 456.458 174.138 455.979 174.124 455.483V395.865L161.366 403.257C156.072 406.314 150.066 407.923 143.953 407.922C137.84 407.921 131.835 406.311 126.542 403.254C121.249 400.196 116.854 395.799 113.799 390.504C110.744 385.209 109.137 379.203 109.14 373.09V252.065C109.117 230.317 114.826 208.948 125.69 190.108C136.554 171.269 152.19 155.625 171.024 144.751L187.479 135.272C187.992 134.979 188.602 134.903 189.172 135.059C189.742 135.216 190.227 135.592 190.519 136.106C190.812 136.62 190.888 137.229 190.732 137.799C190.575 138.37 190.198 138.854 189.685 139.147L172.991 148.805C154.865 159.27 139.813 174.322 129.348 192.448C118.883 210.573 113.373 231.135 113.373 252.065V373.448C113.374 378.771 114.775 384.001 117.436 388.612C120.097 393.222 123.924 397.052 128.533 399.715C133.142 402.379 138.371 403.784 143.694 403.788C149.018 403.793 154.248 402.396 158.862 399.74C176.747 389.426 176.747 389.426 177.94 390.976C178.236 391.369 178.384 391.855 178.357 392.347V447.375L229.152 359.497C229.346 359.166 229.611 358.881 229.927 358.663L338.91 295.944C357.036 285.479 372.088 270.427 382.553 252.301C393.018 234.176 398.528 213.614 398.529 192.684V71.301C398.54 65.9793 397.148 60.7486 394.495 56.1357C391.841 51.5228 388.019 47.6905 383.413 45.0249C378.807 42.3592 373.58 40.9542 368.258 40.9515C362.936 40.9487 357.708 42.3483 353.099 45.0091L224.681 119.175C224.156 119.461 223.541 119.534 222.963 119.378C222.386 119.223 221.891 118.851 221.58 118.34C221.432 118.086 221.337 117.806 221.298 117.514C221.26 117.223 221.281 116.927 221.358 116.644C221.436 116.361 221.57 116.096 221.751 115.865C221.933 115.634 222.158 115.442 222.415 115.299L350.834 41.1339C356.123 38.073 362.126 36.4609 368.237 36.46C374.349 36.4591 380.352 38.0694 385.642 41.1288C390.933 44.1881 395.323 48.5882 398.37 53.8854C401.418 59.1826 403.015 65.1897 403 71.301V192.386C403.016 214.126 397.312 235.486 386.46 254.323C375.608 273.16 359.99 288.809 341.175 299.7L232.968 362.121L178.357 456.735C178.145 457.056 177.85 457.314 177.504 457.482C177.158 457.649 176.773 457.721 176.39 457.689Z" fill="white"/>
<path d="M180.145 288.371C177.722 288.393 175.337 287.777 173.229 286.582C170.595 284.776 168.492 282.298 167.14 279.404C165.787 276.51 165.234 273.307 165.538 270.128C165.776 262.371 167.926 254.794 171.798 248.069L172.991 245.982C173.143 245.735 173.343 245.521 173.578 245.351C173.814 245.182 174.08 245.06 174.363 244.994C174.645 244.927 174.938 244.917 175.224 244.964C175.51 245.011 175.785 245.114 176.031 245.267C176.283 245.414 176.503 245.61 176.679 245.844C176.854 246.077 176.982 246.342 177.054 246.625C177.126 246.908 177.141 247.202 177.099 247.491C177.056 247.78 176.957 248.057 176.806 248.307L175.674 250.215C172.198 256.295 170.254 263.129 170.01 270.128C169.433 272.529 169.648 275.053 170.623 277.322C171.598 279.592 173.281 281.485 175.42 282.719C177.56 283.953 180.041 284.462 182.494 284.169C184.946 283.877 187.238 282.8 189.028 281.098C195.22 277.074 200.375 271.645 204.074 265.253C207.772 258.861 209.909 251.687 210.312 244.313C210.889 241.911 210.674 239.388 209.699 237.118C208.724 234.849 207.041 232.956 204.902 231.722C202.762 230.488 200.281 229.979 197.828 230.271C195.376 230.563 193.083 231.641 191.294 233.343C191.04 233.491 190.759 233.587 190.468 233.625C190.177 233.663 189.881 233.643 189.598 233.565C189.315 233.487 189.05 233.354 188.819 233.172C188.588 232.991 188.396 232.765 188.253 232.508C188.094 232.261 187.988 231.983 187.941 231.693C187.894 231.402 187.907 231.105 187.98 230.82C188.053 230.535 188.183 230.268 188.364 230.035C188.544 229.802 188.77 229.609 189.028 229.468C191.51 227.368 194.58 226.086 197.818 225.795C201.055 225.504 204.304 226.219 207.121 227.842C209.938 229.466 212.185 231.919 213.556 234.866C214.927 237.814 215.356 241.113 214.783 244.313C214.337 252.459 211.978 260.385 207.897 267.45C203.816 274.514 198.128 280.517 191.294 284.973C187.942 287.069 184.096 288.241 180.145 288.371Z" fill="white"/>
<path d="M246.083 250.335C243.633 250.367 241.22 249.728 239.108 248.486C236.494 246.678 234.409 244.206 233.067 241.324C231.726 238.443 231.177 235.256 231.477 232.091C231.918 223.936 234.275 215.999 238.356 208.925C242.437 201.85 248.128 195.837 254.966 191.372C257.454 189.288 260.524 188.02 263.757 187.742C266.991 187.463 270.232 188.188 273.039 189.816C275.847 191.445 278.084 193.898 279.448 196.843C280.812 199.788 281.236 203.082 280.662 206.276C280.216 214.423 277.857 222.349 273.776 229.413C269.694 236.477 264.006 242.481 257.172 246.936C253.842 249.03 250.015 250.203 246.083 250.335ZM266.055 192.504C262.911 192.657 259.856 193.6 257.172 195.247C251 199.301 245.864 204.746 242.178 211.145C238.492 217.544 236.358 224.718 235.948 232.091C235.656 234.472 236.005 236.888 236.959 239.089C237.912 241.29 239.436 243.196 241.373 244.611C243.575 245.571 245.991 245.934 248.378 245.662C250.765 245.389 253.037 244.492 254.966 243.061C261.144 239.027 266.285 233.595 269.972 227.204C273.66 220.813 275.79 213.644 276.191 206.276C276.475 203.888 276.123 201.466 275.17 199.257C274.217 197.048 272.698 195.13 270.765 193.697C269.325 192.9 267.702 192.489 266.055 192.504Z" fill="white"/>
<path d="M311.962 212.478C309.54 212.5 307.154 211.883 305.046 210.689C302.421 208.888 300.325 206.419 298.973 203.537C297.621 200.655 297.062 197.464 297.356 194.294C297.811 186.142 300.174 178.211 304.254 171.139C308.334 164.066 314.017 158.05 320.845 153.575C323.337 151.511 326.4 150.258 329.624 149.985C332.848 149.712 336.078 150.432 338.881 152.048C341.685 153.663 343.926 156.098 345.306 159.024C346.686 161.951 347.138 165.229 346.601 168.42C346.145 176.572 343.782 184.503 339.702 191.575C335.623 198.648 329.94 204.664 323.111 209.139C319.743 211.191 315.903 212.341 311.962 212.478ZM331.934 154.707C328.804 154.833 325.761 155.779 323.111 157.45C316.921 161.49 311.769 166.931 308.071 173.332C304.374 179.732 302.235 186.913 301.827 194.294C301.25 196.696 301.465 199.22 302.44 201.489C303.415 203.758 305.098 205.651 307.237 206.885C309.377 208.119 311.858 208.628 314.311 208.336C316.763 208.044 319.056 206.966 320.845 205.264C327.035 201.224 332.188 195.783 335.885 189.382C339.583 182.982 341.722 175.8 342.129 168.42C342.39 166.041 342.027 163.636 341.076 161.441C340.125 159.245 338.618 157.336 336.704 155.9C335.264 155.019 333.621 154.526 331.934 154.469V154.707Z" fill="white"/>
<path d="M64.5446 367.485C64.1484 367.479 63.7597 367.377 63.4118 367.187C58.1249 364.121 53.735 359.721 50.6802 354.428C47.6254 349.134 46.0127 343.132 46.0032 337.02V215.756C45.9566 194.004 51.6547 172.625 62.5211 153.781C73.3876 134.938 89.0372 119.297 107.887 108.442L287.637 4.64624C292.934 1.60201 298.937 0 305.046 0C311.155 0 317.158 1.60201 322.455 4.64624C322.713 4.7877 322.939 4.9807 323.119 5.21326C323.3 5.44583 323.43 5.71301 323.503 5.99816C323.575 6.28331 323.589 6.58035 323.542 6.87084C323.495 7.16134 323.389 7.43904 323.23 7.68676C323.087 7.94354 322.895 8.16931 322.664 8.35075C322.433 8.5322 322.168 8.66573 321.885 8.74348C321.602 8.82122 321.306 8.84164 321.015 8.80352C320.724 8.76539 320.443 8.66944 320.189 8.52142C315.587 5.85739 310.364 4.45466 305.046 4.45466C299.729 4.45466 294.505 5.85739 289.903 8.52142L110.093 112.258C91.9673 122.723 76.9154 137.775 66.4502 155.9C55.9849 174.026 50.4751 194.587 50.4746 215.517V336.603C50.4877 341.932 51.8984 347.165 54.5661 351.778C57.2338 356.392 61.0651 360.225 65.6774 362.895C65.9354 363.036 66.1616 363.229 66.3419 363.462C66.5222 363.694 66.6528 363.961 66.7255 364.246C66.7981 364.532 66.8114 364.829 66.7644 365.119C66.7174 365.41 66.6113 365.687 66.4524 365.935C66.3241 366.354 66.0741 366.724 65.7344 367C65.3947 367.277 64.9805 367.445 64.5446 367.485Z" fill="white"/>
<path d="M143.957 165.379C143.588 165.494 143.193 165.494 142.824 165.379L97.991 139.624C97.7342 139.481 97.5084 139.289 97.327 139.058C97.1455 138.827 97.0121 138.562 96.9344 138.279C96.8566 137.996 96.8362 137.7 96.8743 137.409C96.9124 137.117 97.0083 136.837 97.1563 136.583C97.4667 136.072 97.9619 135.7 98.5393 135.545C99.1166 135.389 99.7316 135.462 100.257 135.748L145.09 161.504C145.342 161.651 145.562 161.847 145.737 162.08C145.913 162.314 146.04 162.579 146.112 162.862C146.184 163.145 146.199 163.439 146.157 163.728C146.115 164.017 146.015 164.294 145.865 164.544C145.648 164.838 145.357 165.07 145.022 165.217C144.688 165.363 144.32 165.419 143.957 165.379Z" fill="white"/>
<path d="M102.939 216.711C102.544 216.696 102.157 216.594 101.806 216.413L51.0109 187.259C50.4983 186.95 50.129 186.45 49.9838 185.869C49.8386 185.288 49.9292 184.673 50.236 184.159C50.3835 183.907 50.5795 183.687 50.8127 183.512C51.0459 183.336 51.3115 183.209 51.5943 183.137C51.8771 183.064 52.1715 183.049 52.4602 183.092C52.7489 183.134 53.0264 183.233 53.2765 183.384L104.072 212.537C104.328 212.68 104.554 212.872 104.735 213.103C104.917 213.334 105.05 213.599 105.128 213.882C105.206 214.165 105.226 214.461 105.188 214.752C105.15 215.044 105.054 215.324 104.906 215.578C104.702 215.919 104.415 216.202 104.07 216.401C103.726 216.599 103.336 216.706 102.939 216.711Z" fill="white"/>
<path d="M126.429 402.84C126.034 402.825 125.647 402.723 125.296 402.542L63.4121 366.77C63.1131 366.647 62.8442 366.46 62.6233 366.224C62.4024 365.987 62.2347 365.706 62.1315 365.4C62.0283 365.093 61.9919 364.768 62.0249 364.446C62.058 364.124 62.1596 363.813 62.3229 363.534C62.4862 363.254 62.7074 363.013 62.9717 362.827C63.236 362.64 63.5371 362.512 63.855 362.452C64.1729 362.391 64.5 362.399 64.8144 362.476C65.1288 362.552 65.4231 362.695 65.6776 362.895L127.562 398.666C127.82 398.808 128.046 399.001 128.226 399.233C128.407 399.466 128.537 399.733 128.61 400.018C128.683 400.303 128.696 400.6 128.649 400.891C128.602 401.181 128.496 401.459 128.337 401.707C128.152 402.051 127.877 402.339 127.541 402.539C127.204 402.738 126.82 402.842 126.429 402.84Z" fill="white"/>
<path d="M176.389 457.687C175.993 457.681 175.604 457.579 175.256 457.389L112.12 421.141C111.775 420.956 111.488 420.681 111.288 420.345C111.089 420.009 110.985 419.624 110.987 419.233V407.31C111.074 406.779 111.347 406.297 111.756 405.949C112.166 405.601 112.686 405.41 113.223 405.41C113.761 405.41 114.28 405.601 114.69 405.949C115.099 406.297 115.372 406.779 115.459 407.31V418.1L177.522 453.872C177.78 454.013 178.006 454.206 178.186 454.439C178.367 454.671 178.497 454.938 178.57 455.224C178.643 455.509 178.656 455.806 178.609 456.096C178.562 456.387 178.456 456.665 178.297 456.912C178.066 457.187 177.771 457.401 177.439 457.536C177.106 457.671 176.746 457.723 176.389 457.687Z" fill="white"/>
</svg>
