<svg width="358" height="452" viewBox="0 0 358 452" fill="none" xmlns="http://www.w3.org/2000/svg">
<g opacity="0.2">
<path fill-rule="evenodd" clip-rule="evenodd" d="M-23.6927 345.26C-24.2214 345.674 -24.696 346.156 -25.103 346.697C-25.9065 347.765 -26.419 349.024 -26.59 350.349C-26.3884 351.629 -25.8607 352.835 -25.0578 353.851C-24.255 354.867 -23.204 355.66 -22.006 356.152L118.59 437.388C122.522 439.336 126.851 440.35 131.239 440.35C135.628 440.35 139.957 439.336 143.889 437.388L168.608 423.113C168.855 422.969 169.128 422.876 169.411 422.839C169.695 422.802 169.983 422.822 170.258 422.897C170.534 422.973 170.792 423.103 171.016 423.279C171.241 423.456 195.509 410.214 195.648 410.464C195.792 410.711 171.804 424.446 171.842 424.729C171.879 425.013 171.859 425.301 171.783 425.576C171.707 425.852 171.577 426.109 171.401 426.334C171.231 426.55 196.784 412.24 198.516 411.269C198.585 411.23 198.616 411.213 198.607 411.218L198.516 411.269L146.094 441.159C141.543 443.657 136.431 444.955 131.239 444.931C126.063 445.008 120.952 443.77 116.385 441.333L-23.8628 360.156C-25.8656 359.405 -27.5916 358.062 -28.8101 356.304C-30.0286 354.547 -30.6815 352.459 -30.6815 350.32C-30.6815 348.966 -30.4196 347.632 -29.918 346.389C-31.2987 346.3 -32.6434 345.89 -33.8429 345.186C-35.5828 344.024 -36.9759 342.412 -37.8748 340.522C-38.7737 338.633 -39.1449 336.535 -38.9491 334.452V171.98C-38.6685 166.818 -37.1516 161.799 -34.5261 157.346C-31.9006 152.893 -28.2434 149.135 -23.8625 146.391L180.503 28.3671C182.157 27.0168 184.183 26.2027 186.312 26.0332C188.44 25.8637 190.569 26.3468 192.416 27.4183C194.263 28.4898 195.739 30.0986 196.648 32.0305C197.557 33.9623 197.856 36.1254 197.505 38.2314V200.703C197.274 205.859 195.81 210.884 193.236 215.357C192.45 216.722 191.567 218.024 190.597 219.253C192.158 219.021 193.74 218.904 195.328 218.904C200.489 218.904 205.573 220.144 210.154 222.519L350.75 303.755C352.734 304.516 354.44 305.86 355.644 307.611C356.848 309.362 357.492 311.436 357.492 313.561C357.492 315.686 356.848 317.761 355.644 319.511C354.44 321.262 352.734 322.607 350.75 323.367L198.607 411.218C198.577 411.236 198.547 411.253 198.516 411.269C198.297 411.385 198.059 411.463 197.812 411.499C197.532 411.539 197.246 411.524 196.971 411.454C196.696 411.384 196.438 411.26 196.211 411.09C195.984 410.92 195.792 410.708 195.648 410.464C195.503 410.22 195.407 409.95 195.367 409.669C195.327 409.389 195.342 409.103 195.412 408.828C195.482 408.553 195.605 408.295 195.775 408.068C195.945 407.841 196.158 407.649 196.402 407.504L348.603 319.596C349.92 319.227 351.08 318.438 351.906 317.348C352.733 316.259 353.18 314.929 353.18 313.561C353.18 312.194 352.733 310.864 351.906 309.774C351.08 308.685 349.92 307.895 348.603 307.527L208.007 226.291C204.073 224.316 199.731 223.287 195.328 223.287C191.243 223.287 187.21 224.173 183.506 225.879C183.243 226.059 182.977 226.235 182.708 226.408C182.477 226.546 182.226 226.639 181.966 226.685L-21.343 343.874C-21.512 344.077 -21.7169 344.246 -21.9476 344.374C-22.5104 344.71 -23.0936 345.005 -23.6927 345.26ZM-26.2304 341.736C-26.7173 341.904 -27.2217 342.022 -27.7362 342.09C-29.0582 342.262 -30.4024 342.09 -31.6379 341.589C-32.7009 340.778 -33.5334 339.704 -34.0525 338.472C-34.5717 337.241 -34.7594 335.894 -34.5972 334.568V172.096C-34.3265 167.711 -33.0434 163.449 -30.8487 159.644C-28.654 155.838 -25.6073 152.593 -21.9476 150.163L182.708 32.1387C183.689 31.1754 184.959 30.5613 186.323 30.391C187.688 30.2207 189.07 30.5038 190.257 31.1965C191.445 31.8891 192.371 32.953 192.895 34.2242C193.418 35.4955 193.509 36.9035 193.153 38.2314V200.703C192.882 205.088 191.599 209.35 189.404 213.155C187.341 216.732 184.526 219.814 181.156 222.19C180.937 222.297 180.719 222.407 180.503 222.519L-23.8628 340.485C-24.7069 340.801 -25.5019 341.223 -26.2304 341.736Z" fill="#260980"/>
<path d="M-27.7362 342.09C-27.2217 342.022 -26.7173 341.904 -26.2304 341.736C-25.5019 341.223 -24.7069 340.801 -23.8628 340.485L180.503 222.519C180.719 222.407 180.937 222.297 181.156 222.19C184.526 219.814 187.341 216.732 189.404 213.155C191.599 209.35 192.882 205.088 193.153 200.703V38.2314C193.509 36.9035 193.418 35.4955 192.895 34.2242C192.371 32.953 191.445 31.8891 190.257 31.1965C189.07 30.5038 187.688 30.2207 186.323 30.391C184.959 30.5613 183.689 31.1754 182.708 32.1387L-21.9476 150.163C-25.6073 152.593 -28.654 155.838 -30.8487 159.644C-33.0434 163.449 -34.3265 167.711 -34.5972 172.096V334.568C-34.7594 335.894 -34.5717 337.241 -34.0525 338.472C-33.5334 339.704 -32.7009 340.778 -31.6379 341.589C-30.4024 342.09 -29.0582 342.262 -27.7362 342.09Z" fill="#260980"/>
<path d="M-23.6927 345.26C-24.2214 345.674 -24.696 346.156 -25.103 346.697C-25.9065 347.765 -26.419 349.024 -26.59 350.349C-26.3884 351.629 -25.8607 352.835 -25.0578 353.851C-24.255 354.867 -23.204 355.66 -22.006 356.152L118.59 437.388C122.522 439.336 126.851 440.35 131.239 440.35C135.628 440.35 139.957 439.336 143.889 437.388L168.608 423.113C168.855 422.969 169.128 422.876 169.411 422.839C169.695 422.802 169.983 422.822 170.258 422.897C170.534 422.973 170.792 423.103 171.016 423.279C171.241 423.456 195.509 410.214 195.648 410.464C195.503 410.22 195.407 409.95 195.367 409.669C195.327 409.389 195.342 409.103 195.412 408.828C195.482 408.553 195.605 408.295 195.775 408.068C195.945 407.841 196.158 407.649 196.402 407.504L348.603 319.596C349.92 319.227 351.08 318.438 351.906 317.348C352.733 316.259 353.18 314.929 353.18 313.561C353.18 312.194 352.733 310.864 351.906 309.774C351.08 308.685 349.92 307.895 348.603 307.527L208.007 226.291C204.073 224.316 199.731 223.287 195.328 223.287C191.243 223.287 187.21 224.173 183.506 225.879C183.243 226.059 182.977 226.235 182.708 226.408C182.477 226.546 182.226 226.639 181.966 226.685L-21.343 343.874C-21.512 344.077 -21.7169 344.246 -21.9476 344.374C-22.5104 344.71 -23.0936 345.005 -23.6927 345.26Z" fill="#260980"/>
<path d="M195.648 410.464C195.792 410.711 171.804 424.446 171.842 424.729C171.879 425.013 171.859 425.301 171.783 425.576C171.707 425.852 171.577 426.109 171.401 426.334C171.231 426.55 196.784 412.24 198.516 411.269C198.297 411.385 198.059 411.463 197.812 411.499C197.532 411.539 197.246 411.524 196.971 411.454C196.696 411.384 196.438 411.26 196.211 411.09C195.984 410.92 195.792 410.708 195.648 410.464Z" fill="#260980"/>
</g>
<path d="M78.1051 428.517C72.9288 428.595 67.8177 427.357 63.2505 424.92L-76.9971 343.742C-78.9999 342.992 -80.7259 341.648 -81.9444 339.891C-83.1629 338.133 -83.8158 336.045 -83.8158 333.907C-83.8158 331.768 -83.1629 329.68 -81.9444 327.923C-80.7259 326.165 -78.9999 324.821 -76.9971 324.071L127.369 206.105C131.95 203.73 137.034 202.49 142.194 202.49C147.354 202.49 152.439 203.73 157.02 206.105L297.615 287.341C299.599 288.102 301.306 289.446 302.51 291.197C303.713 292.948 304.358 295.023 304.358 297.147C304.358 299.272 303.713 301.347 302.51 303.098C301.306 304.848 299.599 306.193 297.615 306.954L145.473 394.804C145.229 394.949 144.959 395.045 144.678 395.085C144.397 395.125 144.112 395.11 143.837 395.04C143.562 394.97 143.304 394.846 143.077 394.677C142.85 394.507 142.658 394.294 142.513 394.05C142.369 393.806 142.273 393.536 142.233 393.256C142.192 392.975 142.208 392.689 142.278 392.414C142.348 392.139 142.471 391.881 142.641 391.654C142.811 391.427 143.024 391.236 143.268 391.091L295.469 303.182C296.785 302.813 297.946 302.024 298.772 300.934C299.598 299.845 300.046 298.515 300.046 297.147C300.046 295.78 299.598 294.45 298.772 293.36C297.946 292.271 296.785 291.482 295.469 291.113L154.873 209.877C150.938 207.902 146.597 206.873 142.194 206.873C137.792 206.873 133.45 207.902 129.516 209.877L-75.1403 327.843C-76.3666 328.375 -77.4337 329.216 -78.2373 330.284C-79.0408 331.352 -79.5532 332.61 -79.7243 333.936C-79.5227 335.215 -78.995 336.421 -78.1921 337.437C-77.3892 338.453 -76.3382 339.246 -75.1403 339.738L65.4555 420.974C69.3876 422.922 73.7167 423.936 78.1051 423.936C82.4934 423.936 86.8225 422.922 90.7546 420.974L115.473 406.7C115.72 406.556 115.993 406.462 116.277 406.425C116.56 406.388 116.848 406.408 117.124 406.484C117.4 406.559 117.657 406.689 117.882 406.866C118.107 407.042 118.294 407.262 118.433 407.512C118.577 407.759 118.67 408.032 118.707 408.315C118.744 408.599 118.725 408.887 118.649 409.162C118.573 409.438 118.443 409.696 118.267 409.921C118.09 410.145 117.87 410.333 117.62 410.471L92.9596 424.745C88.4085 427.243 83.2964 428.541 78.1051 428.517Z" fill="white"/>
<path d="M78.1053 451.785C72.9259 451.892 67.8077 450.652 63.2508 448.188L-76.9969 367.068C-78.9183 366.196 -80.5657 364.817 -81.7619 363.079C-82.9581 361.341 -83.6578 359.31 -83.7858 357.204V333.994C-83.7936 333.707 -83.7438 333.422 -83.6394 333.154C-83.535 332.887 -83.3781 332.643 -83.1779 332.438C-82.9778 332.232 -82.7385 332.069 -82.4741 331.958C-82.2098 331.846 -81.9258 331.789 -81.6389 331.789C-81.0541 331.789 -80.4932 332.021 -80.0797 332.435C-79.6662 332.848 -79.4339 333.409 -79.4339 333.994V357.204C-79.2628 358.529 -78.7505 359.788 -77.9469 360.856C-77.1433 361.924 -76.0762 362.765 -74.8499 363.297L65.7458 444.532C69.6702 446.507 74.0023 447.535 78.3954 447.535C82.7885 447.535 87.1207 446.507 91.045 444.532L295.469 326.566C296.658 326.06 297.7 325.264 298.501 324.25C299.302 323.236 299.836 322.038 300.053 320.764V297.554C300.001 297.238 300.019 296.915 300.104 296.607C300.19 296.299 300.341 296.013 300.548 295.77C300.755 295.526 301.013 295.33 301.303 295.196C301.593 295.062 301.909 294.992 302.229 294.992C302.548 294.992 302.864 295.062 303.155 295.196C303.445 295.33 303.702 295.526 303.909 295.77C304.116 296.013 304.268 296.299 304.353 296.607C304.439 296.915 304.456 297.238 304.405 297.554V320.764C304.236 322.829 303.518 324.812 302.324 326.506C301.13 328.2 299.504 329.543 297.616 330.396L93.2499 448.362C88.5906 450.815 83.3667 451.996 78.1053 451.785Z" fill="white"/>
<path d="M-82.2771 329.991C-83.9266 330.03 -85.5541 329.608 -86.9771 328.773C-88.717 327.61 -90.1102 325.998 -91.0091 324.109C-91.908 322.219 -92.2792 320.121 -92.0834 318.038V155.567C-91.8028 150.405 -90.2859 145.386 -87.6604 140.932C-85.0349 136.479 -81.3777 132.722 -76.9967 129.977L127.369 11.9535C129.023 10.6032 131.049 9.78908 133.177 9.61958C135.306 9.45009 137.435 9.93321 139.282 11.0047C141.129 12.0762 142.605 13.6851 143.514 15.6169C144.423 17.5488 144.722 19.7119 144.371 21.8178V184.289C144.14 189.445 142.676 194.47 140.101 198.943C137.527 203.416 133.917 207.206 129.574 209.994C129.073 210.293 128.475 210.381 127.91 210.24C127.344 210.099 126.858 209.739 126.557 209.24C126.278 208.729 126.207 208.131 126.359 207.569C126.51 207.007 126.872 206.525 127.369 206.223C131.029 203.793 134.075 200.547 136.27 196.742C138.465 192.936 139.748 188.674 140.019 184.289V21.8178C140.374 20.4899 140.284 19.0819 139.76 17.8107C139.237 16.5394 138.31 15.4756 137.123 14.7829C135.936 14.0902 134.553 13.8072 133.189 13.9774C131.825 14.1477 130.555 14.7618 129.574 15.7251L-75.0819 133.749C-78.7415 136.179 -81.7883 139.424 -83.983 143.23C-86.1777 147.036 -87.4608 151.298 -87.7315 155.683V318.154C-87.8937 319.481 -87.706 320.827 -87.1868 322.059C-86.6676 323.29 -85.8352 324.365 -84.7721 325.175C-83.5367 325.676 -82.1925 325.849 -80.8705 325.676C-79.5485 325.503 -78.2939 324.991 -77.2289 324.189C-76.982 324.045 -76.7088 323.951 -76.4254 323.914C-76.142 323.877 -75.854 323.897 -75.5784 323.973C-75.3027 324.048 -75.045 324.178 -74.8203 324.355C-74.5955 324.531 -74.4083 324.751 -74.2695 325.001C-74.1255 325.248 -74.0322 325.521 -73.9951 325.804C-73.958 326.088 -73.9778 326.376 -74.0535 326.652C-74.1291 326.927 -74.2591 327.185 -74.4357 327.41C-74.6123 327.634 -74.832 327.822 -75.0819 327.96C-77.2595 329.259 -79.7417 329.96 -82.2771 329.991Z" fill="white"/>
<path d="M-30.5767 88.0822C-30.9635 88.0774 -31.3426 87.9736 -31.6778 87.7805C-32.013 87.5875 -32.2932 87.3118 -32.4915 86.9797C-32.6356 86.7328 -32.7289 86.4597 -32.766 86.1763C-32.8031 85.8929 -32.7833 85.6049 -32.7076 85.3292C-32.6319 85.0536 -32.502 84.7959 -32.3254 84.5712C-32.1488 84.3464 -31.9291 84.1591 -31.6792 84.0204L110.135 2.14645C112.954 0.282404 116.39 -0.404867 119.709 0.231598H120.232L138.568 10.4441C139.068 10.7288 139.434 11.2005 139.587 11.7555C139.739 12.3105 139.665 12.9033 139.38 13.4034C139.095 13.9036 138.624 14.2701 138.069 14.4224C137.514 14.5748 136.921 14.5005 136.421 14.2158L118.375 4.17729C116.327 4.02462 114.286 4.55525 112.572 5.68601L-29.4162 88.0822C-29.7957 88.1887 -30.1972 88.1887 -30.5767 88.0822Z" fill="white"/>
<path d="M-89.8786 311.133C-90.2654 311.128 -90.6445 311.024 -90.9797 310.831C-91.3149 310.638 -91.5951 310.362 -91.7934 310.03C-91.9375 309.783 -92.0308 309.51 -92.0679 309.227C-92.105 308.943 -92.0851 308.655 -92.0095 308.38C-91.9338 308.104 -91.8039 307.846 -91.6273 307.622C-91.4507 307.397 -91.231 307.21 -90.9811 307.071L141.121 173.148C141.368 173.004 141.641 172.911 141.924 172.874C142.208 172.837 142.496 172.856 142.771 172.932C143.047 173.008 143.305 173.138 143.53 173.314C143.754 173.491 143.942 173.711 144.08 173.961C144.235 174.202 144.338 174.472 144.384 174.755C144.43 175.037 144.417 175.326 144.346 175.604C144.275 175.882 144.148 176.142 143.973 176.368C143.797 176.594 143.577 176.782 143.326 176.92L-88.602 310.843C-88.992 311.057 -89.4343 311.157 -89.8786 311.133Z" fill="white"/>
<path d="M-0.693163 322.215C-1.05319 322.32 -1.43563 322.32 -1.79566 322.215L-8.35253 318.443C-8.60367 318.306 -8.82383 318.118 -8.99931 317.891C-9.17479 317.665 -9.30185 317.405 -9.3726 317.127C-9.44334 316.85 -9.45625 316.561 -9.41054 316.278C-9.36482 315.995 -9.26148 315.725 -9.10689 315.484C-8.96817 315.234 -8.78092 315.014 -8.55617 314.838C-8.33142 314.661 -8.07368 314.531 -7.79805 314.455C-7.52241 314.38 -7.23445 314.36 -6.95103 314.397C-6.66761 314.434 -6.39445 314.527 -6.14757 314.672L0.409291 318.443C0.659209 318.582 0.878943 318.769 1.05554 318.994C1.23215 319.219 1.36206 319.476 1.43773 319.752C1.51339 320.028 1.53327 320.316 1.49616 320.599C1.45906 320.882 1.36576 321.156 1.22169 321.403C0.990737 321.681 0.696301 321.9 0.363118 322.042C0.0299339 322.183 -0.332288 322.242 -0.693163 322.215Z" fill="white"/>
<path d="M17.0046 312.002C16.6158 312.024 16.2301 311.922 15.9021 311.712L9.34523 307.941C9.09532 307.802 8.87563 307.615 8.69903 307.39C8.52243 307.165 8.39247 306.907 8.3168 306.632C8.24113 306.356 8.2213 306.068 8.25841 305.785C8.29551 305.501 8.38881 305.228 8.53288 304.981C8.83492 304.484 9.31693 304.122 9.87882 303.971C10.4407 303.819 11.0393 303.89 11.5502 304.169L18.1071 307.941C18.3522 308.084 18.5663 308.275 18.7371 308.502C18.908 308.729 19.0321 308.988 19.1022 309.263C19.1724 309.538 19.1872 309.824 19.1459 310.105C19.1046 310.387 19.0079 310.656 18.8614 310.9C18.6769 311.231 18.4079 311.508 18.0817 311.702C17.7556 311.895 17.3839 311.999 17.0046 312.002Z" fill="white"/>
<path d="M34.702 301.79C34.3132 301.811 33.9275 301.71 33.5995 301.5L27.0427 297.728C26.7927 297.589 26.573 297.402 26.3964 297.177C26.2198 296.953 26.0899 296.695 26.0142 296.419C25.9386 296.144 25.9187 295.856 25.9558 295.572C25.9929 295.289 26.0862 295.016 26.2303 294.769C26.5215 294.275 26.9931 293.915 27.5454 293.763C28.0978 293.612 28.6874 293.681 29.1896 293.956L35.7465 297.728C36.2397 298.019 36.6003 298.491 36.7519 299.043C36.9036 299.595 36.8343 300.185 36.5588 300.687C36.3743 301.019 36.1053 301.295 35.7791 301.489C35.4529 301.683 35.0813 301.786 34.702 301.79Z" fill="white"/>
<path d="M52.3421 291.579C52.0016 291.682 51.6381 291.682 51.2976 291.579L44.8568 287.517C44.3566 287.232 43.9901 286.76 43.8377 286.205C43.6854 285.65 43.7597 285.058 44.0444 284.557C44.3291 284.057 44.8009 283.691 45.3558 283.538C45.9108 283.386 46.5036 283.46 47.0037 283.745L53.5606 287.517C54.0539 287.808 54.4144 288.28 54.5661 288.832C54.7177 289.384 54.6484 289.974 54.373 290.476C54.1647 290.825 53.8662 291.112 53.5089 291.306C53.1515 291.5 52.7484 291.594 52.3421 291.579Z" fill="white"/>
<path d="M70.0398 281.366C69.6518 281.38 69.2683 281.279 68.9374 281.076L62.2644 277.304C61.7643 277.019 61.3977 276.548 61.2454 275.993C61.093 275.438 61.1674 274.845 61.4521 274.345C61.7368 273.845 62.2085 273.478 62.7635 273.326C63.3185 273.173 63.9112 273.248 64.4114 273.532L70.9683 277.304C71.4615 277.595 71.8221 278.067 71.9737 278.619C72.1253 279.172 72.0561 279.761 71.7806 280.263C71.5984 280.572 71.3456 280.833 71.043 281.024C70.7404 281.216 70.3965 281.333 70.0398 281.366Z" fill="white"/>
<path d="M87.7377 271.153C87.3497 271.167 86.9662 271.066 86.6352 270.863L80.0784 267.092C79.8272 266.954 79.6071 266.766 79.4316 266.54C79.2561 266.313 79.1291 266.053 79.0583 265.776C78.9876 265.498 78.9747 265.209 79.0204 264.926C79.0661 264.644 79.1695 264.373 79.3241 264.132C79.4628 263.882 79.65 263.663 79.8747 263.486C80.0995 263.309 80.3573 263.179 80.6329 263.104C80.9085 263.028 81.1965 263.008 81.4799 263.045C81.7633 263.082 82.0365 263.176 82.2833 263.32L88.8402 267.092C89.0853 267.235 89.2995 267.426 89.4703 267.653C89.6411 267.88 89.7652 268.138 89.8353 268.414C89.9055 268.689 89.9204 268.975 89.879 269.256C89.8377 269.537 89.741 269.807 89.5946 270.051C89.4149 270.386 89.1469 270.666 88.8197 270.861C88.4924 271.055 88.1183 271.156 87.7377 271.153Z" fill="white"/>
<path d="M6.84987 346.992C6.46429 346.986 6.08597 346.886 5.74742 346.702L-0.809495 342.93C-1.30274 342.639 -1.66333 342.167 -1.81495 341.615C-1.96657 341.063 -1.89731 340.473 -1.62185 339.971C-1.31981 339.473 -0.837796 339.112 -0.275909 338.96C0.285978 338.809 0.884578 338.88 1.3955 339.158L7.95237 342.93C8.3483 343.183 8.65313 343.556 8.82245 343.994C8.99177 344.432 9.01674 344.913 8.89368 345.366C8.77063 345.819 8.50603 346.222 8.13839 346.514C7.77075 346.807 7.31929 346.974 6.84987 346.992Z" fill="white"/>
<path d="M24.5477 336.78C24.1621 336.774 23.7837 336.674 23.4452 336.49L16.8883 332.718C16.5973 332.598 16.3356 332.416 16.1206 332.186C15.9056 331.956 15.7423 331.683 15.6419 331.384C15.5414 331.086 15.5061 330.769 15.5382 330.456C15.5704 330.143 15.6692 329.84 15.8282 329.568C15.9871 329.296 16.2024 329.061 16.4596 328.88C16.7169 328.698 17.01 328.574 17.3194 328.515C17.6288 328.456 17.9471 328.464 18.2531 328.538C18.5591 328.613 18.8456 328.752 19.0933 328.946L25.5921 332.718C25.842 332.857 26.0617 333.044 26.2383 333.269C26.4149 333.494 26.5449 333.751 26.6206 334.027C26.6962 334.303 26.7161 334.591 26.679 334.874C26.6419 335.157 26.5485 335.431 26.4045 335.677C26.22 336.009 25.9509 336.285 25.6248 336.479C25.2986 336.673 24.927 336.777 24.5477 336.78Z" fill="white"/>
<path d="M42.188 326.567C41.8441 326.644 41.4874 326.644 41.1435 326.567L34.5866 322.795C34.0934 322.504 33.7328 322.032 33.5812 321.48C33.4296 320.928 33.4988 320.338 33.7742 319.836C33.913 319.586 34.1002 319.366 34.325 319.189C34.5497 319.013 34.8074 318.883 35.0831 318.807C35.3587 318.732 35.6467 318.712 35.9301 318.749C36.2136 318.786 36.4867 318.879 36.7336 319.023L43.2905 322.795C43.5404 322.934 43.7601 323.121 43.9367 323.346C44.1133 323.57 44.2432 323.828 44.3189 324.104C44.3945 324.38 44.4144 324.667 44.3773 324.951C44.3402 325.234 44.2469 325.507 44.1028 325.754C43.8719 326.033 43.5774 326.252 43.2442 326.394C42.9111 326.535 42.5488 326.594 42.188 326.567Z" fill="white"/>
<path d="M59.8856 316.354C59.5012 316.34 59.1248 316.24 58.7831 316.064L52.2843 312.292C51.7841 312.007 51.4176 311.536 51.2652 310.981C51.1129 310.426 51.1872 309.833 51.4719 309.333C51.7566 308.833 52.2284 308.466 52.7833 308.314C53.3383 308.161 53.9311 308.236 54.4312 308.52L60.9881 312.292C61.238 312.431 61.4577 312.618 61.6343 312.843C61.8109 313.068 61.9409 313.325 62.0165 313.601C62.0922 313.877 62.1121 314.165 62.075 314.448C62.0379 314.731 61.9445 315.004 61.8005 315.251C61.6021 315.583 61.322 315.859 60.9867 316.052C60.6515 316.245 60.2724 316.349 59.8856 316.354Z" fill="white"/>
<path d="M77.5834 306.143C77.199 306.128 76.8225 306.029 76.4809 305.852L69.924 302.081C69.5049 301.752 69.2192 301.282 69.1195 300.759C69.0199 300.235 69.1132 299.694 69.3821 299.234C69.651 298.774 70.0774 298.427 70.5823 298.257C71.0873 298.087 71.6367 298.105 72.129 298.309L78.6859 302.081C78.9358 302.22 79.1555 302.407 79.3321 302.631C79.5087 302.856 79.6387 303.114 79.7143 303.39C79.79 303.665 79.8098 303.953 79.7727 304.237C79.7356 304.52 79.6423 304.793 79.4983 305.04C79.2999 305.372 79.0198 305.648 78.6845 305.841C78.3493 306.034 77.9702 306.138 77.5834 306.143Z" fill="white"/>
<path d="M95.281 295.93C94.922 296.041 94.5375 296.041 94.1785 295.93L87.6216 292.158C87.3717 292.019 87.152 291.832 86.9754 291.607C86.7988 291.382 86.6689 291.125 86.5932 290.849C86.5175 290.573 86.4977 290.285 86.5348 290.002C86.5719 289.719 86.6652 289.445 86.8093 289.199C87.1113 288.701 87.5933 288.339 88.1552 288.188C88.7171 288.037 89.3157 288.108 89.8266 288.386L96.3835 292.158C96.6285 292.301 96.8427 292.492 97.0135 292.719C97.1844 292.946 97.3084 293.205 97.3786 293.48C97.4488 293.755 97.4636 294.042 97.4222 294.323C97.3809 294.604 97.2843 294.874 97.1378 295.117C96.9191 295.395 96.6352 295.615 96.3113 295.756C95.9874 295.898 95.6335 295.958 95.281 295.93Z" fill="white"/>
<path d="M112.979 285.717C112.59 285.738 112.205 285.637 111.877 285.427L105.32 281.655C105.07 281.516 104.85 281.329 104.673 281.104C104.497 280.879 104.367 280.622 104.291 280.346C104.216 280.071 104.196 279.783 104.233 279.499C104.27 279.216 104.363 278.943 104.507 278.696C104.809 278.198 105.291 277.836 105.853 277.685C106.415 277.534 107.014 277.605 107.525 277.883L114.023 281.655C114.517 281.946 114.877 282.418 115.029 282.97C115.181 283.522 115.111 284.112 114.836 284.614C114.651 284.946 114.382 285.222 114.056 285.416C113.73 285.61 113.358 285.713 112.979 285.717Z" fill="white"/>
<path d="M9.11291 368.752C8.74707 368.736 8.38968 368.637 8.06849 368.461L1.51158 364.69C1.01422 364.388 0.65231 363.906 0.501033 363.344C0.349755 362.782 0.420737 362.183 0.699229 361.672C0.842819 361.427 1.03362 361.213 1.26057 361.042C1.48752 360.872 1.7461 360.748 2.02135 360.677C2.2966 360.607 2.58305 360.592 2.86407 360.634C3.1451 360.675 3.41515 360.772 3.65854 360.918L10.2154 364.69C10.4653 364.829 10.685 365.016 10.8616 365.24C11.0382 365.465 11.1682 365.723 11.2438 365.999C11.3195 366.274 11.3394 366.562 11.3023 366.846C11.2652 367.129 11.1718 367.402 11.0278 367.649C10.8294 367.981 10.5493 368.257 10.214 368.45C9.87881 368.643 9.4997 368.747 9.11291 368.752Z" fill="white"/>
<path d="M26.8109 358.539C26.4265 358.525 26.05 358.426 25.7084 358.249L19.2096 354.478C18.9577 354.333 18.7367 354.141 18.5595 353.911C18.3822 353.681 18.2521 353.418 18.1766 353.138C18.1012 352.857 18.0818 352.565 18.1197 352.277C18.1575 351.989 18.2518 351.712 18.3972 351.46C18.5349 351.209 18.7227 350.989 18.9491 350.814C19.1754 350.638 19.4354 350.511 19.713 350.44C19.9905 350.37 20.2796 350.357 20.5624 350.402C20.8451 350.448 21.1154 350.552 21.3565 350.706L27.9134 354.478C28.1633 354.616 28.383 354.804 28.5596 355.028C28.7362 355.253 28.8662 355.511 28.9418 355.787C29.0175 356.062 29.0373 356.35 29.0002 356.633C28.9631 356.917 28.8698 357.19 28.7258 357.437C28.5274 357.769 28.2473 358.045 27.912 358.238C27.5768 358.431 27.1977 358.535 26.8109 358.539Z" fill="white"/>
<path d="M44.5089 348.327C44.1456 348.405 43.7697 348.405 43.4064 348.327L36.8496 344.555C36.3506 344.254 35.9911 343.768 35.8498 343.202C35.7084 342.637 35.7967 342.038 36.0952 341.538C36.2388 341.293 36.4296 341.079 36.6566 340.908C36.8835 340.737 37.1421 340.613 37.4173 340.543C37.6926 340.473 37.979 340.458 38.2601 340.499C38.5411 340.54 38.8111 340.637 39.0545 340.784L45.6114 344.555C45.8625 344.693 46.0827 344.881 46.2582 345.107C46.4337 345.333 46.5607 345.593 46.6315 345.871C46.7022 346.148 46.7151 346.438 46.6694 346.72C46.6237 347.003 46.5203 347.273 46.3658 347.515C46.1471 347.792 45.8632 348.012 45.5392 348.154C45.2153 348.295 44.8614 348.355 44.5089 348.327Z" fill="white"/>
<path d="M62.2642 338.114C61.8786 338.109 61.5003 338.009 61.1617 337.824L54.6049 334.053C54.3139 333.932 54.0521 333.751 53.8371 333.521C53.6221 333.291 53.4589 333.017 53.3584 332.719C53.258 332.42 53.2227 332.104 53.2548 331.79C53.2869 331.477 53.3858 331.174 53.5447 330.903C53.7037 330.631 53.919 330.396 54.1762 330.214C54.4334 330.033 54.7266 329.908 55.036 329.849C55.3453 329.79 55.6637 329.798 55.9696 329.873C56.2756 329.947 56.5621 330.087 56.8098 330.281L63.3667 334.053C63.7626 334.305 64.0675 334.678 64.2368 335.116C64.4061 335.554 64.4311 336.035 64.308 336.489C64.185 336.942 63.9203 337.344 63.5527 337.637C63.1851 337.929 62.7336 338.096 62.2642 338.114Z" fill="white"/>
<path d="M79.6721 327.902C79.2865 327.896 78.9082 327.796 78.5696 327.612L72.0127 323.84C71.5154 323.538 71.1535 323.056 71.0022 322.494C70.8509 321.932 70.9219 321.333 71.2004 320.823C71.344 320.577 71.5348 320.363 71.7617 320.192C71.9887 320.022 72.2473 319.898 72.5225 319.827C72.7978 319.757 73.0842 319.742 73.3652 319.784C73.6463 319.825 73.9163 319.922 74.1597 320.068L80.7166 323.84C80.9665 323.979 81.1862 324.166 81.3628 324.391C81.5394 324.615 81.6693 324.873 81.745 325.149C81.8207 325.424 81.8405 325.712 81.8034 325.996C81.7663 326.279 81.673 326.552 81.5289 326.799C81.3399 327.127 81.0699 327.4 80.7447 327.593C80.4195 327.786 80.0502 327.893 79.6721 327.902Z" fill="white"/>
<path d="M97.5437 317.689C97.1999 317.767 96.8431 317.767 96.4993 317.689L89.9424 313.917C89.445 313.615 89.0831 313.133 88.9318 312.572C88.7805 312.01 88.8515 311.411 89.13 310.9C89.2736 310.655 89.4644 310.441 89.6914 310.27C89.9183 310.099 90.1769 309.975 90.4522 309.905C90.7274 309.835 91.0138 309.82 91.2949 309.861C91.5759 309.903 91.8459 309.999 92.0893 310.146L98.6462 313.917C98.8961 314.056 99.1158 314.243 99.2924 314.468C99.469 314.693 99.599 314.951 99.6746 315.226C99.7503 315.502 99.7702 315.79 99.7331 316.073C99.696 316.357 99.6027 316.63 99.4586 316.877C99.2276 317.155 98.9332 317.375 98.6 317.516C98.2668 317.657 97.9046 317.717 97.5437 317.689Z" fill="white"/>
<path d="M115.242 307.476C114.857 307.462 114.481 307.363 114.139 307.186L107.64 303.415C107.388 303.27 107.167 303.078 106.99 302.848C106.813 302.618 106.683 302.355 106.607 302.075C106.532 301.794 106.512 301.502 106.55 301.214C106.588 300.926 106.682 300.648 106.828 300.397C106.971 300.152 107.162 299.938 107.389 299.767C107.616 299.596 107.875 299.472 108.15 299.402C108.425 299.332 108.712 299.317 108.993 299.358C109.274 299.4 109.544 299.496 109.787 299.643L116.344 303.415C116.594 303.553 116.814 303.74 116.99 303.965C117.167 304.19 117.297 304.448 117.372 304.723C117.448 304.999 117.468 305.287 117.431 305.57C117.394 305.854 117.3 306.127 117.156 306.374C116.958 306.706 116.678 306.982 116.343 307.175C116.007 307.368 115.628 307.472 115.242 307.476Z" fill="white"/>
<path d="M132.939 297.265C132.575 297.242 132.219 297.143 131.895 296.974L125.338 293.203C124.919 292.874 124.633 292.404 124.533 291.881C124.434 291.357 124.527 290.816 124.796 290.356C125.065 289.896 125.491 289.549 125.996 289.379C126.501 289.209 127.051 289.227 127.543 289.431L134.1 293.203C134.351 293.34 134.571 293.528 134.747 293.755C134.922 293.981 135.049 294.241 135.12 294.519C135.191 294.796 135.203 295.085 135.158 295.368C135.112 295.651 135.009 295.921 134.854 296.162C134.67 296.506 134.393 296.792 134.054 296.987C133.716 297.182 133.33 297.278 132.939 297.265Z" fill="white"/>
<path d="M29.132 380.298C28.7464 380.293 28.368 380.193 28.0295 380.008L21.6467 376.179C21.3967 376.04 21.1771 375.853 21.0005 375.628C20.8239 375.403 20.6939 375.146 20.6182 374.87C20.5426 374.594 20.5227 374.306 20.5598 374.023C20.5969 373.74 20.6902 373.466 20.8343 373.22C21.1363 372.722 21.6184 372.36 22.1802 372.209C22.7421 372.058 23.3407 372.129 23.8516 372.407L30.3505 376.237C30.6004 376.376 30.8201 376.563 30.9967 376.788C31.1733 377.012 31.3033 377.27 31.3789 377.546C31.4546 377.821 31.4745 378.109 31.4374 378.393C31.4003 378.676 31.3069 378.949 31.1628 379.196C30.9647 379.554 30.6682 379.848 30.3084 380.044C29.9486 380.239 29.5404 380.327 29.132 380.298Z" fill="white"/>
<path d="M46.7717 370.086C46.4059 370.071 46.0484 369.971 45.7272 369.795L39.0543 365.966C38.5541 365.681 38.1876 365.209 38.0352 364.654C37.8829 364.099 37.9572 363.507 38.2419 363.006C38.5266 362.506 38.9984 362.14 39.5533 361.987C40.1083 361.835 40.7011 361.909 41.2013 362.194L47.7581 366.024C48.008 366.162 48.2277 366.35 48.4043 366.574C48.5809 366.799 48.7109 367.057 48.7866 367.332C48.8622 367.608 48.8821 367.896 48.845 368.18C48.8079 368.463 48.7145 368.736 48.5705 368.983C48.3827 369.299 48.1209 369.565 47.8074 369.757C47.494 369.949 47.1385 370.062 46.7717 370.086Z" fill="white"/>
<path d="M135.202 319.024C134.836 319.009 134.479 318.909 134.158 318.734L127.601 314.962C127.104 314.66 126.742 314.178 126.59 313.616C126.439 313.054 126.51 312.456 126.789 311.945C126.926 311.694 127.114 311.473 127.34 311.298C127.567 311.122 127.827 310.995 128.104 310.925C128.382 310.854 128.671 310.841 128.954 310.887C129.236 310.932 129.507 311.036 129.748 311.19L136.305 314.962C136.555 315.101 136.774 315.288 136.951 315.513C137.128 315.737 137.258 315.995 137.333 316.271C137.409 316.546 137.429 316.834 137.392 317.118C137.354 317.401 137.261 317.674 137.117 317.921C136.919 318.253 136.639 318.529 136.303 318.722C135.968 318.915 135.589 319.019 135.202 319.024Z" fill="white"/>
<path d="M152.9 308.579C152.557 308.665 152.199 308.665 151.856 308.579L145.299 304.808C144.802 304.506 144.44 304.024 144.288 303.462C144.137 302.9 144.208 302.301 144.487 301.79C144.624 301.539 144.812 301.319 145.038 301.144C145.265 300.968 145.525 300.841 145.802 300.77C146.08 300.7 146.369 300.687 146.652 300.732C146.934 300.778 147.205 300.881 147.446 301.036L154.003 304.808C154.253 304.946 154.472 305.134 154.649 305.358C154.826 305.583 154.956 305.841 155.031 306.117C155.107 306.392 155.127 306.68 155.09 306.964C155.053 307.247 154.959 307.52 154.815 307.767C154.584 308.046 154.29 308.265 153.957 308.406C153.623 308.548 153.261 308.607 152.9 308.579Z" fill="white"/>
<path d="M118.839 253.223C118.455 253.209 118.078 253.109 117.736 252.933L111.238 249.103C110.99 248.962 110.772 248.774 110.598 248.549C110.423 248.324 110.294 248.066 110.219 247.792C110.143 247.517 110.123 247.23 110.158 246.947C110.193 246.664 110.284 246.391 110.425 246.144C110.566 245.896 110.755 245.679 110.98 245.504C111.205 245.329 111.462 245.2 111.737 245.125C112.011 245.049 112.298 245.029 112.581 245.064C112.864 245.1 113.137 245.19 113.385 245.331L119.941 249.161C120.191 249.3 120.411 249.487 120.588 249.712C120.764 249.936 120.894 250.194 120.97 250.47C121.046 250.746 121.065 251.033 121.028 251.317C120.991 251.6 120.898 251.874 120.754 252.12C120.555 252.452 120.275 252.728 119.94 252.921C119.605 253.114 119.226 253.218 118.839 253.223Z" fill="white"/>
<path d="M136.537 243.01C136.174 243.089 135.798 243.089 135.434 243.01L128.877 239.181C128.458 238.852 128.173 238.382 128.073 237.859C127.973 237.335 128.067 236.793 128.335 236.333C128.604 235.873 129.031 235.526 129.536 235.357C130.041 235.187 130.59 235.205 131.082 235.409L137.697 238.949C137.947 239.087 138.167 239.275 138.344 239.499C138.52 239.724 138.65 239.982 138.726 240.257C138.801 240.533 138.821 240.821 138.784 241.104C138.747 241.388 138.654 241.661 138.51 241.908C138.306 242.248 138.017 242.53 137.671 242.723C137.324 242.917 136.933 243.016 136.537 243.01Z" fill="white"/>
<path d="M154.235 232.798C153.85 232.792 153.471 232.692 153.133 232.508L146.576 228.678C146.083 228.386 145.727 227.91 145.586 227.355C145.444 226.8 145.529 226.211 145.822 225.719C146.114 225.226 146.59 224.87 147.145 224.729C147.7 224.587 148.288 224.672 148.781 224.964L155.338 228.736C155.589 228.874 155.809 229.062 155.985 229.288C156.16 229.514 156.287 229.774 156.358 230.052C156.429 230.329 156.441 230.618 156.396 230.901C156.35 231.184 156.247 231.454 156.092 231.695C155.908 232.027 155.639 232.303 155.312 232.497C154.986 232.691 154.615 232.794 154.235 232.798Z" fill="white"/>
<path d="M144.08 267.962C143.686 267.962 143.301 267.84 142.978 267.613L136.421 263.842C136.17 263.704 135.95 263.516 135.774 263.29C135.599 263.064 135.472 262.804 135.401 262.526C135.33 262.248 135.317 261.959 135.363 261.677C135.409 261.394 135.512 261.124 135.667 260.882C135.805 260.633 135.993 260.413 136.217 260.236C136.442 260.06 136.7 259.93 136.975 259.854C137.251 259.778 137.539 259.759 137.822 259.796C138.106 259.833 138.379 259.926 138.626 260.07L145.183 263.9C145.434 264.037 145.654 264.225 145.83 264.452C146.005 264.678 146.132 264.938 146.203 265.216C146.274 265.493 146.286 265.782 146.241 266.065C146.195 266.348 146.092 266.618 145.937 266.859C145.753 267.19 145.484 267.467 145.157 267.661C144.831 267.854 144.46 267.958 144.08 267.962Z" fill="white"/>
<path d="M161.778 257.575C161.392 257.569 161.014 257.47 160.676 257.285L154.119 253.455C153.869 253.317 153.649 253.129 153.472 252.905C153.296 252.68 153.166 252.422 153.09 252.146C153.015 251.871 152.995 251.583 153.032 251.299C153.069 251.016 153.162 250.743 153.306 250.496C153.608 249.999 154.09 249.637 154.652 249.485C155.214 249.334 155.813 249.405 156.324 249.684L162.822 253.513C163.259 253.734 163.608 254.097 163.81 254.543C164.012 254.989 164.055 255.49 163.933 255.964C163.812 256.438 163.531 256.856 163.139 257.149C162.747 257.442 162.267 257.592 161.778 257.575Z" fill="white"/>
<path d="M179.418 247.363C179.074 247.44 178.717 247.44 178.374 247.363L171.817 243.533C171.317 243.248 170.95 242.776 170.798 242.221C170.645 241.666 170.72 241.074 171.004 240.574C171.289 240.073 171.761 239.707 172.316 239.554C172.871 239.402 173.463 239.476 173.964 239.761L180.521 243.591C180.77 243.73 180.99 243.917 181.167 244.142C181.343 244.366 181.473 244.624 181.549 244.9C181.625 245.175 181.644 245.463 181.607 245.747C181.57 246.03 181.477 246.303 181.333 246.55C181.102 246.829 180.808 247.048 180.474 247.189C180.141 247.331 179.779 247.39 179.418 247.363Z" fill="white"/>
<path d="M164.041 279.567C163.681 279.672 163.299 279.672 162.939 279.567L156.44 275.795C156.19 275.657 155.97 275.469 155.794 275.245C155.617 275.02 155.487 274.762 155.411 274.487C155.336 274.211 155.316 273.923 155.353 273.64C155.39 273.356 155.483 273.083 155.627 272.836C155.766 272.586 155.953 272.367 156.178 272.19C156.403 272.013 156.661 271.883 156.936 271.808C157.212 271.732 157.5 271.712 157.783 271.749C158.067 271.786 158.34 271.88 158.587 272.024L165.144 275.795C165.641 276.097 166.003 276.579 166.154 277.141C166.305 277.703 166.234 278.302 165.956 278.813C165.722 279.085 165.426 279.296 165.092 279.427C164.758 279.558 164.398 279.607 164.041 279.567Z" fill="white"/>
<path d="M181.739 269.064C181.351 269.078 180.967 268.977 180.636 268.774L174.079 265.002C173.828 264.864 173.608 264.676 173.433 264.45C173.257 264.224 173.13 263.964 173.059 263.686C172.989 263.409 172.976 263.12 173.021 262.837C173.067 262.554 173.17 262.284 173.325 262.043C173.464 261.793 173.651 261.573 173.876 261.396C174.1 261.22 174.358 261.09 174.634 261.014C174.909 260.939 175.197 260.919 175.481 260.956C175.764 260.993 176.037 261.086 176.284 261.23L182.841 265.002C183.34 265.303 183.7 265.79 183.841 266.355C183.982 266.92 183.894 267.519 183.596 268.019C183.413 268.348 183.143 268.62 182.815 268.804C182.487 268.989 182.115 269.079 181.739 269.064Z" fill="white"/>
<path d="M199.437 258.851C199.048 258.873 198.662 258.771 198.334 258.561L191.777 254.79C191.527 254.651 191.308 254.464 191.131 254.239C190.954 254.014 190.824 253.757 190.749 253.481C190.673 253.205 190.653 252.917 190.69 252.634C190.727 252.35 190.821 252.077 190.965 251.83C191.267 251.333 191.749 250.971 192.311 250.82C192.873 250.669 193.471 250.74 193.982 251.018L200.539 254.79C201.027 255.101 201.376 255.587 201.517 256.148C201.657 256.709 201.577 257.303 201.293 257.807C201.106 258.132 200.835 258.4 200.508 258.584C200.181 258.768 199.811 258.86 199.437 258.851Z" fill="white"/>
<path d="M184.118 290.823C183.748 290.836 183.383 290.735 183.073 290.533L176.516 286.761C176.016 286.477 175.65 286.005 175.497 285.45C175.345 284.895 175.419 284.302 175.704 283.802C175.989 283.302 176.461 282.935 177.015 282.783C177.57 282.631 178.163 282.705 178.663 282.99L185.22 286.761C185.713 287.053 186.074 287.524 186.226 288.077C186.377 288.629 186.308 289.219 186.033 289.721C185.834 290.053 185.554 290.329 185.219 290.522C184.884 290.715 184.505 290.818 184.118 290.823Z" fill="white"/>
<path d="M201.525 280.611C201.155 280.632 200.787 280.53 200.481 280.321L193.924 276.549C193.424 276.264 193.057 275.793 192.905 275.238C192.753 274.683 192.827 274.09 193.112 273.59C193.396 273.09 193.868 272.723 194.423 272.571C194.978 272.418 195.571 272.493 196.071 272.777L202.628 276.549C203.121 276.84 203.482 277.312 203.633 277.864C203.785 278.417 203.716 279.006 203.44 279.508C203.242 279.841 202.962 280.116 202.626 280.309C202.291 280.502 201.912 280.606 201.525 280.611Z" fill="white"/>
<path d="M219.397 270.398C219.037 270.503 218.655 270.503 218.295 270.398L211.738 266.627C211.319 266.298 211.033 265.828 210.933 265.305C210.834 264.781 210.927 264.239 211.196 263.779C211.465 263.319 211.891 262.972 212.396 262.802C212.901 262.632 213.451 262.651 213.943 262.855L220.5 266.627C220.993 266.918 221.354 267.389 221.505 267.942C221.657 268.494 221.588 269.084 221.312 269.586C221.081 269.865 220.787 270.084 220.454 270.225C220.12 270.367 219.758 270.426 219.397 270.398Z" fill="white"/>
<path d="M60.872 358.714C60.4025 358.696 59.9511 358.528 59.5835 358.236C59.2158 357.943 58.9512 357.541 58.8282 357.088C58.7051 356.634 58.7301 356.154 58.8994 355.715C59.0687 355.277 59.3735 354.905 59.7695 354.652L115.474 322.506C115.721 322.361 115.994 322.268 116.277 322.231C116.561 322.194 116.849 322.214 117.124 322.289C117.4 322.365 117.658 322.495 117.883 322.672C118.107 322.848 118.295 323.068 118.433 323.318C118.577 323.565 118.671 323.838 118.708 324.121C118.745 324.405 118.725 324.693 118.649 324.968C118.574 325.244 118.444 325.502 118.267 325.727C118.09 325.951 117.871 326.139 117.621 326.277L62.2646 358.423C62.0629 358.561 61.8361 358.657 61.5971 358.707C61.3582 358.757 61.1118 358.759 60.872 358.714Z" fill="white"/>
<path d="M155.106 363.587C152.267 363.626 149.468 362.927 146.982 361.556C146.732 361.418 146.512 361.23 146.336 361.006C146.159 360.781 146.029 360.523 145.954 360.248C145.878 359.972 145.858 359.684 145.895 359.401C145.932 359.117 146.026 358.844 146.17 358.597C146.308 358.347 146.496 358.128 146.72 357.951C146.945 357.774 147.203 357.644 147.478 357.569C147.754 357.493 148.042 357.473 148.326 357.51C148.609 357.547 148.882 357.641 149.129 357.785C150.98 358.727 153.028 359.219 155.106 359.219C157.183 359.219 159.231 358.727 161.082 357.785L187.542 342.524C188.702 341.886 189.399 341.073 189.399 340.319C189.399 339.565 188.702 338.81 187.542 338.172L174.602 330.687C172.743 329.771 170.698 329.294 168.626 329.294C166.553 329.294 164.508 329.771 162.649 330.687L136.189 345.948C135.087 346.644 134.39 347.456 134.39 348.153C134.495 348.636 134.712 349.088 135.025 349.471C135.338 349.854 135.737 350.158 136.189 350.358C136.439 350.496 136.659 350.683 136.836 350.908C137.012 351.133 137.142 351.391 137.218 351.666C137.293 351.942 137.313 352.23 137.276 352.513C137.239 352.797 137.146 353.07 137.002 353.317C136.863 353.567 136.676 353.786 136.451 353.963C136.226 354.14 135.968 354.27 135.693 354.345C135.417 354.421 135.129 354.441 134.846 354.404C134.562 354.367 134.289 354.273 134.042 354.129C132.926 353.596 131.969 352.78 131.267 351.762C130.564 350.744 130.141 349.559 130.039 348.327C130.146 347.096 130.572 345.914 131.274 344.897C131.976 343.879 132.93 343.062 134.042 342.524L160.502 327.263C163.026 325.975 165.82 325.303 168.655 325.303C171.489 325.303 174.283 325.975 176.807 327.263L189.689 334.749C190.887 335.215 191.916 336.033 192.641 337.094C193.367 338.155 193.755 339.411 193.755 340.696C193.755 341.982 193.367 343.237 192.641 344.299C191.916 345.36 190.887 346.177 189.689 346.644L163.287 361.905C160.748 363.154 157.932 363.733 155.106 363.587Z" fill="white"/>
<path d="M128.703 184.927C128.119 184.927 127.558 184.694 127.144 184.281C126.731 183.867 126.498 183.307 126.498 182.722V132.704C126.447 132.388 126.464 132.065 126.55 131.757C126.635 131.449 126.787 131.163 126.994 130.92C127.201 130.676 127.458 130.48 127.749 130.346C128.039 130.212 128.355 130.142 128.674 130.142C128.994 130.142 129.31 130.212 129.6 130.346C129.89 130.48 130.148 130.676 130.355 130.92C130.562 131.163 130.713 131.449 130.799 131.757C130.884 132.065 130.902 132.388 130.85 132.704V182.722C130.85 183.297 130.626 183.849 130.225 184.261C129.824 184.673 129.278 184.912 128.703 184.927Z" fill="white"/>
<path d="M128.703 101.428C128.119 101.428 127.558 101.195 127.144 100.782C126.731 100.368 126.498 99.8074 126.498 99.2226V37.8897C126.447 37.5742 126.464 37.2512 126.55 36.9431C126.635 36.635 126.787 36.3493 126.994 36.1056C127.201 35.8619 127.458 35.6662 127.749 35.5319C128.039 35.3977 128.355 35.3281 128.674 35.3281C128.994 35.3281 129.31 35.3977 129.6 35.5319C129.89 35.6662 130.148 35.8619 130.355 36.1056C130.562 36.3493 130.713 36.635 130.799 36.9431C130.884 37.2512 130.902 37.5742 130.85 37.8897V99.2226C130.85 99.7975 130.626 100.35 130.225 100.762C129.824 101.173 129.278 101.412 128.703 101.428Z" fill="white"/>
</svg>
