<svg width="83" height="84" viewBox="0 0 83 84" fill="none" xmlns="http://www.w3.org/2000/svg">
<path d="M13.7089 14.7422H9.66382V29.9831H13.7089V14.7422Z" fill="#4C0980"/>
<path d="M24.7047 23.1787H20.6597V29.9762H24.7047V23.1787Z" fill="#2737CE"/>
<path d="M35.6941 25.2248V14.7354H31.649V21.173L35.6941 25.2248Z" fill="#4C0980"/>
<path d="M11.6898 8.05078L22.679 16.4943L33.6749 8.05078L44.6641 15.0748" stroke="#1D1D1D" stroke-width="3" stroke-linecap="round" stroke-linejoin="round"/>
<path d="M57.0393 36.0342V77.1055" stroke="#1D1D1D" stroke-width="3" stroke-linecap="round" stroke-linejoin="round"/>
<path d="M65.5361 77.1056V50.0957" stroke="#1D1D1D" stroke-width="3" stroke-linecap="round" stroke-linejoin="round"/>
<path d="M74.0329 50.0957V77.1056" stroke="#1D1D1D" stroke-width="3" stroke-linecap="round" stroke-linejoin="round"/>
<path d="M74.0329 36.0342V50.0956" stroke="#1D1D1D" stroke-width="3" stroke-linecap="round" stroke-linejoin="round"/>
<path d="M65.5361 19.7333C69.9528 19.7333 73.5331 16.1529 73.5331 11.7363C73.5331 7.31964 69.9528 3.73926 65.5361 3.73926C61.1195 3.73926 57.5391 7.31964 57.5391 11.7363C57.5391 16.1529 61.1195 19.7333 65.5361 19.7333Z" stroke="#1D1D1D" stroke-width="3" stroke-linecap="round" stroke-linejoin="round"/>
<path d="M80.7572 48.1231V29.8766C80.7554 28.4974 80.2063 27.1753 79.2304 26.2007C78.2545 25.226 76.9316 24.6785 75.5524 24.6785H55.5132C54.1346 24.6785 52.8125 25.2262 51.8377 26.2011C50.8628 27.1759 50.3153 28.498 50.3153 29.8766V44.9643L29.0765 23.7256" stroke="#1D1D1D" stroke-width="3" stroke-linecap="round" stroke-linejoin="round"/>
<path d="M57.0393 50.0957H74.0329" stroke="#1D1D1D" stroke-width="3" stroke-linecap="round" stroke-linejoin="round"/>
<path d="M65.5361 24.6982V33.9615" stroke="#1D1D1D" stroke-width="3" stroke-linecap="round" stroke-linejoin="round"/>
<path d="M65.5361 81.9107H53.7872C53.7872 80.6205 54.2997 79.3831 55.212 78.4707C56.1243 77.5584 57.3617 77.0459 58.6519 77.0459H65.5361V81.9107Z" stroke="#1D1D1D" stroke-width="3" stroke-linecap="round" stroke-linejoin="round"/>
<path d="M65.5361 81.9107H77.2852C77.2852 81.2718 77.1593 80.6392 76.9148 80.049C76.6704 79.4588 76.312 78.9225 75.8602 78.4707C75.4085 78.019 74.8721 77.6607 74.2819 77.4162C73.6917 77.1717 73.0591 77.0459 72.4203 77.0459H65.5361V81.9107Z" stroke="#1D1D1D" stroke-width="3" stroke-linecap="round" stroke-linejoin="round"/>
<path d="M35.6939 36.0339H2V2H50.3152V22.3124" stroke="#1D1D1D" stroke-width="3" stroke-linecap="round" stroke-linejoin="round"/>
<path d="M26.1578 36.0342V67.4224L11.6898 81.9103" stroke="#1D1D1D" stroke-width="3" stroke-linecap="round" stroke-linejoin="round"/>
<path d="M26.1577 67.4219L40.6322 81.9098" stroke="#1D1D1D" stroke-width="3" stroke-linecap="round" stroke-linejoin="round"/>
</svg>
