<svg width="83" height="83" viewBox="0 0 83 83" fill="none" xmlns="http://www.w3.org/2000/svg">
<path d="M75.5463 61.5361H47.6938" stroke="#1D1D1D" stroke-width="3" stroke-linecap="round" stroke-linejoin="round"/>
<path d="M32.0963 9.51172H75.5463" stroke="#1D1D1D" stroke-width="3" stroke-linecap="round" stroke-linejoin="round"/>
<path d="M26.6426 54.0303V6.64521C26.6447 5.41265 27.2596 4.23112 28.3522 3.36015C29.4449 2.48918 30.926 2 32.4702 2H75.1802C76.7237 2 78.204 2.48938 79.2954 3.36053C80.3869 4.23168 81 5.41322 81 6.64521V68.7869C81.001 69.3971 80.8512 70.0015 80.5591 70.5655C80.267 71.1294 79.8384 71.6418 79.2977 72.0733C78.7571 72.5048 78.115 72.847 77.4085 73.0802C76.7019 73.3133 75.9448 73.4329 75.1802 73.4321H39.2639" stroke="#1D1D1D" stroke-width="3" stroke-linecap="round" stroke-linejoin="round"/>
<path d="M57.261 67.549C57.261 67.0066 57.0595 66.4764 56.682 66.0255C56.3044 65.5745 55.7678 65.223 55.14 65.0154C54.5122 64.8078 53.8214 64.7535 53.1549 64.8593C52.4884 64.9651 51.8762 65.2263 51.3957 65.6099C50.9152 65.9934 50.588 66.4821 50.4554 67.014C50.3228 67.546 50.3909 68.0974 50.6509 68.5985C50.911 69.0996 51.3514 69.5279 51.9164 69.8292C52.4814 70.1305 53.1457 70.2913 53.8252 70.2913C54.7358 70.2897 55.6085 70.0003 56.2524 69.4863C56.8963 68.9724 57.259 68.2758 57.261 67.549Z" fill="#2737CE"/>
<path d="M48.4337 5.7998H59.2086" stroke="#1D1D1D" stroke-width="3" stroke-linecap="round" stroke-linejoin="round"/>
<path d="M37.3864 31.4949C37.3864 32.6147 37.9437 33.6887 38.9358 34.4806C39.9279 35.2724 41.2733 35.7173 42.6763 35.7173C44.0793 35.7173 45.4249 35.2724 46.417 34.4806C47.409 33.6887 47.9664 32.6147 47.9664 31.4949C47.9664 29.1629 45.7927 28.0872 42.6763 27.2726C39.9028 26.5512 37.3864 25.407 37.3864 23.0564C37.3864 22.5019 37.5232 21.9529 37.789 21.4406C38.0549 20.9283 38.4446 20.4628 38.9358 20.0707C39.427 19.6786 40.0101 19.3676 40.6519 19.1554C41.2938 18.9432 41.9816 18.834 42.6763 18.834C43.371 18.834 44.059 18.9432 44.7008 19.1554C45.3426 19.3676 45.9257 19.6786 46.417 20.0707C46.9082 20.4628 47.2979 20.9283 47.5637 21.4406C47.8296 21.9529 47.9664 22.5019 47.9664 23.0564" stroke="#1D1D1D" stroke-width="3" stroke-linecap="round" stroke-linejoin="round"/>
<path d="M42.6765 16.4834V18.8651" stroke="#1D1D1D" stroke-width="3" stroke-linecap="round" stroke-linejoin="round"/>
<path d="M42.6765 35.7168V38.0985" stroke="#1D1D1D" stroke-width="3" stroke-linecap="round" stroke-linejoin="round"/>
<path d="M26.6427 35.2695L24.3054 36.3142C14.8395 40.5179 7.2433 52.0098 4.82811 60.4421C2.94271 67.0772 2 71.3742 2 81.0005" stroke="#1D1D1D" stroke-width="3" stroke-linecap="round" stroke-linejoin="round"/>
<path d="M26.6425 54.0307V54.0743C26.6418 54.5351 26.8015 54.9872 27.1039 55.3798C27.4062 55.7725 27.8393 56.0904 28.3548 56.298C28.8703 56.5057 29.4479 56.595 30.0233 56.5559C30.5986 56.5168 31.149 56.3508 31.6131 56.0766C37.8459 52.4263 41.3129 48.6144 43.9072 45.8844C44.2801 45.4878 44.75 45.1556 45.2884 44.9082C45.8269 44.6608 46.4228 44.5033 47.0398 44.4452C47.6568 44.387 48.2822 44.4295 48.878 44.57C49.4739 44.7105 50.0278 44.9461 50.5061 45.2626L50.6464 45.3559C52.9837 47.0224 52.7733 48.6268 50.6464 51.2261C48.7298 53.5456 46.2211 56.1077 44.6629 58.0665C43.1008 60.0679 41.7807 62.1835 40.7207 64.3845C37.207 71.3555 31.582 74.3342 27.6554 75.6152C26.3242 76.0558 25.1873 76.8025 24.3896 77.7604C23.5918 78.7183 23.1693 79.844 23.1756 80.9942V80.9942" stroke="#1D1D1D" stroke-width="3" stroke-linecap="round" stroke-linejoin="round"/>
<path d="M56.9493 31.8115H72.7259" stroke="#1D1D1D" stroke-width="3" stroke-linecap="round" stroke-linejoin="round"/>
<path d="M56.9493 22.7705H72.7259" stroke="#1D1D1D" stroke-width="3" stroke-linecap="round" stroke-linejoin="round"/>
</svg>
