<svg width="83" height="80" viewBox="0 0 83 80" fill="none" xmlns="http://www.w3.org/2000/svg">
<path d="M54.4077 31.604L44.629 14.7842H22.046L8.26437 36.5717C4.24234 41.8996 2.04552 48.3824 2 55.0578C2 65.369 7.42494 77.7474 33.1903 77.7474C43.5453 77.7474 47.7612 77.5407 47.7612 77.5407" stroke="#1D1D1D" stroke-width="3" stroke-linecap="round" stroke-linejoin="round"/>
<path d="M44.629 14.784L52.9857 6.6904L49.9851 3.68982C49.4509 3.15417 48.8162 2.72913 48.1175 2.43916C47.4188 2.14919 46.6697 2 45.9132 2C45.1567 2 44.4077 2.14919 43.709 2.43916C43.0102 2.72913 42.3756 3.15417 41.8414 3.68982L39.4233 6.10786L38.3584 5.04287C37.025 3.70973 35.2167 2.96084 33.3312 2.96084C31.4457 2.96084 29.6375 3.70973 28.3041 5.04287L27.2391 6.10786L24.8211 3.68982C24.2869 3.15417 23.6523 2.72913 22.9535 2.43916C22.2548 2.14919 21.5058 2 20.7493 2C19.9928 2 19.2437 2.14919 18.545 2.43916C17.8463 2.72913 17.2116 3.15417 16.6774 3.68982L13.6768 6.6904L22.0335 14.784" stroke="#1D1D1D" stroke-width="3" stroke-linecap="round" stroke-linejoin="round"/>
<path d="M81 31.6045H47.7675V77.5412H81V31.6045Z" stroke="#1D1D1D" stroke-width="3" stroke-linecap="round" stroke-linejoin="round"/>
<path d="M76.333 36.2705H52.4282V41.5325H76.333V36.2705Z" fill="#2737CE"/>
<path d="M28.2102 54.557C28.2102 55.8113 28.7085 57.0143 29.5954 57.9013C30.4824 58.7883 31.6854 59.2866 32.9398 59.2866C34.1941 59.2866 35.3971 58.7883 36.2841 57.9013C37.1711 57.0143 37.6694 55.8113 37.6694 54.557C37.6694 51.9447 35.7274 50.7357 32.9398 49.8273C30.434 49.0192 28.2102 47.71 28.2102 45.0978C28.2102 43.8434 28.7085 42.6405 29.5954 41.7535C30.4824 40.8665 31.6854 40.3682 32.9398 40.3682C34.1941 40.3682 35.3971 40.8665 36.2841 41.7535C37.1711 42.6405 37.6694 43.8434 37.6694 45.0978" stroke="#1D1D1D" stroke-width="3" stroke-linecap="round" stroke-linejoin="round"/>
<path d="M32.9397 37.7305V40.3991" stroke="#1D1D1D" stroke-width="3" stroke-linecap="round" stroke-linejoin="round"/>
<path d="M32.9397 59.2861V61.9548" stroke="#1D1D1D" stroke-width="3" stroke-linecap="round" stroke-linejoin="round"/>
<path d="M56.9072 56.167H59.2814" stroke="#1D1D1D" stroke-width="3" stroke-linecap="round" stroke-linejoin="round"/>
<path d="M63.1967 56.167H65.5708" stroke="#1D1D1D" stroke-width="3" stroke-linecap="round" stroke-linejoin="round"/>
<path d="M69.4799 56.167H71.8541" stroke="#1D1D1D" stroke-width="3" stroke-linecap="round" stroke-linejoin="round"/>
<path d="M56.9072 61.7295H59.2814" stroke="#1D1D1D" stroke-width="3" stroke-linecap="round" stroke-linejoin="round"/>
<path d="M63.1967 61.7295H65.5708" stroke="#1D1D1D" stroke-width="3" stroke-linecap="round" stroke-linejoin="round"/>
<path d="M69.4799 61.7295H71.8541" stroke="#1D1D1D" stroke-width="3" stroke-linecap="round" stroke-linejoin="round"/>
<path d="M56.9072 67.292H59.2814" stroke="#1D1D1D" stroke-width="3" stroke-linecap="round" stroke-linejoin="round"/>
<path d="M63.1967 67.292H65.5708" stroke="#1D1D1D" stroke-width="3" stroke-linecap="round" stroke-linejoin="round"/>
<path d="M69.4799 67.292H71.8541" stroke="#1D1D1D" stroke-width="3" stroke-linecap="round" stroke-linejoin="round"/>
</svg>
