<svg width="139" height="159" viewBox="0 0 139 159" fill="none" xmlns="http://www.w3.org/2000/svg">
<g opacity="0.1">
<path d="M125.174 66.7271V149.352C125.174 151.457 124.338 153.475 122.85 154.963C121.362 156.451 119.344 157.287 117.24 157.287H21.5502C19.4457 157.287 17.4273 156.451 15.9392 154.963C14.4511 153.475 13.6152 151.457 13.6152 149.352V66.7271" stroke="#2737CE" stroke-width="3" stroke-linecap="round" stroke-linejoin="round"/>
<path d="M60.3244 66.7267H8.87785C7.05374 66.7267 5.30419 66.0021 4.01435 64.7123C2.72451 63.4224 2 61.6731 2 59.8489V48.0248C2 46.2007 2.72451 44.4513 4.01435 43.1615C5.30419 41.8716 7.05374 41.147 8.87785 41.147" stroke="#2737CE" stroke-width="3" stroke-linecap="round" stroke-linejoin="round"/>
<path d="M129.872 41.147C131.697 41.147 133.446 41.8716 134.736 43.1615C136.026 44.4513 136.75 46.2007 136.75 48.0248V59.8489C136.75 61.6731 136.026 63.4224 134.736 64.7123C133.446 66.0021 131.697 66.7267 129.872 66.7267H100.573" stroke="#2737CE" stroke-width="3" stroke-linecap="round" stroke-linejoin="round"/>
<path d="M56.6054 157.287V66.7271" stroke="#2737CE" stroke-width="3" stroke-linecap="round" stroke-linejoin="round"/>
<path d="M82.1719 95.2036V157.287" stroke="#2737CE" stroke-width="3" stroke-linecap="round" stroke-linejoin="round"/>
<path d="M80.9446 15.4238C86.9216 10.6667 93.5606 6.80655 100.652 3.96519C104.28 2.52959 108.273 1.35499 112.019 2.39906C115.764 3.44314 118.884 7.61944 117.513 11.2215C116.73 13.2705 114.798 14.6669 113.741 16.5985C111.288 21.0749 114.211 26.5041 117.174 30.6674C120.136 34.8306 123.386 39.9204 121.494 44.6579C119.862 48.795 114.773 50.6352 110.374 50.087C105.976 49.5389 102.022 47.1898 98.1064 45.0886C95.0924 43.2866 91.7757 42.0484 88.3182 41.4344" stroke="#2737CE" stroke-width="3" stroke-linecap="round" stroke-linejoin="round"/>
<path d="M58.288 15.7893C52.1935 10.8584 45.3918 6.87242 38.1114 3.96519C34.4963 2.52959 30.5027 1.35499 26.7571 2.39906C23.0115 3.44314 19.8924 7.61944 21.2628 11.2215C22.0458 13.2705 23.9772 14.6669 25.0343 16.5985C27.4879 21.0749 24.5647 26.5041 21.6021 30.6674C18.6395 34.8306 15.3898 39.9204 17.2822 44.6579C18.9135 48.795 24.0034 50.6352 28.4016 50.087C32.7997 49.5389 36.754 47.1898 40.6693 45.0886C43.6832 43.2866 47 42.0484 50.4575 41.4344" stroke="#2737CE" stroke-width="3" stroke-linecap="round" stroke-linejoin="round"/>
<path d="M83.5681 68.1754C83.3936 71.3409 82.6092 74.443 81.258 77.311C79.4831 80.3388 75.9464 82.6227 72.514 81.8658C67.8026 80.8217 65.8448 74.6747 67.3978 70.1199C68.5107 67.145 70.6225 64.6491 73.3721 63.0589C76.1216 61.4687 79.3381 60.883 82.4717 61.4019C89.5192 62.7853 94.3481 69.8589 95.2747 76.9847C96.2013 84.1105 93.9697 91.2363 91.4378 97.9575" stroke="#2737CE" stroke-width="3" stroke-linecap="round" stroke-linejoin="round"/>
<path d="M80.488 37.6755V29.7144C80.488 27.4611 79.5929 25.3001 77.9995 23.7067C76.4062 22.1134 74.2452 21.2183 71.9918 21.2183H66.7715C64.5204 21.2217 62.3629 22.1184 60.7724 23.7113C59.1819 25.3043 58.2884 27.4634 58.2884 29.7144V37.6755C58.2884 38.5962 58.6544 39.4792 59.3054 40.1302C59.9565 40.7812 60.8394 41.147 61.7601 41.147H65.2054C71.3002 40.9121 78.3348 44.1487 81.0755 49.5126C83.0962 53.2604 84.002 57.5083 83.6857 61.7544" stroke="#2737CE" stroke-width="3" stroke-linecap="round" stroke-linejoin="round"/>
<path d="M21.5502 149.457H40.3173C37.7494 144.005 36.0794 138.175 35.3712 132.19C34.288 122.689 35.6192 112.888 33.0612 103.687C31.0894 96.765 27.0337 90.6179 21.4457 86.0815V149.352C21.4485 149.379 21.4605 149.404 21.4795 149.423C21.4985 149.442 21.5235 149.454 21.5502 149.457Z" fill="#2737CE"/>
<path d="M116.939 149.457H98.172C100.736 144.005 102.401 138.174 103.105 132.19C104.202 122.689 102.857 112.888 105.428 103.687C107.395 96.7625 111.451 90.6139 117.044 86.0815V149.352C117.041 149.379 117.029 149.404 117.01 149.423C116.991 149.442 116.966 149.454 116.939 149.457Z" fill="#2737CE"/>
</g>
</svg>
