<svg width="121" height="128" viewBox="0 0 121 128" fill="none" xmlns="http://www.w3.org/2000/svg">
<g opacity="0.1">
<path d="M19.3406 115.811V126.087" stroke="#2737CE" stroke-width="3" stroke-linecap="round" stroke-linejoin="round"/>
<path d="M8.80817 115.811V126.087" stroke="#2737CE" stroke-width="3" stroke-linecap="round" stroke-linejoin="round"/>
<path d="M20.0303 97.0224C20.0283 98.1775 19.684 99.3061 19.0408 100.266C18.3977 101.225 17.4845 101.972 16.4167 102.413C15.349 102.854 14.1745 102.968 13.0418 102.742C11.9091 102.515 10.869 101.958 10.0529 101.14C9.23677 100.323 8.68132 99.2818 8.45668 98.1487C8.23204 97.0156 8.34829 95.8414 8.79079 94.7744C9.23329 93.7074 9.98217 92.7954 10.9428 92.1539C11.9034 91.5123 13.0326 91.1699 14.1877 91.1699C14.9558 91.1699 15.7163 91.3214 16.4258 91.6156C17.1353 91.9098 17.7798 92.3411 18.3225 92.8847C18.8652 93.4282 19.2953 94.0735 19.5884 94.7835C19.8814 95.4935 20.0316 96.2543 20.0303 97.0224V97.0224Z" stroke="#2737CE" stroke-width="3" stroke-linecap="round" stroke-linejoin="round"/>
<path d="M2 126.087V111.308C2 110.299 2.40067 109.332 3.11389 108.619C3.8271 107.906 4.79443 107.505 5.80308 107.505H22.5524C23.0519 107.505 23.5464 107.603 24.0078 107.794C24.4693 107.985 24.8885 108.266 25.2416 108.619C25.5948 108.972 25.8749 109.391 26.0661 109.853C26.2572 110.314 26.3556 110.809 26.3556 111.308V126.087" stroke="#2737CE" stroke-width="3" stroke-linecap="round" stroke-linejoin="round"/>
<path d="M111.984 115.811V126.087" stroke="#2737CE" stroke-width="3" stroke-linecap="round" stroke-linejoin="round"/>
<path d="M101.452 115.811V126.087" stroke="#2737CE" stroke-width="3" stroke-linecap="round" stroke-linejoin="round"/>
<path d="M106.802 102.865C110.029 102.865 112.644 100.249 112.644 97.0223C112.644 93.7955 110.029 91.1797 106.802 91.1797C103.575 91.1797 100.959 93.7955 100.959 97.0223C100.959 100.249 103.575 102.865 106.802 102.865Z" stroke="#2737CE" stroke-width="3" stroke-linecap="round" stroke-linejoin="round"/>
<path d="M94.6536 126.087V111.308C94.6523 110.809 94.7495 110.315 94.9395 109.853C95.1296 109.392 95.4088 108.973 95.7611 108.619C96.1135 108.266 96.5321 107.986 96.993 107.795C97.4538 107.603 97.9479 107.505 98.4469 107.505H115.196C115.696 107.505 116.19 107.603 116.652 107.794C117.113 107.985 117.532 108.266 117.885 108.619C118.239 108.972 118.519 109.391 118.71 109.853C118.901 110.314 118.999 110.809 118.999 111.308V126.087" stroke="#2737CE" stroke-width="3" stroke-linecap="round" stroke-linejoin="round"/>
<path d="M68.8103 52.3997C71.5141 52.4386 74.1608 51.6207 76.3714 50.0632C78.5819 48.5058 80.2428 46.2887 81.1161 43.7295C81.569 42.3788 81.8116 40.9665 81.8354 39.5421C81.7985 34.8166 80.2404 30.2286 77.3919 26.4579L67.8546 11.0288H51.8343L42.1 26.4579C39.2447 30.2257 37.6828 34.8149 37.6466 39.5421C37.6417 39.5847 37.6417 39.6277 37.6466 39.6702C37.7036 43.0798 39.1036 46.3291 41.5423 48.7126C43.9811 51.096 47.2617 52.421 50.6717 52.3997H68.8103Z" stroke="#2737CE" stroke-width="3" stroke-linecap="round" stroke-linejoin="round"/>
<path d="M67.8152 11.0391L73.7268 5.31472L71.6085 3.19639C71.2305 2.81717 70.7813 2.51629 70.2868 2.31099C69.7922 2.10569 69.262 2 68.7266 2C68.1911 2 67.661 2.10569 67.1664 2.31099C66.6719 2.51629 66.2227 2.81717 65.8447 3.19639L64.1304 4.9009L63.3816 4.15209C62.4377 3.20991 61.1585 2.68076 59.8248 2.68076C58.4911 2.68076 57.2119 3.20991 56.268 4.15209L55.5094 4.9009L53.8049 3.19639C53.4269 2.81717 52.9777 2.51629 52.4832 2.31099C51.9886 2.10569 51.4585 2 50.923 2C50.3876 2 49.8574 2.10569 49.3628 2.31099C48.8683 2.51629 48.4191 2.81717 48.0411 3.19639L45.9228 5.30486L51.8344 11.0292" stroke="#2737CE" stroke-width="3" stroke-linecap="round" stroke-linejoin="round"/>
<path d="M51.0264 85.5142V126.087" stroke="#2737CE" stroke-width="3" stroke-linecap="round" stroke-linejoin="round"/>
<path d="M59.7263 126.088V101.161" stroke="#2737CE" stroke-width="3" stroke-linecap="round" stroke-linejoin="round"/>
<path d="M68.4162 101.161V126.088" stroke="#2737CE" stroke-width="3" stroke-linecap="round" stroke-linejoin="round"/>
<path d="M68.4162 85.5142V101.16" stroke="#2737CE" stroke-width="3" stroke-linecap="round" stroke-linejoin="round"/>
<path d="M66.3373 69.3463C66.3373 70.6503 65.9505 71.9251 65.2258 73.0093C64.5011 74.0934 63.4711 74.9382 62.2661 75.4368C61.0611 75.9354 59.7353 76.0654 58.4564 75.8102C57.1775 75.5551 56.0031 74.9264 55.0817 74.0036C54.1603 73.0808 53.5332 71.9054 53.28 70.6261C53.0268 69.3469 53.1588 68.0213 53.6591 66.817C54.1595 65.6128 55.0059 64.584 56.0912 63.861C57.1764 63.1379 58.4517 62.7529 59.7558 62.7549C60.6209 62.7549 61.4776 62.9254 62.2767 63.2568C63.0759 63.5882 63.8019 64.0739 64.4131 64.686C65.0244 65.2982 65.509 66.025 65.8392 66.8246C66.1693 67.6243 66.3386 68.4811 66.3373 69.3463Z" stroke="#2737CE" stroke-width="3" stroke-linecap="round" stroke-linejoin="round"/>
<path d="M51.0264 101.161H68.4162" stroke="#2737CE" stroke-width="3" stroke-linecap="round" stroke-linejoin="round"/>
<path d="M59.7263 80.2432V87.8789" stroke="#2737CE" stroke-width="3" stroke-linecap="round" stroke-linejoin="round"/>
<path d="M59.7263 80.2433H67.4408L76.9584 70.7257V60.4199" stroke="#2737CE" stroke-width="3" stroke-linecap="round" stroke-linejoin="round"/>
<path d="M59.7263 80.2433H52.0019L42.4843 70.7257V60.4199" stroke="#2737CE" stroke-width="3" stroke-linecap="round" stroke-linejoin="round"/>
<path d="M87.6879 38.8726C87.6879 38.8726 106.802 48.5773 106.802 78.3814" stroke="#2737CE" stroke-width="3" stroke-linecap="round" stroke-linejoin="round"/>
<path d="M101.373 80.6475L106.802 86.0762L112.231 80.6475" stroke="#2737CE" stroke-width="3" stroke-linecap="round" stroke-linejoin="round"/>
<path d="M32.6415 38.8726C32.6415 38.8726 13.5276 48.5773 13.5276 78.3814" stroke="#2737CE" stroke-width="3" stroke-linecap="round" stroke-linejoin="round"/>
<path d="M18.9563 80.6475L13.5276 86.0762L8.09882 80.6475" stroke="#2737CE" stroke-width="3" stroke-linecap="round" stroke-linejoin="round"/>
<path d="M72.6036 29.9952L72.4558 29.7883L64.5738 16.98H55.135C54.9394 17.2948 54.8683 17.6713 54.9357 18.0358C55.0032 18.4003 55.2042 18.7265 55.4995 18.9505C57.255 20.1921 58.8299 21.6709 60.1795 23.3447C64.8989 29.2563 66.4359 37.7393 63.2732 44.5869C62.9641 45.2477 62.6153 45.8893 62.2288 46.5081H68.8596C70.3062 46.539 71.7257 46.1141 72.9175 45.2937C74.1093 44.4733 75.0128 43.2988 75.5003 41.9365C75.7632 41.1679 75.9094 40.3642 75.9338 39.5522C75.8799 36.0914 74.7121 32.7401 72.6036 29.9952Z" fill="#2737CE"/>
</g>
</svg>
