<svg width="133" height="136" viewBox="0 0 133 136" fill="none" xmlns="http://www.w3.org/2000/svg">
<g opacity="0.1">
<path d="M60.6037 116.271H40.6716C40.2099 116.277 39.7615 116.427 39.3895 116.7C39.0175 116.974 38.7405 117.357 38.5975 117.796L34.7811 131.869C34.7191 132.063 34.7038 132.269 34.7365 132.47C34.7692 132.672 34.8488 132.862 34.9691 133.027C35.0893 133.192 35.2467 133.326 35.4285 133.418C35.6103 133.511 35.8113 133.559 36.0152 133.559H56.6318" stroke="#2737CE" stroke-width="3" stroke-linecap="round" stroke-linejoin="round"/>
<path d="M104.948 116.271H124.88C125.342 116.277 125.79 116.427 126.162 116.7C126.534 116.974 126.811 117.357 126.954 117.796L130.739 131.869C130.801 132.063 130.817 132.269 130.784 132.47C130.751 132.672 130.672 132.862 130.552 133.027C130.431 133.192 130.274 133.326 130.092 133.418C129.91 133.511 129.709 133.559 129.505 133.559H108.91" stroke="#2737CE" stroke-width="3" stroke-linecap="round" stroke-linejoin="round"/>
<path d="M98.6946 113.616C98.5146 113.056 98.1616 112.567 97.6864 112.221C97.2112 111.874 96.6383 111.687 96.0501 111.687H69.5535C68.9653 111.687 68.3924 111.874 67.9171 112.221C67.4419 112.567 67.0889 113.056 66.909 113.616L62.1178 131.412C62.0376 131.658 62.0167 131.919 62.0569 132.174C62.097 132.43 62.197 132.672 62.3487 132.881C62.5005 133.091 62.6996 133.261 62.9298 133.379C63.16 133.497 63.4148 133.558 63.6734 133.558H101.93C102.189 133.557 102.444 133.496 102.674 133.378C102.904 133.26 103.104 133.09 103.256 132.881C103.409 132.672 103.51 132.43 103.552 132.175C103.593 131.92 103.574 131.658 103.496 131.412L98.6946 113.616Z" stroke="#2737CE" stroke-width="3" stroke-linecap="round" stroke-linejoin="round"/>
<path d="M69.6572 127.336L72.1979 117.909H93.4056L95.9464 127.336H69.6572Z" fill="#2737CE"/>
<path d="M97.0042 99.948L93.893 88.2916C93.7678 87.9003 93.5216 87.5589 93.1898 87.3166C92.858 87.0743 92.4579 86.9436 92.0471 86.9434H73.5565C73.1456 86.9436 72.7455 87.0743 72.4137 87.3166C72.082 87.5589 71.8357 87.9003 71.7105 88.2916L68.5994 99.948" stroke="#2737CE" stroke-width="3" stroke-linecap="round" stroke-linejoin="round"/>
<path d="M47.2258 116.271L51.374 101.39C51.5077 100.972 51.7705 100.607 52.1246 100.348C52.4786 100.089 52.9057 99.9493 53.3443 99.9482H73.0483C73.487 99.9493 73.914 100.089 74.2681 100.348C74.6221 100.607 74.8849 100.972 75.0187 101.39L77.7461 111.688" stroke="#2737CE" stroke-width="3" stroke-linecap="round" stroke-linejoin="round"/>
<path d="M118.212 116.271L114.064 101.39C113.93 100.972 113.667 100.607 113.313 100.348C112.959 100.089 112.532 99.9493 112.093 99.9482H92.3375C91.8988 99.9493 91.4718 100.089 91.1177 100.348C90.7637 100.607 90.5009 100.972 90.3671 101.39L87.6811 111.688" stroke="#2737CE" stroke-width="3" stroke-linecap="round" stroke-linejoin="round"/>
<path d="M68.5682 81.5714H14.9112V14.4639H107.831V81.5714H97.0456" stroke="#2737CE" stroke-width="3" stroke-linecap="round" stroke-linejoin="round"/>
<path d="M47.6613 94.4828H6.58377C5.98095 94.4828 5.38405 94.3639 4.82725 94.1329C4.27044 93.9019 3.76467 93.5634 3.33889 93.1366C2.91311 92.7099 2.5757 92.2033 2.34595 91.646C2.11621 91.0887 1.99865 90.4915 2.00001 89.8886V6.13642C2.00001 5.53447 2.11858 4.93847 2.34893 4.38234C2.57929 3.82622 2.91692 3.3209 3.34256 2.89525C3.7682 2.46961 4.27352 2.13198 4.82964 1.90162C5.38577 1.67127 5.98182 1.55273 6.58377 1.55273H116.159C116.76 1.55273 117.357 1.67127 117.913 1.90162C118.469 2.13198 118.974 2.46961 119.4 2.89525C119.825 3.3209 120.163 3.82622 120.393 4.38234C120.624 4.93847 120.742 5.53447 120.742 6.13642V89.8886C120.744 90.4915 120.626 91.0887 120.396 91.646C120.167 92.2033 119.829 92.7099 119.403 93.1366C118.978 93.5634 118.472 93.9019 117.915 94.1329C117.358 94.3639 116.761 94.4828 116.159 94.4828" stroke="#2737CE" stroke-width="3" stroke-linecap="round" stroke-linejoin="round"/>
<path d="M36.7308 99.9067V104.376H14.9112V99.9067" stroke="#2737CE" stroke-width="3" stroke-linecap="round" stroke-linejoin="round"/>
<path d="M69.2942 38.4609H73.3698" stroke="#2737CE" stroke-width="3" stroke-linecap="round" stroke-linejoin="round"/>
<path d="M80.0898 38.4609H84.1654" stroke="#2737CE" stroke-width="3" stroke-linecap="round" stroke-linejoin="round"/>
<path d="M90.8752 38.4609H94.9508" stroke="#2737CE" stroke-width="3" stroke-linecap="round" stroke-linejoin="round"/>
<path d="M69.2942 48.0122H73.3698" stroke="#2737CE" stroke-width="3" stroke-linecap="round" stroke-linejoin="round"/>
<path d="M80.0898 48.0122H84.1654" stroke="#2737CE" stroke-width="3" stroke-linecap="round" stroke-linejoin="round"/>
<path d="M90.8752 48.0122H94.9508" stroke="#2737CE" stroke-width="3" stroke-linecap="round" stroke-linejoin="round"/>
<path d="M69.2942 57.5635H73.3698" stroke="#2737CE" stroke-width="3" stroke-linecap="round" stroke-linejoin="round"/>
<path d="M80.0898 57.5635H84.1654" stroke="#2737CE" stroke-width="3" stroke-linecap="round" stroke-linejoin="round"/>
<path d="M90.8752 57.5635H94.9508" stroke="#2737CE" stroke-width="3" stroke-linecap="round" stroke-linejoin="round"/>
<path d="M48.2477 63.5166C56.8235 60.0047 60.9285 50.2055 57.4166 41.6297C53.9046 33.0539 44.1056 28.9489 35.5298 32.4609C26.954 35.9728 22.8489 45.7718 26.3608 54.3476C29.8728 62.9234 39.6719 67.0286 48.2477 63.5166Z" stroke="#2737CE" stroke-width="3" stroke-linecap="round" stroke-linejoin="round"/>
<path d="M41.8331 31.2334V42.8276" stroke="#2737CE" stroke-width="3" stroke-linecap="round" stroke-linejoin="round"/>
<path d="M47.0288 48.0124C47.0288 49.0379 46.7247 50.0404 46.1549 50.8932C45.5851 51.7459 44.7753 52.4105 43.8278 52.8029C42.8803 53.1954 41.8378 53.2981 40.8319 53.098C39.8261 52.898 38.9022 52.4041 38.177 51.6789C37.4518 50.9537 36.958 50.0298 36.7579 49.024C36.5578 48.0182 36.6605 46.9757 37.053 46.0282C37.4454 45.0807 38.11 44.2708 38.9627 43.701C39.8155 43.1313 40.818 42.8271 41.8435 42.8271C43.2187 42.8271 44.5376 43.3735 45.51 44.3459C46.4825 45.3183 47.0288 46.6372 47.0288 48.0124Z" stroke="#2737CE" stroke-width="3" stroke-linecap="round" stroke-linejoin="round"/>
</g>
</svg>
