<svg width="142" height="134" viewBox="0 0 142 134" fill="none" xmlns="http://www.w3.org/2000/svg">
<g opacity="0.1">
<path d="M71.1599 2.15918L2 40.5099H140.32L71.1599 2.15918Z" stroke="#2737CE" stroke-width="3" stroke-linecap="round" stroke-linejoin="round"/>
<path d="M130.365 40.5103V49.1553H11.9557V40.5103" stroke="#2737CE" stroke-width="3" stroke-linecap="round" stroke-linejoin="round"/>
<path d="M130.365 122.178V111.188H11.9557V122.178" stroke="#2737CE" stroke-width="3" stroke-linecap="round" stroke-linejoin="round"/>
<path d="M11.2083 122.178H131.123C133.562 122.178 135.902 123.147 137.626 124.872C139.351 126.597 140.32 128.936 140.32 131.375V131.571H2V131.375C2 130.166 2.2382 128.969 2.7011 127.853C3.164 126.736 3.84253 125.722 4.69775 124.868C5.55297 124.014 6.568 123.337 7.68514 122.875C8.80227 122.414 9.99961 122.177 11.2083 122.178Z" stroke="#2737CE" stroke-width="3" stroke-linecap="round" stroke-linejoin="round"/>
<path d="M103.418 111.187V78.8952H91.5544L110.96 55.9951L130.365 78.8952H118.501V111.187" stroke="#2737CE" stroke-width="3" stroke-linecap="round" stroke-linejoin="round"/>
<path d="M38.9023 49.0977V81.3899H50.7663L31.3609 104.29L11.9557 81.3899H23.8197V49.0977" stroke="#2737CE" stroke-width="3" stroke-linecap="round" stroke-linejoin="round"/>
<path d="M63.2399 92.7249L78.7365 64.5137" stroke="#2737CE" stroke-width="3" stroke-linecap="round" stroke-linejoin="round"/>
<path d="M81.7017 92.7245C80.3713 92.7245 79.0953 92.1969 78.1535 91.2572C77.2117 90.3176 76.6811 89.0427 76.678 87.7123V84.2635C76.678 82.9311 77.2071 81.6533 78.1493 80.7112C79.0914 79.7691 80.3693 79.2397 81.7017 79.2397V79.2397C83.032 79.2428 84.3071 79.7734 85.2467 80.7152C86.1864 81.657 86.714 82.9331 86.714 84.2635V87.7123C86.714 89.0416 86.1859 90.3165 85.2459 91.2565C84.3059 92.1965 83.031 92.7245 81.7017 92.7245Z" stroke="#2737CE" stroke-width="3" stroke-linecap="round" stroke-linejoin="round"/>
<path d="M60.6182 78.0209C59.2888 78.0209 58.0139 77.4928 57.0739 76.5528C56.1339 75.6129 55.6058 74.338 55.6058 73.0087V69.5599C55.6058 68.2295 56.1334 66.9534 57.0731 66.0116C58.0127 65.0698 59.2878 64.5392 60.6182 64.5361V64.5361C61.9505 64.5361 63.2284 65.0654 64.1705 66.0075C65.1127 66.9497 65.6418 68.2275 65.6418 69.5599V73.0087C65.6387 74.3391 65.1081 75.6139 64.1663 76.5535C63.2245 77.4932 61.9486 78.0209 60.6182 78.0209V78.0209Z" stroke="#2737CE" stroke-width="3" stroke-linecap="round" stroke-linejoin="round"/>
<path d="M26.0153 35.8425L71.1602 10.8042L116.305 35.8425L93.4508 29.2553C78.8869 25.0568 63.4335 25.0568 48.8695 29.2553L26.0153 35.8425Z" fill="#2737CE"/>
</g>
</svg>
