<svg width="47" height="47" viewBox="0 0 47 47" fill="none" xmlns="http://www.w3.org/2000/svg">
<path d="M21.3719 11.1826C22.1488 11.3811 22.717 12.295 22.717 13.4245C22.717 14.6464 22.0325 15.6184 21.1768 15.6937C20.7415 17.4686 19.735 19.0513 18.312 20.198L18.5379 22.1284C18.5556 22.2809 18.606 22.4277 18.6858 22.5588C18.7655 22.69 18.8727 22.8024 18.9999 22.8882C19.0914 22.95 19.1919 22.9973 19.2977 23.0286L24.1819 24.4456" stroke="#1D1D1D" stroke-linecap="round" stroke-linejoin="round"/>
<path d="M7.59211 11.1965C6.83569 11.4122 6.28808 12.3123 6.28808 13.4247C6.28808 14.6466 6.97262 15.6152 7.82487 15.694C8.26389 17.4673 9.26977 19.0488 10.6897 20.1982L10.4672 22.1286C10.4428 22.3367 10.3577 22.5329 10.2226 22.693C10.0875 22.853 9.90833 22.9698 9.70735 23.0288L4.84025 24.439C4.13466 24.6193 3.48078 24.9614 2.9304 25.4384C1.93535 26.262 1.25378 27.4028 1 28.6694V40.4058C1 41.7675 1.54092 43.0733 2.50374 44.0361C3.46656 44.9989 4.77241 45.5399 6.13404 45.5399H34.4808" stroke="#1D1D1D" stroke-linecap="round" stroke-linejoin="round"/>
<path d="M8.43062 6.99341C7.40381 8.49939 7.59204 11.1964 7.59204 11.1964" stroke="#1D1D1D" stroke-linecap="round" stroke-linejoin="round"/>
<path d="M21.3718 11.1828C21.3917 10.0749 21.2428 8.97035 20.9303 7.90723" stroke="#1D1D1D" stroke-linecap="round" stroke-linejoin="round"/>
<path d="M18.4866 21.6765L14.5026 25.243L10.5186 21.6765" stroke="#1D1D1D" stroke-linecap="round" stroke-linejoin="round"/>
<path d="M8.43066 6.99314C8.45805 3.91271 11.0387 2.20137 13.4517 1.8591C14.0439 1.7838 16.0222 1.55105 17.381 1C17.4696 1.13926 17.5234 1.29782 17.5376 1.46226C17.5519 1.62671 17.5264 1.7922 17.4631 1.94467V1.94467C18.758 2.30802 20.1399 2.19882 21.3616 1.63662C21.3616 2.52309 21.4027 4.31314 21.0433 5.12432C20.8767 5.53788 20.6239 5.91118 20.3016 6.21927C19.9794 6.52736 19.5951 6.76315 19.1745 6.91095C18.6154 7.05611 18.0316 7.07832 17.4631 6.97601C16.3234 6.82541 15.2144 6.48654 14.0883 6.26749C12.9624 5.99633 11.7871 6.00576 10.6657 6.2949" stroke="#1D1D1D" stroke-linecap="round" stroke-linejoin="round"/>
<path d="M16.3097 26.9851L18.2915 35.0079L14.5026 38.5025L10.7102 35.0079L12.6954 26.9851L14.5026 28.9737L16.3097 26.9851Z" fill="#2737CE"/>
<path d="M34.4739 20.5304V16.5566" stroke="#1D1D1D" stroke-linecap="round" stroke-linejoin="round"/>
<path d="M37.6057 20.5304L39.4984 16.8989" stroke="#1D1D1D" stroke-linecap="round" stroke-linejoin="round"/>
<path d="M31.3422 20.5304L29.4495 16.8989" stroke="#1D1D1D" stroke-linecap="round" stroke-linejoin="round"/>
<path d="M34.4739 35.8704C33.8594 35.8704 33.27 35.6263 32.8354 35.1918C32.4009 34.7572 32.1567 34.1678 32.1567 33.5533V29.3023C32.1567 28.6877 32.4009 28.0983 32.8354 27.6638C33.27 27.2292 33.8594 26.9851 34.4739 26.9851C35.0885 26.9851 35.6778 27.2292 36.1124 27.6638C36.5469 28.0983 36.7911 28.6877 36.7911 29.3023V33.5533C36.7911 34.1678 36.5469 34.7572 36.1124 35.1918C35.6778 35.6263 35.0885 35.8704 34.4739 35.8704Z" stroke="#1D1D1D" stroke-linecap="round" stroke-linejoin="round"/>
<path d="M30.1235 31.4277V33.8236C30.1235 34.9774 30.5819 36.0839 31.3977 36.8997C32.2136 37.7156 33.32 38.1739 34.4738 38.1739C35.6276 38.1739 36.7341 37.7156 37.5499 36.8997C38.3657 36.0839 38.824 34.9774 38.824 33.8236V31.4277" stroke="#1D1D1D" stroke-linecap="round" stroke-linejoin="round"/>
<path d="M34.4739 38.1875V42.1407" stroke="#1D1D1D" stroke-linecap="round" stroke-linejoin="round"/>
<path d="M31.0647 42.1409H37.8793" stroke="#1D1D1D" stroke-linecap="round" stroke-linejoin="round"/>
<path d="M23.2064 34.2687C23.2057 32.0401 23.866 29.8613 25.1037 28.0079C26.3414 26.1545 28.1009 24.7098 30.1597 23.8565C32.2185 23.0031 34.4841 22.7795 36.67 23.2139C38.8559 23.6483 40.8639 24.7211 42.4401 26.2968C44.0162 27.8724 45.0897 29.8801 45.5247 32.0659C45.9597 34.2517 45.7368 36.5173 44.8841 38.5764C44.0314 40.6355 42.5872 42.3954 40.7342 43.6337C38.8812 44.8719 36.7026 45.5328 34.4739 45.5328" stroke="#1D1D1D" stroke-linecap="round" stroke-linejoin="round"/>
</svg>
