<svg width="45" height="49" viewBox="0 0 45 49" fill="none" xmlns="http://www.w3.org/2000/svg">
<path d="M13.1471 47.5146V46.0223C13.1476 45.9186 13.1276 45.8159 13.0882 45.72C13.0488 45.6241 12.9909 45.5369 12.9178 45.4634C12.8446 45.39 12.7577 45.3317 12.662 45.2919C12.5662 45.2522 12.4636 45.2317 12.3599 45.2317H1.78722C1.68355 45.2317 1.58091 45.2522 1.48518 45.2919C1.38944 45.3317 1.30251 45.39 1.22936 45.4634C1.15622 45.5369 1.0983 45.6241 1.05894 45.72C1.01958 45.8159 0.999557 45.9186 1.00001 46.0223V47.5146H13.1471Z" stroke="#1D1D1D" stroke-linecap="round" stroke-linejoin="round"/>
<path d="M9.91605 32.7966C9.91605 33.3592 9.74924 33.9091 9.43671 34.3768C9.12418 34.8446 8.67997 35.2091 8.16025 35.4244C7.64053 35.6397 7.06865 35.696 6.51692 35.5863C5.96518 35.4765 5.45839 35.2056 5.06061 34.8078C4.66283 34.4101 4.39194 33.9033 4.28219 33.3515C4.17244 32.7998 4.22877 32.2279 4.44405 31.7082C4.65933 31.1885 5.02388 30.7443 5.49161 30.4317C5.95935 30.1192 6.50926 29.9524 7.0718 29.9524C7.44544 29.9519 7.8155 30.0252 8.16079 30.168C8.50607 30.3108 8.81979 30.5203 9.084 30.7845C9.3482 31.0487 9.55769 31.3624 9.70046 31.7077C9.84324 32.0529 9.9165 32.423 9.91605 32.7966V32.7966Z" stroke="#1D1D1D" stroke-linecap="round" stroke-linejoin="round"/>
<path d="M12.0789 45.2315C12.0481 43.592 11.1651 42.6782 10.6551 42.0587C10.6551 42.0587 8.66993 40.3268 8.73496 37.0033V35.0969" stroke="#1D1D1D" stroke-linecap="round" stroke-linejoin="round"/>
<path d="M2.06421 45.2315C2.09159 43.592 2.97465 42.6782 3.48463 42.0587C3.48463 42.0587 5.46979 40.3268 5.40476 37.0033V35.0969" stroke="#1D1D1D" stroke-linecap="round" stroke-linejoin="round"/>
<path d="M28.5937 47.5146V46.0223C28.5941 45.9184 28.574 45.8154 28.5344 45.7192C28.4948 45.6231 28.4366 45.5358 28.3631 45.4622C28.2896 45.3887 28.2023 45.3305 28.1061 45.2909C28.01 45.2514 27.907 45.2312 27.803 45.2317H17.2338C17.1298 45.2312 17.0268 45.2514 16.9307 45.2909C16.8345 45.3305 16.7472 45.3887 16.6737 45.4622C16.6002 45.5358 16.542 45.6231 16.5024 45.7192C16.4628 45.8154 16.4427 45.9184 16.4431 46.0223V47.5146H28.5937Z" stroke="#1D1D1D" stroke-linecap="round" stroke-linejoin="round"/>
<path d="M25.3592 32.7966C25.3592 33.3593 25.1923 33.9094 24.8796 34.3772C24.5669 34.845 24.1225 35.2096 23.6026 35.4247C23.0826 35.6399 22.5106 35.696 21.9588 35.586C21.4069 35.476 20.9001 35.2047 20.5025 34.8066C20.1049 34.4085 19.8343 33.9014 19.7249 33.3494C19.6155 32.7975 19.6723 32.2255 19.8881 31.7058C20.1039 31.1862 20.469 30.7422 20.9372 30.4301C21.4054 30.118 21.9556 29.9517 22.5183 29.9524C22.8918 29.9519 23.2617 30.0252 23.6068 30.168C23.9519 30.3108 24.2654 30.5204 24.5293 30.7847C24.7933 31.0489 25.0024 31.3626 25.1448 31.7079C25.2872 32.0532 25.3601 32.4232 25.3592 32.7966V32.7966Z" stroke="#1D1D1D" stroke-linecap="round" stroke-linejoin="round"/>
<path d="M27.5294 45.2315C27.4986 43.592 26.6155 42.6782 26.1055 42.0587C26.1055 42.0587 24.1204 40.3268 24.1854 37.0033V35.0969" stroke="#1D1D1D" stroke-linecap="round" stroke-linejoin="round"/>
<path d="M17.5076 45.2315C17.5384 43.592 18.4214 42.6782 18.9314 42.0587C18.9314 42.0587 20.9166 40.3268 20.8515 37.0033V35.0969" stroke="#1D1D1D" stroke-linecap="round" stroke-linejoin="round"/>
<path d="M44.037 47.5146V46.0223C44.0375 45.9186 44.0175 45.8159 43.9781 45.72C43.9387 45.6241 43.8808 45.5369 43.8077 45.4634C43.7345 45.39 43.6476 45.3317 43.5519 45.2919C43.4561 45.2522 43.3535 45.2317 43.2498 45.2317H32.6771C32.5734 45.2317 32.4708 45.2522 32.3751 45.2919C32.2793 45.3317 32.1924 45.39 32.1193 45.4634C32.0461 45.5369 31.9882 45.6241 31.9488 45.72C31.9095 45.8159 31.8894 45.9186 31.8899 46.0223V47.5146H44.037Z" stroke="#1D1D1D" stroke-linecap="round" stroke-linejoin="round"/>
<path d="M40.8057 32.7966C40.8057 33.3593 40.6388 33.9094 40.3261 34.3772C40.0134 34.845 39.569 35.2096 39.0491 35.4247C38.5292 35.6399 37.9571 35.696 37.4053 35.586C36.8535 35.476 36.3467 35.2047 35.949 34.8066C35.5514 34.4085 35.2808 33.9014 35.1714 33.3494C35.0621 32.7975 35.1189 32.2255 35.3347 31.7058C35.5505 31.1862 35.9156 30.7422 36.3838 30.4301C36.8519 30.118 37.4022 29.9517 37.9649 29.9524C38.3384 29.9519 38.7082 30.0252 39.0533 30.168C39.3984 30.3108 39.7119 30.5204 39.9759 30.7847C40.2398 31.0489 40.449 31.3626 40.5914 31.7079C40.7338 32.0532 40.8066 32.4232 40.8057 32.7966Z" stroke="#1D1D1D" stroke-linecap="round" stroke-linejoin="round"/>
<path d="M42.9725 45.2315C42.9451 43.592 42.0621 42.6782 41.5486 42.0587C41.5486 42.0587 39.5669 40.3268 39.6319 37.0033V35.0969" stroke="#1D1D1D" stroke-linecap="round" stroke-linejoin="round"/>
<path d="M32.9578 45.2315C32.9886 43.592 33.8716 42.6782 34.3816 42.0587C34.3816 42.0587 36.3668 40.3268 36.3017 37.0033V35.0969" stroke="#1D1D1D" stroke-linecap="round" stroke-linejoin="round"/>
<path d="M22.5149 5.83969V1" stroke="#1D1D1D" stroke-linecap="round" stroke-linejoin="round"/>
<path d="M20.5708 3.25562H24.459" stroke="#1D1D1D" stroke-linecap="round" stroke-linejoin="round"/>
<path d="M17.0249 16.2244C17.0249 16.2244 9.4436 16.8884 7.32495 24.5997" stroke="#1D1D1D" stroke-linecap="round" stroke-linejoin="round"/>
<path d="M7.07175 27.7961L5.32617 26.0505" stroke="#1D1D1D" stroke-linecap="round" stroke-linejoin="round"/>
<path d="M7.07153 27.7961L8.81711 26.0505" stroke="#1D1D1D" stroke-linecap="round" stroke-linejoin="round"/>
<path d="M28.0015 16.2244C28.0015 16.2244 35.5656 16.885 37.6945 24.5723" stroke="#1D1D1D" stroke-linecap="round" stroke-linejoin="round"/>
<path d="M37.9548 27.7961L39.7004 26.0505" stroke="#1D1D1D" stroke-linecap="round" stroke-linejoin="round"/>
<path d="M37.9548 27.7961L36.2092 26.0505" stroke="#1D1D1D" stroke-linecap="round" stroke-linejoin="round"/>
<path d="M16.6691 24.5276C17.8056 23.3489 18.482 21.8018 18.5755 20.1671C18.5822 19.8907 18.5219 19.6168 18.3997 19.3689C18.2775 19.1209 18.0971 18.9063 17.8738 18.7432C17.6649 18.5829 17.4844 18.3885 17.3399 18.1682C16.3276 18.364 15.3412 18.6752 14.3998 19.0958C14.5752 19.3391 14.7698 19.568 14.9817 19.7803C15.3616 20.1637 15.8168 20.5367 15.9298 21.0672C16.0632 21.6867 15.6731 22.2994 15.2452 22.7581C14.8174 23.2167 14.28 23.6274 14.0302 24.2093C13.6229 25.1608 14.061 26.2424 14.4922 27.1802C14.6497 27.5225 14.8105 27.8647 14.9851 28.207C14.9851 27.1528 15.3274 25.8522 16.6417 24.555L16.6691 24.5276Z" fill="#2737CE"/>
<path d="M28.3164 24.5276C27.1798 23.3489 26.5034 21.8018 26.4099 20.1671C26.4032 19.8907 26.4635 19.6168 26.5857 19.3689C26.7079 19.1209 26.8883 18.9063 27.1116 18.7432C27.3206 18.5829 27.5011 18.3885 27.6455 18.1682C28.6578 18.364 29.6443 18.6752 30.5856 19.0958C30.4112 19.3399 30.2166 19.5689 30.0038 19.7803C29.6238 20.1637 29.1686 20.5367 29.0557 21.0672C28.9222 21.6867 29.3124 22.2994 29.7402 22.7581C30.1681 23.2167 30.7054 23.6274 30.9553 24.2093C31.3626 25.1608 30.9279 26.2424 30.4932 27.1802C30.3358 27.5225 30.1783 27.8647 30.0003 28.207C30.0174 27.1528 29.6581 25.8522 28.3438 24.555L28.3164 24.5276Z" fill="#4C0980"/>
<path d="M27.8236 29.0628C27.9962 28.6057 28.0357 28.1091 27.9376 27.6305C27.8395 27.152 27.6077 26.711 27.2691 26.3588L26.8858 25.9584C25.9013 24.9471 25.1745 23.714 24.7665 22.3631C24.3584 21.0121 24.2812 19.5828 24.5412 18.1957C24.5877 17.9557 24.7046 17.735 24.8772 17.5619C25.0497 17.3887 25.27 17.2709 25.5098 17.2236C25.6263 17.2387 25.7446 17.2288 25.857 17.1946C25.9694 17.1604 26.0732 17.1027 26.1615 17.0254C26.2499 16.948 26.3208 16.8528 26.3695 16.7459C26.4183 16.6391 26.4437 16.523 26.4442 16.4056V16.0633C26.4442 15.847 26.3585 15.6394 26.2058 15.4861C26.0532 15.3328 25.846 15.2463 25.6296 15.2454C24.9451 15.2454 24.661 15.3138 24.5686 15.0092C24.4749 14.6744 24.5141 14.3163 24.6781 14.0097L25.6022 11.2031C25.7388 10.7837 25.7703 10.3371 25.6939 9.90262C25.6175 9.46815 25.4356 9.0591 25.1641 8.7114L23.1345 6.12729C23.0602 6.03201 22.9652 5.95491 22.8567 5.90188C22.7481 5.84886 22.6289 5.82129 22.5081 5.82129C22.3873 5.82129 22.2681 5.84886 22.1596 5.90188C22.051 5.95491 21.956 6.03201 21.8818 6.12729L19.8521 8.7114C19.5806 9.0591 19.3987 9.46815 19.3223 9.90262C19.2459 10.3371 19.2774 10.7837 19.414 11.2031C20.5503 14.6532 20.5846 14.5437 20.4408 15.0092C20.4176 15.0806 20.3715 15.1425 20.3097 15.1852C20.2478 15.2279 20.1736 15.249 20.0986 15.2454H19.4962C19.3889 15.2453 19.2827 15.2665 19.1836 15.3076C19.0846 15.3488 18.9946 15.4091 18.9189 15.4851C18.8433 15.5611 18.7833 15.6513 18.7426 15.7506C18.7018 15.8498 18.6811 15.9561 18.6816 16.0633V16.4056C18.6811 16.5129 18.7018 16.6192 18.7426 16.7184C18.7833 16.8176 18.8433 16.9078 18.9189 16.9839C18.9946 17.0599 19.0846 17.1201 19.1836 17.1613C19.2827 17.2024 19.3889 17.2236 19.4962 17.2236C19.9993 17.3229 20.3758 17.6686 20.4956 18.3805C20.7213 19.7414 20.624 21.1363 20.2114 22.4526C19.7987 23.769 19.0824 24.9698 18.1202 25.9584C17.8635 26.2287 16.5321 27.3514 17.1824 29.0628" stroke="#1D1D1D" stroke-linecap="round" stroke-linejoin="round"/>
</svg>
