<svg width="52" height="49" viewBox="0 0 52 49" fill="none" xmlns="http://www.w3.org/2000/svg">
<path d="M29.4702 32.2805C29.4702 33.0338 29.7695 33.7563 30.3022 34.289C30.8349 34.8217 31.5574 35.121 32.3108 35.121C33.0641 35.121 33.7867 34.8217 34.3194 34.289C34.8521 33.7563 35.1513 33.0338 35.1513 32.2805C35.1513 30.7138 33.9877 29.9989 32.3108 29.4399C30.8201 28.9532 29.4702 28.1698 29.4702 26.5993C29.4702 25.846 29.7695 25.1235 30.3022 24.5908C30.8349 24.058 31.5574 23.7588 32.3108 23.7588C33.0641 23.7588 33.7867 24.058 34.3194 24.5908C34.8521 25.1235 35.1513 25.846 35.1513 26.5993" stroke="#1D1D1D" stroke-linecap="round" stroke-linejoin="round"/>
<path d="M32.3108 22.177V23.7779" stroke="#1D1D1D" stroke-linecap="round" stroke-linejoin="round"/>
<path d="M32.3108 35.1208V36.7256" stroke="#1D1D1D" stroke-linecap="round" stroke-linejoin="round"/>
<path d="M17.3817 35.6799H1.79098C1.68761 35.6799 1.58532 35.6596 1.48982 35.62C1.39432 35.5804 1.30751 35.5225 1.23442 35.4494C1.16133 35.3763 1.10334 35.2895 1.06379 35.194C1.02423 35.0985 1.00391 34.9961 1.00391 34.8928V1.78715C1.00391 1.68378 1.02423 1.58143 1.06379 1.48593C1.10334 1.39043 1.16133 1.30365 1.23442 1.23056C1.30751 1.15747 1.39432 1.09948 1.48982 1.05993C1.58532 1.02037 1.68761 1 1.79098 1H42.6312C42.8403 0.999998 43.0409 1.08282 43.1891 1.23033C43.3374 1.37784 43.4211 1.57803 43.4221 1.78715V17.7011" stroke="#1D1D1D" stroke-linecap="round" stroke-linejoin="round"/>
<path d="M15.6552 6.08395C15.9324 6.08395 16.1572 5.85924 16.1572 5.58203C16.1572 5.30481 15.9324 5.08008 15.6552 5.08008C15.378 5.08008 15.1533 5.30481 15.1533 5.58203C15.1533 5.85924 15.378 6.08395 15.6552 6.08395Z" stroke="#1D1D1D" stroke-linecap="round" stroke-linejoin="round"/>
<path d="M11.4799 5.62794C11.4799 5.52866 11.4505 5.4316 11.3953 5.34905C11.3402 5.26651 11.2618 5.20218 11.1701 5.16419C11.0784 5.1262 10.9775 5.11625 10.8801 5.13562C10.7827 5.15499 10.6933 5.2028 10.6231 5.273C10.5529 5.34319 10.5051 5.43263 10.4857 5.52999C10.4663 5.62736 10.4763 5.7283 10.5143 5.82002C10.5523 5.91174 10.6166 5.99013 10.6991 6.04529C10.7817 6.10044 10.8788 6.12986 10.978 6.12986C11.1112 6.12986 11.2388 6.07699 11.3329 5.98285C11.4271 5.88872 11.4799 5.76106 11.4799 5.62794V5.62794Z" stroke="#1D1D1D" stroke-linecap="round" stroke-linejoin="round"/>
<path d="M6.8067 5.67362C6.80745 5.57344 6.77835 5.47528 6.72324 5.39161C6.66812 5.30794 6.58943 5.24252 6.49708 5.20366C6.40474 5.16479 6.30291 5.15424 6.20455 5.17332C6.1062 5.19241 6.01581 5.24026 5.9447 5.31084C5.87359 5.38141 5.82499 5.47153 5.80517 5.56974C5.78534 5.66795 5.79513 5.76984 5.8333 5.86248C5.87146 5.95511 5.93628 6.0343 6.01953 6.09005C6.10278 6.14579 6.20073 6.17557 6.30092 6.17557C6.43439 6.17558 6.56249 6.1228 6.65723 6.02877C6.75197 5.93475 6.80569 5.8071 6.8067 5.67362Z" stroke="#1D1D1D" stroke-linecap="round" stroke-linejoin="round"/>
<path d="M1 10.2554H43.4182" stroke="#1D1D1D" stroke-linecap="round" stroke-linejoin="round"/>
<path d="M22.4277 5.62769H39.3228" stroke="#1D1D1D" stroke-linecap="round" stroke-linejoin="round"/>
<path d="M32.3108 41.9348C39.2056 41.9348 44.7949 36.3455 44.7949 29.4508C44.7949 22.5561 39.2056 16.9668 32.3108 16.9668C25.4161 16.9668 19.8269 22.5561 19.8269 29.4508C19.8269 36.3455 25.4161 41.9348 32.3108 41.9348Z" stroke="#1D1D1D" stroke-linecap="round" stroke-linejoin="round"/>
<path d="M32.3109 19.2605C31.8364 19.2619 31.3624 19.2962 30.8926 19.3632C33.3282 19.7048 35.5582 20.9151 37.172 22.771C38.7858 24.6269 39.6746 27.0035 39.6746 29.463C39.6746 31.9224 38.7858 34.299 37.172 36.1549C35.5582 38.0108 33.3282 39.2211 30.8926 39.5627C32.2803 39.7611 33.694 39.6713 35.0455 39.299C36.397 38.9267 37.6573 38.28 38.7477 37.399C39.8382 36.5181 40.7353 35.4218 41.3833 34.1788C42.0313 32.9357 42.4161 31.5724 42.5138 30.174C42.6115 28.7755 42.4199 27.372 41.9511 26.0509C41.4823 24.7298 40.7462 23.5195 39.7889 22.4954C38.8316 21.4714 37.6735 20.6557 36.3869 20.0991C35.1003 19.5425 33.7128 19.2571 32.3109 19.2605Z" fill="#4C0980"/>
<path d="M33.8357 45.2663C37.6257 45.2663 41.2605 43.7607 43.9405 41.0808C46.6204 38.4009 48.126 34.7661 48.126 30.9761" stroke="#1D1D1D" stroke-linecap="round" stroke-linejoin="round"/>
<path d="M45.0418 39.8438L50.5176 45.3195C50.8265 45.6296 50.9998 46.0493 50.9998 46.4869C50.9998 46.9245 50.8265 47.3443 50.5176 47.6543V47.6543C50.3646 47.8082 50.1827 47.9302 49.9823 48.0135C49.782 48.0968 49.5672 48.1397 49.3502 48.1397C49.1332 48.1397 48.9184 48.0968 48.7181 48.0135C48.5177 47.9302 48.3358 47.8082 48.1828 47.6543L42.707 42.1786" stroke="#1D1D1D" stroke-linecap="round" stroke-linejoin="round"/>
<path d="M12.0848 33.3985C8.66308 31.216 6.03198 27.9931 4.57845 24.2038L3.29321 20.8423V33.4137L12.0848 33.3985Z" fill="#2737CE"/>
</svg>
