<svg width="47" height="46" viewBox="0 0 47 46" fill="none" xmlns="http://www.w3.org/2000/svg">
<path d="M23.7401 26.2263C21.4339 28.0175 18.6282 29.0481 15.7109 29.1758C12.7936 29.3035 9.90867 28.5219 7.45476 26.9391C5.00085 25.3563 3.09915 23.0504 2.01242 20.34C0.925692 17.6297 0.707599 14.6487 1.3883 11.8091C2.069 8.96943 3.61489 6.41129 5.81231 4.48819C8.00974 2.56509 10.7502 1.37198 13.655 1.07373C16.5598 0.775471 19.4856 1.38679 22.028 2.82322C24.5704 4.25965 26.6038 6.45028 27.8474 9.09236" stroke="#1D1D1D" stroke-miterlimit="10" stroke-linecap="round"/>
<path d="M12.1715 26.7706C12.151 26.6679 12.1271 26.5618 12.1065 26.4591C11.73 24.4945 11.6924 22.4751 11.3124 20.5105C10.9325 18.5459 10.1419 16.5607 8.59484 15.2943C7.04778 14.0279 5.09001 13.6685 3.2178 13.1003C3.10802 13.7576 3.0519 14.4226 3.05005 15.0889C3.05423 17.7733 3.95353 20.3797 5.60562 22.4954C7.25771 24.6112 9.56825 26.1157 12.1715 26.7706Z" fill="#2737CE"/>
<path d="M7.2566 5.95729L7.83848 7.03545C8.80368 8.82209 10.0769 10.6943 12.0518 11.1735C13.6536 11.5602 15.341 10.9099 16.6964 9.97553C18.0518 9.04113 19.1984 7.82609 20.5435 6.86774C21.188 6.40916 21.8758 6.01479 22.5971 5.69031C20.4113 3.93501 17.6798 3.00066 14.8769 3.04942C12.074 3.09819 9.37659 4.12702 7.25317 5.95729H7.2566Z" fill="#4C0980"/>
<path d="M25.0442 19.9351C24.3186 20.1404 23.7915 21.0064 23.7915 22.0708C23.7915 23.2448 24.4315 24.1758 25.2667 24.2511C25.6833 25.9512 26.645 27.4683 28.0048 28.5705L27.7892 30.4256C27.7721 30.5717 27.7238 30.7123 27.6476 30.8381C27.5715 30.9639 27.4692 31.0718 27.3477 31.1547C27.2588 31.2128 27.1619 31.2578 27.0602 31.2881L22.3882 32.6572C21.711 32.8285 21.0837 33.1568 20.557 33.6156C19.6016 34.4061 18.9468 35.5008 18.702 36.7165L17.6067 45.3109H39.5598" stroke="#1D1D1D" stroke-miterlimit="10" stroke-linecap="round"/>
<path d="M38.3483 19.9351C39.0739 20.1404 39.601 21.0064 39.601 22.0708C39.601 23.2448 38.961 24.1758 38.1258 24.2511C37.7083 25.9508 36.7468 27.4676 35.3877 28.5705L35.5999 30.4256C35.6174 30.5719 35.6662 30.7128 35.743 30.8386C35.8197 30.9644 35.9227 31.0722 36.0448 31.1547C36.1321 31.2134 36.228 31.2585 36.3289 31.2881L41.0009 32.6572C41.6785 32.8272 42.3062 33.1557 42.8321 33.6156C43.7888 34.405 44.4439 35.5002 44.6871 36.7165L45.7824 45.3109H39.5839" stroke="#1D1D1D" stroke-miterlimit="10" stroke-linecap="round"/>
<path d="M25.8485 15.9001C24.8628 17.3445 25.0441 19.9355 25.0441 19.9355" stroke="#1D1D1D" stroke-miterlimit="10" stroke-linecap="round"/>
<path d="M38.2799 19.9216C38.2987 18.8577 38.1555 17.797 37.8555 16.7761" stroke="#1D1D1D" stroke-miterlimit="10" stroke-linecap="round"/>
<path d="M35.4971 29.9912L31.6739 33.4139L27.8542 29.9912" stroke="#1D1D1D" stroke-miterlimit="10" stroke-linecap="round"/>
<path d="M25.8486 15.8998C25.876 12.9631 28.3506 11.286 30.6643 10.9814C31.2359 10.9061 33.1355 10.6836 34.4293 10.1531V10.1736C34.5141 10.3074 34.5655 10.4597 34.5792 10.6175C34.5929 10.7754 34.5685 10.9342 34.508 11.0806V11.0806C35.7522 11.4259 37.0785 11.3204 38.2525 10.7828C38.2525 11.6351 38.2901 13.3499 37.9478 14.1302C37.7861 14.5262 37.5424 14.8834 37.2327 15.1784C36.923 15.4733 36.5543 15.6994 36.1509 15.8416C35.6183 15.9768 35.0631 15.9978 34.5217 15.9032C33.4265 15.7595 32.3654 15.4343 31.2839 15.2187C30.205 14.9605 29.0793 14.9699 28.0049 15.246" stroke="#1D1D1D" stroke-miterlimit="10" stroke-linecap="round"/>
<path d="M36.4656 12.9634C36.382 13.2396 36.23 13.4902 36.0235 13.6919C35.8171 13.8936 35.563 14.0397 35.2848 14.1168C34.7113 14.217 34.1215 14.1663 33.5735 13.9697" stroke="#1D1D1D" stroke-miterlimit="10" stroke-linecap="round"/>
<path d="M31.6741 33.4141V39.7597" stroke="#1D1D1D" stroke-miterlimit="10" stroke-linecap="round"/>
<path d="M31.6739 25.511V24.5595C31.674 24.1756 31.7805 23.7993 31.9817 23.4724C32.183 23.1454 32.471 22.8808 32.8137 22.7079V22.7079C33.1782 22.5282 33.4868 22.2525 33.7063 21.9106C33.9258 21.5686 34.0479 21.1733 34.0596 20.7672V20.6337C33.993 20.0393 33.7064 19.4913 33.2563 19.0974C32.8062 18.7036 32.225 18.4923 31.6271 18.5052C31.0291 18.5181 30.4575 18.7541 30.0248 19.167C29.592 19.5799 29.3293 20.1397 29.2883 20.7364" stroke="#1D1D1D" stroke-miterlimit="10" stroke-linecap="round"/>
<path d="M32.0058 27.6262C32.0058 27.6939 31.9858 27.7601 31.9481 27.8163C31.9105 27.8726 31.8571 27.9165 31.7946 27.9424C31.732 27.9683 31.6632 27.9751 31.5968 27.9619C31.5304 27.9487 31.4694 27.9161 31.4215 27.8682C31.3737 27.8203 31.3411 27.7594 31.3279 27.693C31.3147 27.6266 31.3214 27.5578 31.3473 27.4952C31.3732 27.4327 31.4171 27.3792 31.4734 27.3416C31.5297 27.304 31.5959 27.2839 31.6636 27.2839C31.7544 27.2839 31.8414 27.32 31.9056 27.3842C31.9698 27.4484 32.0058 27.5354 32.0058 27.6262Z" stroke="#1D1D1D" stroke-miterlimit="10" stroke-linecap="round"/>
</svg>
