<svg width="43" height="43" viewBox="0 0 43 43" fill="none" xmlns="http://www.w3.org/2000/svg">
<path d="M41.9605 1.1539C36.628 0.435138 32.1819 2.25601 28.2698 6.15445L12.5835 21.8372C12.3058 22.1157 12.1498 22.493 12.1498 22.8863C12.1498 23.2796 12.3058 23.6569 12.5835 23.9353L19.1585 30.5103C19.296 30.6487 19.4594 30.7585 19.6395 30.8334C19.8195 30.9084 20.0126 30.947 20.2076 30.947C20.4026 30.947 20.5957 30.9084 20.7757 30.8334C20.9558 30.7585 21.1192 30.6487 21.2567 30.5103L36.9531 14.8275C40.8755 10.9086 42.6759 6.4625 41.9605 1.1539Z" stroke="#1D1D1D" stroke-linecap="round" stroke-linejoin="round"/>
<path d="M18.2209 29.5314L16.1844 32.7658C16.1291 32.8499 16.056 32.9207 15.9702 32.9733C15.8844 33.0259 15.7881 33.0589 15.6881 33.07C15.5881 33.0811 15.4868 33.0701 15.3916 33.0376C15.2963 33.0051 15.2095 32.952 15.1371 32.8822L10.2084 27.9535C10.1385 27.8811 10.0854 27.7942 10.053 27.6989C10.0205 27.6037 10.0094 27.5025 10.0205 27.4025C10.0317 27.3025 10.0647 27.2062 10.1172 27.1204C10.1698 27.0346 10.2407 26.9614 10.3248 26.9062L13.5558 24.8525" stroke="#1D1D1D" stroke-linecap="round" stroke-linejoin="round"/>
<path d="M27.6299 24.1545V32.7968L22.7662 37.6571V32.7353" stroke="#1D1D1D" stroke-linecap="round" stroke-linejoin="round"/>
<path d="M18.9567 15.4817H10.3179L5.45422 20.3453H10.3761" stroke="#1D1D1D" stroke-linecap="round" stroke-linejoin="round"/>
<path d="M39.7701 11.3502C37.9287 10.6855 36.2564 9.62327 34.8722 8.239C33.4879 6.85473 32.4256 5.18243 31.761 3.34106" stroke="#1D1D1D" stroke-linecap="round" stroke-linejoin="round"/>
<path d="M6.02914 31.5376C-0.234389 37.8354 1.12441 42.2643 1.12441 42.2643C1.12441 42.2643 5.55679 43.6334 11.8511 37.3596" stroke="#1D1D1D" stroke-linecap="round" stroke-linejoin="round"/>
<path d="M10.3691 33.0503L7.28186 36.1376" stroke="#1D1D1D" stroke-linecap="round" stroke-linejoin="round"/>
<path d="M14.4558 22.8882L20.223 28.6588L29.6868 19.1951L24.854 22.1215C23.4274 22.9795 21.8308 23.5159 20.1756 23.6932C18.5203 23.8705 16.8464 23.6846 15.2704 23.1483L14.4558 22.8882Z" fill="#4C0980"/>
</svg>
