<svg width="41" height="43" viewBox="0 0 41 43" fill="none" xmlns="http://www.w3.org/2000/svg">
<path d="M39.5258 42.4212H2.83801V6.64038" stroke="#1D1D1D" stroke-linecap="round" stroke-linejoin="round"/>
<path d="M27.7003 31.2019H36.815" stroke="#1D1D1D" stroke-linecap="round" stroke-linejoin="round"/>
<path d="M27.7003 34.9121H36.815" stroke="#1D1D1D" stroke-linecap="round" stroke-linejoin="round"/>
<path d="M27.7003 38.6255H36.815" stroke="#1D1D1D" stroke-linecap="round" stroke-linejoin="round"/>
<path d="M33.1938 5.84654C34.5321 5.84654 35.6171 4.7616 35.6171 3.42327C35.6171 2.08494 34.5321 1 33.1938 1C31.8555 1 30.7705 2.08494 30.7705 3.42327C30.7705 4.7616 31.8555 5.84654 33.1938 5.84654Z" stroke="#1D1D1D" stroke-linecap="round" stroke-linejoin="round"/>
<path d="M31.4585 16.9155V25.3319" stroke="#1D1D1D" stroke-linecap="round" stroke-linejoin="round"/>
<path d="M34.9292 25.1882V16.9155" stroke="#1D1D1D" stroke-linecap="round" stroke-linejoin="round"/>
<path d="M33.1871 9.77905V10.7888C33.1871 11.2635 32.9985 11.7188 32.6628 12.0545C32.3271 12.3902 31.8717 12.5788 31.397 12.5788H26.7284" stroke="#1D1D1D" stroke-linecap="round" stroke-linejoin="round"/>
<path d="M34.929 27.4917V25.1882H32.2559C31.6449 25.1882 31.0591 25.4309 30.6271 25.8629C30.1951 26.2949 29.9524 26.8808 29.9524 27.4917" stroke="#1D1D1D" stroke-linecap="round" stroke-linejoin="round"/>
<path d="M30.3875 11.2645V10.0974C30.3875 9.35302 30.6831 8.63915 31.2094 8.11281C31.7358 7.58647 32.4497 7.29077 33.194 7.29077C33.9387 7.29077 34.6529 7.58636 35.1798 8.1126C35.7067 8.63884 36.0032 9.35271 36.0041 10.0974V12.6131C36.0041 14.1136 35.635 15.5911 34.9294 16.9154H31.4758C30.9919 16.0045 30.6644 15.0187 30.5072 13.9993" stroke="#1D1D1D" stroke-linecap="round" stroke-linejoin="round"/>
<path d="M27.7003 42.4212V27.4915H36.815V42.4212" stroke="#1D1D1D" stroke-linecap="round" stroke-linejoin="round"/>
<path d="M1 5.87026L2.86535 4.00146L4.67939 5.81891" stroke="#1D1D1D" stroke-linecap="round" stroke-linejoin="round"/>
<path d="M20.1808 12.1338L22.2823 10.532L23.8328 12.5787" stroke="#1D1D1D" stroke-linecap="round" stroke-linejoin="round"/>
<path d="M1 9.76196H4.67939" stroke="#1D1D1D" stroke-linecap="round" stroke-linejoin="round"/>
<path d="M1 15.2827H4.67939" stroke="#1D1D1D" stroke-linecap="round" stroke-linejoin="round"/>
<path d="M1 20.8H4.67939" stroke="#1D1D1D" stroke-linecap="round" stroke-linejoin="round"/>
<path d="M1 26.3208H4.67939" stroke="#1D1D1D" stroke-linecap="round" stroke-linejoin="round"/>
<path d="M1 31.8384H4.67939" stroke="#1D1D1D" stroke-linecap="round" stroke-linejoin="round"/>
<path d="M1 37.3591H4.67939" stroke="#1D1D1D" stroke-linecap="round" stroke-linejoin="round"/>
<path d="M7.45862 37.359L9.25553 31.9135H13.1061L15.7586 20.8H20.2903L21.9126 13.0305" stroke="#1D1D1D" stroke-linecap="round" stroke-linejoin="round"/>
<path d="M11.1893 20.8H7.7085" stroke="#1D1D1D" stroke-linecap="round" stroke-linejoin="round" stroke-dasharray="0.01 6.77"/>
<path d="M16.6862 9.76196H7.56128" stroke="#1D1D1D" stroke-linecap="round" stroke-linejoin="round"/>
<path d="M23.5418 15.2827L22.3027 21.2211L21.9604 22.8537H20.2902H17.3809L15.1048 32.3893L14.7283 33.9672H13.106H10.7408L10.1316 35.8086H16.5321L19.1847 24.5308H23.1789L25.188 15.2827H23.5418Z" fill="#2737CE"/>
</svg>
