<svg width="46" height="46" viewBox="0 0 46 46" fill="none" xmlns="http://www.w3.org/2000/svg">
<path d="M36.1579 25.8901L27.7175 27.8445C27.7175 44.5267 36.1579 44.7902 36.1579 44.7902C36.1579 44.7902 44.5948 44.5267 44.5948 27.8445L36.1579 25.8901Z" stroke="#1D1D1D" stroke-linecap="round" stroke-linejoin="round"/>
<path d="M41.8087 24.4078L36.1544 23.1003L30.5035 24.4078" stroke="#1D1D1D" stroke-linecap="round" stroke-linejoin="round"/>
<path d="M25.9104 32.5814H3.57386C3.1932 32.5805 2.82843 32.4287 2.55959 32.1592C2.29074 31.8897 2.13977 31.5246 2.13977 31.1439V16.2107" stroke="#1D1D1D" stroke-linecap="round" stroke-linejoin="round"/>
<path d="M36.1545 16.2107V20.9922" stroke="#1D1D1D" stroke-linecap="round" stroke-linejoin="round"/>
<path d="M17.0387 17.5728C11.8415 17.4672 6.65931 16.9787 1.53396 16.1113C1.38466 16.0855 1.24917 16.0079 1.1515 15.8921C1.05382 15.7762 1.00021 15.6297 1 15.4781V7.10624C0.999999 6.72557 1.15097 6.36045 1.41981 6.09096C1.68866 5.82147 2.05342 5.66961 2.43409 5.6687H35.8601C36.0487 5.6687 36.2355 5.70592 36.4097 5.77821C36.584 5.85049 36.7422 5.95643 36.8754 6.08996C37.0086 6.22349 37.1142 6.38199 37.186 6.55638C37.2579 6.73077 37.2947 6.91762 37.2942 7.10624V15.4781C37.2949 15.6294 37.2419 15.7759 37.1447 15.8918C37.0476 16.0077 36.9127 16.0855 36.7637 16.1113C31.6383 16.9785 26.456 17.467 21.2589 17.5728" stroke="#1D1D1D" stroke-linecap="round" stroke-linejoin="round"/>
<path d="M20.8071 15.4817H17.4905C17.241 15.4817 17.0387 15.6839 17.0387 15.9335V19.2535C17.0387 19.503 17.241 19.7053 17.4905 19.7053H20.8071C21.0566 19.7053 21.2589 19.503 21.2589 19.2535V15.9335C21.2589 15.6839 21.0566 15.4817 20.8071 15.4817Z" stroke="#1D1D1D" stroke-linecap="round" stroke-linejoin="round"/>
<path d="M18.4728 17.5933H19.8213" stroke="#1D1D1D" stroke-linecap="round" stroke-linejoin="round"/>
<path d="M17.0387 21.4951H21.2589" stroke="#1D1D1D" stroke-linecap="round" stroke-linejoin="round"/>
<path d="M27.0569 5.66854V2.68053C27.0573 2.46 27.0143 2.24154 26.9302 2.03767C26.8461 1.8338 26.7226 1.64851 26.5668 1.49241C26.4111 1.33631 26.2261 1.21247 26.0224 1.12797C25.8187 1.04348 25.6003 1 25.3798 1H12.9178C12.4721 1 12.0446 1.17704 11.7294 1.4922C11.4143 1.80736 11.2372 2.23483 11.2372 2.68053V5.66854" stroke="#1D1D1D" stroke-linecap="round" stroke-linejoin="round"/>
<path d="M15.4506 3.22144H22.8436" stroke="#1D1D1D" stroke-linecap="round" stroke-linejoin="round"/>
<path d="M33.5225 34.8708L36.1476 37.212L39.9332 32.5811" stroke="#1D1D1D" stroke-linecap="round" stroke-linejoin="round"/>
<path d="M20.1533 30.5276C19.7058 29.3176 18.8483 28.3028 17.73 27.6594C16.3267 26.9133 14.6223 26.9749 13.1745 26.2903C10.8026 25.2053 9.65594 22.5254 7.75293 20.7456C6.72433 19.8091 5.51213 19.0969 4.19336 18.6543V30.5208L20.1533 30.5276Z" fill="#4C0980"/>
</svg>
